<svg xmlns="http://www.w3.org/2000/svg" xmlns:xlink="http://www.w3.org/1999/xlink" width="204" height="97" viewBox="0 0 204 97"><defs><style>.a{fill:#fff;stroke:#707070;opacity:0;}.b{clip-path:url(#a);}.c{fill:#c03;}</style><clipPath id="a"><rect class="a" width="204" height="97" transform="translate(161 3021)"/></clipPath></defs><g class="b" transform="translate(-161 -3021)"><g transform="translate(126 2969.816)"><path d="M226.592,221.441v-9.762c0-2.594,1.476-5.467,5.367-5.467s5.387,2.873,5.387,5.467v9.762h-3.334v-5.4h-3.252v-2.915h3.252v-2a2.043,2.043,0,0,0-4.085,0v10.314Zm22.541-11.993h-2.312c-2.184,0-3.9,2.379-3.9,4.5s1.712,4.5,3.9,4.5h2.312v2.991H246.65a7.506,7.506,0,0,1,0-14.985h2.483Zm4.42,0H250.3v-2.992h9.671v2.992h-3.255v11.993h-3.16Zm16.165,0h-1.924a3.7,3.7,0,0,0-3.827,3.114h5.751v2.775h-5.751a3.7,3.7,0,0,0,3.827,3.114h1.924v2.991h-1.644c-5.133,0-7.358-3.809-7.358-7.491s2.226-7.494,7.358-7.494h1.644Zm6.971-2.992v10.067c0,1.371.557,1.758,1.627,1.758h2.375v3.16h-3.146c-2.4,0-4.02-1.2-4.02-4.49V206.456Zm6.643,14.985V206.456H286.5v14.985Zm13.1-12.141a4.651,4.651,0,1,1-4.476,4.649A4.4,4.4,0,0,1,296.435,209.3Zm0-3.088a7.736,7.736,0,1,0,7.64,7.737A7.571,7.571,0,0,0,296.435,206.212Zm9.983,15.229V208.393a2.065,2.065,0,0,1,2.18-2.183c1.515,0,2.223,1.155,2.732,2.17l3.683,7.68h.066v-9.6h3.163v13.069c0,1.157-.43,2.161-1.774,2.161-1.325,0-1.884-.812-2.593-2.234l-4.252-8.758-.045.042v10.705Z" transform="translate(-121.894 -105.823)"/><path class="c" d="M73.862,87.2c.247-.561,4.671-11.21,16.144-13.853,3.468-1.025,11.257-1.656,16.605-1.186,20.338,1.778,24.661,11.523,26.611,17.962H117.585c-3.938-11.1-14.966-19.94-29.106-14.616-13.387,5.042-19.828,22.159-10,34.6l-2.11,0C68.494,99.268,73.617,87.759,73.862,87.2Zm11.722,11.01c.231,1.017,1.165,2.964,1.984,2.5.78-.442.015-2.868-.122-3.305-.283-.887-.884-2.322-1.657-2.091C85.179,95.5,85.362,97.22,85.584,98.208Zm-.219-8.756c-.215.865-.169,2.519.641,2.055.684-.392,1.151-2.2,1.347-3.152.09-.437.179-1.581-.171-1.735C86.372,86.269,85.731,87.971,85.365,89.452Zm-3.055-7.8a8.759,8.759,0,0,0-1.494,1.477c-.942,1.185-.913,2-.24,2.123.576.107,1.862-.847,2.769-1.984.97-1.084,1.139-1.924.584-2.193C83.594,80.913,83.227,80.981,82.31,81.651Zm.641,4.673c-.486.959-.653,2.207-.115,2.344.6.154,1.713-1.4,2.354-2.705.326-.666.717-1.648.459-1.968C85.018,83.216,83.589,85.068,82.951,86.324ZM91.539,79.4c.061-.651-1.508-.107-3.08,1.5-.28.288-1.126,1.352-.767,1.578.515.325,2.392-1.261,3.088-1.973A2.363,2.363,0,0,0,91.539,79.4Zm-5.385-.33c.412.62,2.6-.429,3.747-1.031.746-.391,1.383-.9,1.087-1.2-.385-.388-1.592-.077-3.44.838C86.666,78.116,85.944,78.755,86.153,79.068Zm7.717-3.441c-.423.15-.653.394-.637.553.045.509,2.2.267,3.462-.147.6-.2.923-.422.934-.59C97.67,74.773,94.856,75.277,93.87,75.627ZM82.3,91.976c-.763.114-1.232,1.259-1.2,2.814s.716,2.8,1.38,2.721c.7-.08,1.1-1.242,1.1-2.8C83.581,93.243,83.009,91.87,82.3,91.976ZM76.825,90.91c-.477,1.6-.264,3.048.53,3.259.777.2,1.551-.691,1.967-2.412.376-1.574.211-2.954-.477-3.188S77.287,89.36,76.825,90.91ZM76.8,98.9c-.714.348-.589,1.9.12,3.527.806,1.854,2.015,2.468,2.7,2.2.738-.287.738-1.723-.117-3.458C78.718,99.58,77.517,98.559,76.8,98.9Zm9.707,7.505c.581-.456.09-1.815-.856-3.024-1.1-1.412-2.3-2.165-2.888-1.718s-.236,1.929.756,3.238S85.856,106.922,86.512,106.41Zm2.275-2.146c-.4.4.187,1.555,1.258,2.624.958.96,2.79,1.982,3.135,1.222.168-.363-.333-1.212-1.555-2.437S89.184,103.868,88.787,104.264Z"/></g></g></svg>