<svg xmlns="http://www.w3.org/2000/svg" width="1469.982" height="361.93" viewBox="0 0 1469.982 361.93"><defs><style>.a{opacity:0.2;}.b,.c{fill:none;stroke:#8897ab;stroke-width:1.5px;}.b{stroke-linecap:square;}</style></defs><g class="a" transform="translate(508.687 625.276)"><path class="b" d="M-507.937-362.146h20.407" transform="translate(0 98.047)"/><g transform="translate(301.835 -583.181)"><path class="c" d="M82-280.289h77.033v-71.446H183.25v-60.546h21.918v-72.657h14.616v-49.613q20.954-47.261,72.451-47.262t72.655,47.227v49.647h14.428v72.657h21.9v60.546h24.219v71.446h68.355" transform="translate(-82 599.371)"/><g transform="translate(86.719)"><g transform="translate(0 270.644)"><g transform="translate(99.297 6.055)"><g transform="translate(36.328)"><path class="c" d="M253.012-385.638c0-3.949-2.18-4.738-3.632-4.738s-3.633.789-3.633,4.738v13.424h7.265Z" transform="translate(-243.326 394.009)"/><path class="c" d="M256.092-388.176q-1.213-4.847-6.055-4.847t-6.055,4.847" transform="translate(-243.983 393.023)"/></g><g transform="translate(24.219)"><path class="c" d="M244.19-385.638c0-3.949-2.18-4.738-3.632-4.738s-3.633.789-3.633,4.738v13.424h7.265Z" transform="translate(-234.504 394.009)"/><path class="c" d="M247.27-388.176q-1.211-4.847-6.055-4.847t-6.055,4.847" transform="translate(-235.161 393.023)"/></g><g transform="translate(12.109)"><path class="c" d="M235.368-385.638c0-3.949-2.18-4.738-3.632-4.738s-3.633.789-3.633,4.738v13.424h7.265Z" transform="translate(-225.682 394.009)"/><path class="c" d="M238.448-388.176q-1.211-4.847-6.055-4.847t-6.055,4.847" transform="translate(-226.339 393.023)"/></g><path class="c" d="M226.546-385.638c0-3.949-2.18-4.738-3.632-4.738s-3.633.789-3.633,4.738v13.424h7.265Z" transform="translate(-216.86 394.009)"/><path class="c" d="M229.626-388.176q-1.211-4.847-6.055-4.847t-6.055,4.847" transform="translate(-217.517 393.023)"/></g><path class="c" d="M155.763-367.439H373.732" transform="translate(-141.232 408.611)"/><path class="c" d="M145.177-390.169h26.64q39.168-7.266,96.876-7.266t96.874,7.266h26.64" transform="translate(-145.177 397.434)"/><g transform="translate(6.055 6.655)"><path class="c" d="M189.287-388.177v23.622" transform="translate(-134.794 394.229)"/><path class="c" d="M183.111-387.3v22.411" transform="translate(-137.096 394.558)"/><path class="c" d="M176.054-386.413v21.2" transform="translate(-139.726 394.886)"/><path class="c" d="M169-385.531v19.99" transform="translate(-142.356 395.215)"/><path class="c" d="M161.939-384.649v18.779" transform="translate(-144.985 395.544)"/><path class="c" d="M155.763-384.649v18.779" transform="translate(-147.287 395.544)"/><path class="c" d="M313.676-384.649v18.779" transform="translate(-88.442 395.544)"/><path class="c" d="M149.588-388.177v32.709" transform="translate(-149.588 394.229)"/><path class="c" d="M319.851-388.177v32.709" transform="translate(-86.141 394.229)"/><path class="c" d="M195.462-389.058v24.831" transform="translate(-132.493 393.901)"/><path class="c" d="M201.637-389.94V-363.9" transform="translate(-130.192 393.572)"/><path class="c" d="M208.7-391.7v28.463" transform="translate(-127.562 392.915)"/><path class="c" d="M214.87-392.586v29.674" transform="translate(-125.261 392.586)"/></g><g transform="translate(151.367 6.655)"><path class="c" d="M281.035-388.177v23.622" transform="translate(-245.917 394.229)"/><path class="c" d="M287.21-387.3v22.411" transform="translate(-243.616 394.558)"/><path class="c" d="M294.268-386.413v21.2" transform="translate(-240.986 394.886)"/><path class="c" d="M301.325-385.531v19.99" transform="translate(-238.356 395.215)"/><path class="c" d="M308.383-384.649v18.779" transform="translate(-235.726 395.544)"/><path class="c" d="M274.859-389.058v24.831" transform="translate(-248.219 393.901)"/><path class="c" d="M268.684-389.94V-363.9" transform="translate(-250.52 393.572)"/><path class="c" d="M261.626-391.7v28.463" transform="translate(-253.15 392.915)"/><path class="c" d="M255.451-392.586v29.674" transform="translate(-255.451 392.586)"/></g><path class="c" d="M218.4-372.733h44.8" transform="translate(-117.891 406.639)"/></g><g transform="translate(81.133 197.988)"><path class="c" d="M239.779-419.162c0-3.948-2.18-4.738-3.632-4.738s-3.633.791-3.633,4.738v13.426h7.265Z" transform="translate(-193.764 460.227)"/><path class="c" d="M220.371-418.279c0-3.949-2.18-4.738-3.633-4.738s-3.632.789-3.632,4.738v13.424h7.265Z" transform="translate(-200.997 460.556)"/><path class="c" d="M259.189-418.279c0-3.949-2.18-4.738-3.633-4.738s-3.633.789-3.633,4.738v13.424h7.267Z" transform="translate(-186.532 460.556)"/><path class="c" d="M244.4-420.384c0-7.385-4.844-9.691-7.265-9.691s-7.265,2.306-7.265,9.691v21.793H244.4Z" transform="translate(-194.75 457.926)"/><path class="c" d="M224.991-419.5c0-7.385-4.844-9.691-7.267-9.691s-7.265,2.306-7.265,9.691v21.793h14.532Z" transform="translate(-201.983 458.255)"/><path class="c" d="M263.807-419.5c0-7.385-4.844-9.691-7.265-9.691s-7.265,2.306-7.265,9.691v21.793h14.531Z" transform="translate(-187.518 458.255)"/><path class="c" d="M235.161-448.6v22.41" transform="translate(-192.778 451.022)"/><path class="c" d="M229.868-423.171A92.2,92.2,0,0,1,233.5-448.6" transform="translate(-194.75 451.022)"/><path class="c" d="M215.752-425.7a52.552,52.552,0,0,1,8.477-19.375" transform="translate(-200.011 452.338)"/><path class="c" d="M221.046-422.618a51.343,51.343,0,0,1,8.476-24.219" transform="translate(-198.038 451.68)"/><path class="c" d="M210.459-424.262a53.292,53.292,0,0,1,8.477-18.164" transform="translate(-201.983 453.323)"/><path class="c" d="M256.87-425.7a52.548,52.548,0,0,0-8.476-19.375" transform="translate(-187.847 452.338)"/><path class="c" d="M251.577-422.618a51.345,51.345,0,0,0-8.477-24.219" transform="translate(-189.82 451.68)"/><path class="c" d="M262.163-424.262a53.287,53.287,0,0,0-8.476-18.164" transform="translate(-185.874 453.323)"/><path class="c" d="M241.44-423.171a92.152,92.152,0,0,0-3.633-25.43" transform="translate(-191.792 451.022)"/><path class="c" d="M204.284-388.608v-30.757q9.852-31,42.988-31t42.988,31v30.757" transform="translate(-204.284 450.365)"/></g><g transform="translate(61.758 113.222)"><path class="c" d="M242.859-471.4c0-5.264-4.114-6.317-6.055-6.317s-6.055,1.053-6.055,6.317v17.9h12.109Z" transform="translate(-175.047 524.94)"/><path class="c" d="M223.676-470.513c0-5.266-2.907-6.318-4.844-6.318s-4.844,1.053-4.844,6.318v17.9h9.688Z" transform="translate(-181.293 525.269)"/><path class="c" d="M258.963-470.513c0-5.266-2.906-6.318-4.843-6.318s-4.844,1.053-4.844,6.318v17.9h9.687Z" transform="translate(-168.143 525.269)"/><path class="c" d="M206.585-468.749c0-5.265-2.543-6.318-4.239-6.318s-4.237,1.053-4.237,6.318v17.9h8.476Z" transform="translate(-187.21 525.926)"/><path class="c" d="M274.514-468.749c0-5.265-2.544-6.318-4.239-6.318s-4.239,1.053-4.239,6.318v17.9h8.477Z" transform="translate(-161.897 525.926)"/><path class="c" d="M247.478-472.981c0-9.658-6.458-12.672-9.687-12.672s-9.688,3.014-9.688,12.672v28.5h19.375Z" transform="translate(-176.033 521.981)"/><path class="c" d="M229.5-472.1c0-9.656-6.055-12.672-9.081-12.672s-9.081,3.016-9.081,12.672v28.5H229.5Z" transform="translate(-182.279 522.31)"/><path class="c" d="M263.911-472.1c0-9.656-6.055-12.672-9.083-12.672s-9.081,3.016-9.081,12.672v28.5h18.164Z" transform="translate(-169.458 522.31)"/><path class="c" d="M211.534-470.335c0-9.657-5.651-12.672-8.477-12.672s-8.476,3.016-8.476,12.672v28.5h16.954Z" transform="translate(-188.525 522.967)"/><path class="c" d="M280.344-470.335c0-9.657-5.651-12.672-8.477-12.672s-8.476,3.016-8.476,12.672v28.5h16.953Z" transform="translate(-162.883 522.967)"/><path class="c" d="M235.161-510.354v31.484" transform="translate(-173.403 512.777)"/><path class="c" d="M228.1-475.566a122.879,122.879,0,0,1,4.844-33.906" transform="translate(-176.033 513.105)"/><path class="c" d="M211.342-473.8q1.116-15.893,14.531-33.906" transform="translate(-182.279 513.763)"/><path class="c" d="M194.58-476.761a92.262,92.262,0,0,1,13.32-23.007" transform="translate(-188.525 516.722)"/><path class="c" d="M224.574-475.566a122.933,122.933,0,0,1,4.844-33.906" transform="translate(-177.348 513.105)"/><path class="c" d="M206.931-474.131a70,70,0,0,1,13.32-32.695" transform="translate(-183.923 514.091)"/><path class="c" d="M218.4-478.316a99.128,99.128,0,0,1,9.688-30.274" transform="translate(-179.649 513.434)"/><path class="c" d="M201.637-478.2q2.2-11.009,12.109-24.219" transform="translate(-185.896 515.735)"/><path class="c" d="M279.359-476.761a92.309,92.309,0,0,0-13.322-23.007" transform="translate(-161.897 516.722)"/><path class="c" d="M267.007-474.131a70,70,0,0,0-13.32-32.695" transform="translate(-166.5 514.091)"/><path class="c" d="M271.971-478.2q-2.2-11.009-12.109-24.219" transform="translate(-164.199 515.735)"/><path class="c" d="M263.807-473.8q-1.118-15.893-14.531-33.906" transform="translate(-168.143 513.763)"/><path class="c" d="M247.062-475.566a122.882,122.882,0,0,0-4.844-33.906" transform="translate(-170.773 513.105)"/><path class="c" d="M254.552-478.316a99.124,99.124,0,0,0-9.687-30.274" transform="translate(-169.787 513.434)"/><path class="c" d="M243.533-475.566a122.883,122.883,0,0,0-4.844-33.906" transform="translate(-172.088 513.105)"/><path class="c" d="M190.169-426.142V-472.1q14.153-40.02,61.758-40.019T313.683-472.1v45.957" transform="translate(-190.169 512.119)"/></g><g transform="translate(60.547)"><path class="c" d="M242.859-535.729c0-6.055-3.633-7.267-6.055-7.267s-6.055,1.212-6.055,7.267v20.586h12.109Z" transform="translate(-173.836 613.835)"/><path class="c" d="M222.239-534.848c0-6.055-3.27-7.266-5.449-7.266s-5.448,1.211-5.448,7.266v20.585h10.9Z" transform="translate(-181.068 614.164)"/><path class="c" d="M261.939-534.848c0-6.055-3.27-7.266-5.449-7.266s-5.449,1.211-5.449,7.266v20.585h10.9Z" transform="translate(-166.275 614.164)"/><path class="c" d="M203.385-533.084c0-6.055-2.906-7.265-4.844-7.265s-4.843,1.211-4.843,7.265V-512.5h9.687Z" transform="translate(-187.643 614.822)"/><path class="c" d="M279.254-533.084c0-6.055-2.907-7.265-4.844-7.265s-4.844,1.211-4.844,7.265V-512.5h9.688Z" transform="translate(-159.372 614.822)"/><path class="c" d="M249.017-537.656c0-10.793-7.265-14.161-10.9-14.161s-10.9,3.368-10.9,14.161V-505.8h21.8Z" transform="translate(-175.151 610.548)"/><path class="c" d="M228.4-536.772c0-10.793-6.862-14.163-10.293-14.163s-10.292,3.37-10.292,14.163v31.852H228.4Z" transform="translate(-182.383 610.877)"/><path class="c" d="M268.1-536.772c0-10.793-6.862-14.163-10.293-14.163s-10.293,3.37-10.293,14.163v31.852H268.1Z" transform="translate(-167.59 610.877)"/><path class="c" d="M208.662-535.008c0-10.793-6.458-14.163-9.688-14.163s-9.687,3.37-9.687,14.163v31.852h19.375Z" transform="translate(-189.287 611.534)"/><path class="c" d="M286.295-535.008c0-10.793-6.458-14.163-9.688-14.163s-9.687,3.37-9.687,14.163v31.852h19.375Z" transform="translate(-160.358 611.534)"/><path class="c" d="M235.161-580.048v35.118" transform="translate(-172.192 600.028)"/><path class="c" d="M235.161-594.6v15.138" transform="translate(-172.192 594.604)"/><path class="c" d="M227.221-537.994a179.175,179.175,0,0,1,4.844-41.171" transform="translate(-175.151 600.357)"/><path class="c" d="M207.813-538.651q1.211-18.164,15.741-38.75" transform="translate(-182.383 601.015)"/><path class="c" d="M189.287-542.268A102.323,102.323,0,0,1,203.818-567.7" transform="translate(-189.287 604.631)"/><path class="c" d="M222.81-537.994a145.259,145.259,0,0,1,6.055-41.171" transform="translate(-176.795 600.357)"/><path class="c" d="M203.4-539.309a78.582,78.582,0,0,1,14.531-36.328" transform="translate(-184.027 601.672)"/><path class="c" d="M215.752-544.377a110.692,110.692,0,0,1,10.9-33.906" transform="translate(-179.425 600.686)"/><path class="c" d="M197.226-544.584q2.423-12.111,13.322-26.642" transform="translate(-186.329 603.316)"/><path class="c" d="M284.98-542.268A102.375,102.375,0,0,0,270.448-567.7" transform="translate(-159.043 604.631)"/><path class="c" d="M270.865-539.309a78.586,78.586,0,0,0-14.532-36.328" transform="translate(-164.303 601.672)"/><path class="c" d="M276.711-544.584q-2.421-12.111-13.32-26.642" transform="translate(-161.673 603.316)"/><path class="c" d="M266.783-538.651q-1.211-18.164-15.743-38.75" transform="translate(-166.275 601.015)"/><path class="c" d="M249.155-537.994a145.258,145.258,0,0,0-6.055-41.171" transform="translate(-169.234 600.357)"/><path class="c" d="M257.528-544.377a110.656,110.656,0,0,0-10.9-33.906" transform="translate(-167.919 600.686)"/><path class="c" d="M244.415-537.994a179.25,179.25,0,0,0-4.843-41.171" transform="translate(-170.549 600.357)"/></g><g transform="translate(160.422 127.753)"><path class="c" d="M273.095-402.727h70.234" transform="translate(-257.931 538.352)"/><path class="c" d="M273.095-416.842h45.511" transform="translate(-257.931 533.092)"/><path class="c" d="M270.005-430.957h49.753" transform="translate(-259.083 527.833)"/><path class="c" d="M262.048-445.072h60.675" transform="translate(-262.048 522.573)"/><path class="c" d="M284.994-459.187h12.225" transform="translate(-253.497 517.313)"/><path class="c" d="M284.112-487.417h13.435" transform="translate(-253.826 506.793)"/><path class="c" d="M284.994-473.3h12.225" transform="translate(-253.497 512.053)"/><path class="c" d="M277.059-501.533h23.117" transform="translate(-256.454 501.533)"/></g><g transform="translate(1.211 127.753)"><path class="c" d="M216.293-402.727H146.059" transform="translate(-146.059 538.352)"/><path class="c" d="M209.581-416.842h-45.51" transform="translate(-139.347 533.092)"/><path class="c" d="M213.824-430.957H164.071" transform="translate(-139.347 527.833)"/><path class="c" d="M224.746-445.072H164.071" transform="translate(-139.347 522.573)"/><path class="c" d="M188.647-459.187H176.422" transform="translate(-134.744 517.313)"/><path class="c" d="M189.856-487.417H176.422" transform="translate(-134.744 506.793)"/><path class="c" d="M188.647-473.3H176.422" transform="translate(-134.744 512.053)"/><path class="c" d="M199.537-501.533H176.422" transform="translate(-134.744 501.533)"/></g></g></g><g transform="translate(-242.199 -576.346)"><g transform="translate(0 0)"><path class="c" d="M-314.341-277.378h45.919q13.287-232.352,64.286-312.247v312.247H-167.4V-589.625q52.576,81.033,64.286,312.247H16.934" transform="translate(314.341 589.625)"/><g transform="translate(97.348 146.94)"><path class="c" d="M-232.047-482.576h31.225" transform="translate(247.659 482.576)"/><path class="c" d="M-242.082-482.576h8.265" transform="translate(243.92 482.576)"/><path class="c" d="M-243.421-455.814h10.1" transform="translate(243.421 492.549)"/><path class="c" d="M-205.284-482.576h8.265" transform="translate(257.632 482.576)"/><path class="c" d="M-205.284-455.814h10.1" transform="translate(257.632 492.549)"/><path class="c" d="M-232.047-455.814h31.225" transform="translate(247.659 492.549)"/></g><g transform="translate(94.297 73.469)"><path class="c" d="M-233.249-536.1q-24.788,130.149,0,165.307" transform="translate(245.643 536.101)"/><path class="c" d="M-204.831-536.1q24.788,130.149,0,165.307" transform="translate(260.852 536.101)"/></g><g transform="translate(50.512 20.204)"><path class="c" d="M-222.44-366.161h-55.1" transform="translate(277.542 652.693)"/><path class="c" d="M-223.188-402.29h-52.347" transform="translate(278.29 639.23)"/><path class="c" d="M-236.374-438.419H-272.19" transform="translate(279.536 625.767)"/><path class="c" d="M-239.037-474.548h-28.47" transform="translate(281.281 612.304)"/><path class="c" d="M-237.188-510.677h-22.959" transform="translate(284.024 598.84)"/><path class="c" d="M-222.44-372.182h-55.1" transform="translate(277.542 650.449)"/><path class="c" d="M-223.437-408.311h-51.429" transform="translate(278.539 636.986)"/><path class="c" d="M-237.541-444.44h-33.98" transform="translate(279.786 623.523)"/><path class="c" d="M-239.536-480.569h-26.632" transform="translate(281.78 610.06)"/><path class="c" d="M-236.769-516.7h-22.041" transform="translate(284.523 596.597)"/><path class="c" d="M-222.106-378.2h-55.1" transform="translate(277.666 648.205)"/><path class="c" d="M-223.687-414.333H-274.2" transform="translate(278.789 634.742)"/><path class="c" d="M-238.709-450.462h-32.143" transform="translate(280.035 621.279)"/><path class="c" d="M-238.867-486.591H-265.5" transform="translate(282.03 607.816)"/><path class="c" d="M-235.429-522.72h-22.042" transform="translate(285.021 594.353)"/><path class="c" d="M-222.689-384.225h-54.184" transform="translate(277.791 645.962)"/><path class="c" d="M-230.364-420.354h-43.164" transform="translate(279.038 632.499)"/><path class="c" d="M-240.126-456.483h-29.388" transform="translate(280.534 619.035)"/><path class="c" d="M-238.447-492.612h-25.714" transform="translate(282.528 605.572)"/><path class="c" d="M-234.091-528.741h-22.042" transform="translate(285.52 592.109)"/><path class="c" d="M-222.689-390.247h-54.184" transform="translate(277.791 643.718)"/><path class="c" d="M-233.12-426.376h-40.408" transform="translate(279.038 630.255)"/><path class="c" d="M-240.375-462.505h-28.47" transform="translate(280.783 616.791)"/><path class="c" d="M-238.028-498.634h-24.8" transform="translate(283.027 603.328)"/><path class="c" d="M-233-534.763h-21.122" transform="translate(286.268 589.865)"/><path class="c" d="M-231.416-538.108h-22.04" transform="translate(286.517 588.618)"/><path class="c" d="M-231.914-541.453h-20.2" transform="translate(287.016 587.372)"/><path class="c" d="M-232.163-544.8h-19.286" transform="translate(287.265 586.125)"/><path class="c" d="M-232.413-548.144H-250.78" transform="translate(287.515 584.879)"/><path class="c" d="M-232.911-551.489h-16.531" transform="translate(288.013 583.632)"/><path class="c" d="M-233.41-554.834H-248.1" transform="translate(288.512 582.386)"/><path class="c" d="M-233.908-558.18h-12.858" transform="translate(289.01 581.139)"/><path class="c" d="M-234.158-561.525H-246.1" transform="translate(289.26 579.892)"/><path class="c" d="M-234.656-564.87h-10.1" transform="translate(289.758 578.646)"/><path class="c" d="M-235.155-568.216h-8.266" transform="translate(290.257 577.399)"/><path class="c" d="M-235.654-571.561h-6.428" transform="translate(290.756 576.152)"/><path class="c" d="M-236.4-574.906h-3.673" transform="translate(291.504 574.906)"/><path class="c" d="M-222.939-396.268H-276.2" transform="translate(278.041 641.474)"/><path class="c" d="M-235.206-432.4h-37.653" transform="translate(279.287 628.011)"/><path class="c" d="M-239.706-468.526h-28.47" transform="translate(281.032 614.548)"/><path class="c" d="M-237.608-504.655h-23.877" transform="translate(283.525 601.085)"/></g><g transform="translate(151.073 20.204)"><path class="c" d="M-203.946-366.161h55.1" transform="translate(204.406 652.693)"/><path class="c" d="M-203.946-402.29H-151.6" transform="translate(204.406 639.23)"/><path class="c" d="M-195.249-438.419h35.818" transform="translate(207.647 625.767)"/><path class="c" d="M-194.579-474.548h28.469" transform="translate(207.896 612.304)"/><path class="c" d="M-197.925-510.677h22.96" transform="translate(206.65 598.84)"/><path class="c" d="M-203.946-372.182h55.1" transform="translate(204.406 650.449)"/><path class="c" d="M-203.946-408.311h51.429" transform="translate(204.406 636.986)"/><path class="c" d="M-194.579-444.44h33.98" transform="translate(207.896 623.523)"/><path class="c" d="M-194.579-480.569h26.632" transform="translate(207.896 610.06)"/><path class="c" d="M-198.594-516.7h22.042" transform="translate(206.4 596.597)"/><path class="c" d="M-204.281-378.2h55.1" transform="translate(204.281 648.205)"/><path class="c" d="M-203.946-414.333h50.51" transform="translate(204.406 634.742)"/><path class="c" d="M-193.91-450.462h32.143" transform="translate(208.146 621.279)"/><path class="c" d="M-195.249-486.591h26.633" transform="translate(207.647 607.816)"/><path class="c" d="M-199.932-522.72h22.04" transform="translate(205.902 594.353)"/><path class="c" d="M-203.946-384.225h54.184" transform="translate(204.406 645.962)"/><path class="c" d="M-199.263-420.354H-156.1" transform="translate(206.151 632.499)"/><path class="c" d="M-193.241-456.483h29.387" transform="translate(208.395 619.035)"/><path class="c" d="M-195.918-492.612H-170.2" transform="translate(207.397 605.572)"/><path class="c" d="M-201.27-528.741h22.041" transform="translate(205.403 592.109)"/><path class="c" d="M-203.946-390.247h54.184" transform="translate(204.406 643.718)"/><path class="c" d="M-197.256-426.376h40.409" transform="translate(206.899 630.255)"/><path class="c" d="M-193.241-462.505h28.469" transform="translate(208.395 616.791)"/><path class="c" d="M-196.587-498.634h24.8" transform="translate(207.148 603.328)"/><path class="c" d="M-202.608-534.763h21.122" transform="translate(204.904 589.865)"/><path class="c" d="M-203.946-538.108h22.04" transform="translate(204.406 588.618)"/><path class="c" d="M-203.946-541.453h20.2" transform="translate(204.406 587.372)"/><path class="c" d="M-203.946-544.8h19.286" transform="translate(204.406 586.125)"/><path class="c" d="M-203.946-548.144h18.367" transform="translate(204.406 584.879)"/><path class="c" d="M-203.946-551.489h16.531" transform="translate(204.406 583.632)"/><path class="c" d="M-203.946-554.834h14.694" transform="translate(204.406 582.386)"/><path class="c" d="M-203.946-558.18h12.858" transform="translate(204.406 581.139)"/><path class="c" d="M-203.946-561.525h11.938" transform="translate(204.406 579.892)"/><path class="c" d="M-203.946-564.87h10.1" transform="translate(204.406 578.646)"/><path class="c" d="M-203.946-568.216h8.265" transform="translate(204.406 577.399)"/><path class="c" d="M-203.946-571.561h6.428" transform="translate(204.406 576.152)"/><path class="c" d="M-203.946-574.906h3.673" transform="translate(204.406 574.906)"/><path class="c" d="M-203.946-396.268h53.265" transform="translate(204.406 641.474)"/><path class="c" d="M-195.918-432.4h37.654" transform="translate(207.397 628.011)"/><path class="c" d="M-193.91-468.526h28.469" transform="translate(208.146 614.548)"/><path class="c" d="M-197.256-504.655h23.878" transform="translate(206.899 601.085)"/></g></g></g><g transform="translate(712.976 -543.686)"><path class="c" d="M381.525-286.245h22.859v-63.448h17.584v29.159h4.4v-77.6h26.376v68.8h16.7V-565.831h80.007v236.505h15.826v-41.146h17.584v49.938h4.4v-29.159h17.584v63.448H627.7" transform="translate(-381.525 565.831)"/><g transform="translate(31.651 8.792)"><g transform="translate(65.06)"><path class="c" d="M451.982-559.426q5.222,12.308,0,227.761" transform="translate(-451.982 559.426)"/><path class="c" d="M498.149-559.426q-5.222,12.308,0,227.761" transform="translate(-435.751 559.426)"/><path class="c" d="M453.514-558.005a215.11,215.11,0,0,0,58.174,0" transform="translate(-451.411 559.956)"/></g><g transform="translate(0 40.444)"><path class="c" d="M455.826-529.962H507.7" transform="translate(-385.489 529.962)"/><path class="c" d="M456.466-520.995h21.98" transform="translate(-385.251 533.303)"/><path class="c" d="M456.466-513.309h21.98" transform="translate(-385.251 536.168)"/><path class="c" d="M456.466-496.015h21.98" transform="translate(-385.251 542.612)"/><path class="c" d="M456.466-492.171h21.98" transform="translate(-385.251 544.045)"/><path class="c" d="M456.466-488.969h21.98" transform="translate(-385.251 545.238)"/><path class="c" d="M456.466-485.126h21.98" transform="translate(-385.251 546.67)"/><path class="c" d="M456.466-462.067h21.98" transform="translate(-385.251 555.263)"/><path class="c" d="M456.466-471.034h21.98" transform="translate(-385.251 551.921)"/><path class="c" d="M456.466-453.1h21.98" transform="translate(-385.251 558.604)"/><path class="c" d="M456.466-427.479h21.98" transform="translate(-385.251 568.151)"/><path class="c" d="M456.466-444.133h21.98" transform="translate(-385.251 561.945)"/><path class="c" d="M456.466-424.277h21.98" transform="translate(-385.251 569.345)"/><path class="c" d="M456.466-420.433h21.98" transform="translate(-385.251 570.777)"/><path class="c" d="M456.466-417.231h21.98" transform="translate(-385.251 571.97)"/><path class="c" d="M477.6-520.995h21.98" transform="translate(-377.374 533.303)"/><path class="c" d="M477.6-513.309h21.98" transform="translate(-377.374 536.168)"/><path class="c" d="M477.6-496.015h21.98" transform="translate(-377.374 542.612)"/><path class="c" d="M477.6-492.171h21.98" transform="translate(-377.374 544.045)"/><path class="c" d="M477.6-488.969h21.98" transform="translate(-377.374 545.238)"/><path class="c" d="M477.6-485.126h21.98" transform="translate(-377.374 546.67)"/><path class="c" d="M477.6-462.067h21.98" transform="translate(-377.374 555.263)"/><path class="c" d="M477.6-471.034h21.98" transform="translate(-377.374 551.921)"/><path class="c" d="M477.6-453.1h21.98" transform="translate(-377.374 558.604)"/><path class="c" d="M477.6-427.479h21.98" transform="translate(-377.374 568.151)"/><path class="c" d="M477.6-444.133h21.98" transform="translate(-377.374 561.945)"/><path class="c" d="M477.6-424.277h21.98" transform="translate(-377.374 569.345)"/><path class="c" d="M477.6-420.433h21.98" transform="translate(-377.374 570.777)"/><path class="c" d="M477.6-417.231h21.98" transform="translate(-377.374 571.97)"/><path class="c" d="M455.826-408.264H507.7" transform="translate(-385.489 575.312)"/><path class="c" d="M455.826-399.3H507.7" transform="translate(-385.489 578.654)"/><path class="c" d="M435.969-383.283H541.474" transform="translate(-392.889 584.621)"/><path class="c" d="M413.551-372.395H571.808" transform="translate(-401.243 588.678)"/><path class="c" d="M423.8-428.12v61.545" transform="translate(-397.423 567.913)"/><path class="c" d="M521.8-405.7v35.169" transform="translate(-360.905 576.266)"/><path class="c" d="M537.812-394.172V-363.4" transform="translate(-354.938 580.563)"/><path class="c" d="M404.584-394.172V-363.4" transform="translate(-404.584 580.563)"/><path class="c" d="M475.041-526.119v156.645" transform="translate(-378.329 531.394)"/></g></g></g><g transform="translate(-492.196 -625.26)"><path class="c" d="M-496.47-264.1h90.507V-530.164h4.642v-9.491h32.5l1.857-85.6,1.857,85.6h32.5v9.491h4.642V-264.1h91.466" transform="translate(496.47 625.26)"/><g transform="translate(93.776 94.701)"><path class="c" d="M-422.561-552.608q4.491,136.655-5.591,260.916" transform="translate(428.152 557.632)"/><path class="c" d="M-421.031-551.227q0,117.849,60.8,258.858" transform="translate(430.806 558.146)"/><path class="c" d="M-375.7-552.42q-7.373,103.179.928,256.438" transform="translate(446.405 557.702)"/><path class="c" d="M-422.067-556.268h55.84" transform="translate(430.42 556.268)"/><g transform="translate(15.78 15.783)"><path class="c" d="M-416.656-544.77h46.421" transform="translate(416.656 544.77)"/><path class="c" d="M-416.656-533.271h46.421" transform="translate(416.656 549.055)"/><path class="c" d="M-415.98-521.773h45.493" transform="translate(416.908 553.34)"/><path class="c" d="M-415.3-510.274h44.566" transform="translate(417.16 557.625)"/><path class="c" d="M-413.951-498.776h42.708" transform="translate(417.664 561.909)"/><path class="c" d="M-411.922-487.277H-372" transform="translate(418.42 566.194)"/><path class="c" d="M-409.892-475.779h37.137" transform="translate(419.177 570.479)"/><path class="c" d="M-407.863-464.28h34.352" transform="translate(419.933 574.764)"/><path class="c" d="M-405.158-452.782h31.567" transform="translate(420.941 579.049)"/><path class="c" d="M-402.452-441.283h28.781" transform="translate(421.949 583.334)"/><path class="c" d="M-399.07-429.784H-374" transform="translate(423.209 587.619)"/><path class="c" d="M-395.688-418.286h21.353" transform="translate(424.47 591.903)"/><path class="c" d="M-390.954-406.787H-376.1" transform="translate(426.234 596.188)"/><path class="c" d="M-387.572-395.289h11.142" transform="translate(427.494 600.473)"/><path class="c" d="M-383.513-383.79h6.5" transform="translate(429.007 604.758)"/></g><g transform="translate(4.638 103.055)"><path class="c" d="M-424.773-366.2h59.223" transform="translate(424.773 524.039)"/><path class="c" d="M-424.1-377.7h51.836" transform="translate(425.025 519.753)"/><path class="c" d="M-423.42-389.2h45.493" transform="translate(425.277 515.469)"/><path class="c" d="M-422.744-400.7h38.994" transform="translate(425.529 511.184)"/><path class="c" d="M-422.067-412.2h32.494" transform="translate(425.781 506.899)"/><path class="c" d="M-421.391-423.7h26" transform="translate(426.033 502.614)"/><path class="c" d="M-421.391-435.2h21.354" transform="translate(426.033 498.329)"/><path class="c" d="M-420.715-446.694h15.784" transform="translate(426.285 494.045)"/><path class="c" d="M-420.715-458.193h12.07" transform="translate(426.285 489.76)"/><path class="c" d="M-420.715-469.691h8.357" transform="translate(426.285 485.475)"/><path class="c" d="M-420.715-481.19h6.5" transform="translate(426.285 481.19)"/></g></g></g><g transform="translate(89.239 -614.342)"><g transform="translate(0)"><path class="c" d="M-72.881-272.791l0,.162V-498.806h8.086q-2.973-103.13,31.936-103.129T1.238-498.806H8.648v108.2H56.083v-108.2h7.411q0-103.13,34.094-103.129T131.68-498.806h7.411v225.941l-.005.074" transform="translate(72.881 623.034)"/><g transform="translate(7.663)"><g transform="translate(0 247.601)"><path class="c" d="M129.893-436.923H-67.3" transform="translate(67.298 436.923)"/><path class="c" d="M129.893-420.422H-67.3" transform="translate(67.298 443.072)"/><path class="c" d="M-.68-403.921H-67.3" transform="translate(67.298 449.221)"/><path class="c" d="M93.474-403.921H26.856" transform="translate(102.384 449.221)"/><path class="c" d="M-.68-387.42H-67.3" transform="translate(67.298 455.37)"/><path class="c" d="M93.474-387.42H26.856" transform="translate(102.384 455.37)"/><path class="c" d="M-.68-370.919H-67.3" transform="translate(67.298 461.519)"/><path class="c" d="M93.474-370.919H26.856" transform="translate(102.384 461.519)"/><path class="c" d="M-9.058-344.384H28.248v-55.132q-.612-12.17-18.653-12.17t-18.653,12.17Z" transform="translate(89.001 446.327)"/></g><path class="c" d="M-66.813-521.371v94.734" transform="translate(67.479 653.055)"/><path class="c" d="M-19.25-521.371v94.734" transform="translate(85.203 653.055)"/><path class="c" d="M-.68-447.6H-67.3" transform="translate(67.298 680.545)"/><path class="c" d="M-9.149-527.2h-53.3" transform="translate(69.106 650.885)"/><path class="c" d="M-58.562-426.161h42.636V-505.3q-.7-17.47-21.317-17.47T-58.562-505.3Z" transform="translate(70.553 652.533)"/><path class="c" d="M-49.826-509.283q0-78.727,9.327-78.727t9.326,78.727" transform="translate(73.809 628.223)"/><path class="c" d="M-58.562-513.47q0-92.8,11.991-64.378" transform="translate(70.553 629.527)"/><path class="c" d="M-24.246-513.47q0-92.8-11.991-64.378" transform="translate(78.873 629.527)"/><path class="c" d="M-44-599.436v-17.87" transform="translate(75.979 617.306)"/><g transform="translate(129.24)"><path class="c" d="M27.341-521.371v94.734" transform="translate(-26.675 653.055)"/><path class="c" d="M74.9-521.371v94.734" transform="translate(-8.951 653.055)"/><path class="c" d="M93.474-447.6H26.856" transform="translate(-26.856 680.545)"/><path class="c" d="M85-527.2h-53.3" transform="translate(-25.048 650.885)"/><path class="c" d="M35.592-426.161H78.228V-505.3q-.7-17.47-21.318-17.47T35.592-505.3Z" transform="translate(-23.601 652.533)"/><path class="c" d="M44.328-509.283q0-78.727,9.326-78.727t9.327,78.727" transform="translate(-20.345 628.223)"/><path class="c" d="M35.592-513.47q0-92.8,11.991-64.378" transform="translate(-23.601 629.527)"/><path class="c" d="M69.908-513.47q0-92.8-11.991-64.378" transform="translate(-15.281 629.527)"/><path class="c" d="M51.122-599.436v-17.87" transform="translate(-17.813 617.306)"/></g></g></g></g><path class="b" d="M547.7-362.146h19.469" transform="translate(393.374 98.047)"/></g></svg>