<svg xmlns="http://www.w3.org/2000/svg" xmlns:xlink="http://www.w3.org/1999/xlink" width="204" height="97" viewBox="0 0 204 97"><defs><style>.a{fill:#fff;stroke:#707070;opacity:0;}.b{clip-path:url(#a);}.c{fill:#af0007;}.d{fill:#1a1311;}</style><clipPath id="a"><rect class="a" width="204" height="97" transform="translate(724 2824)"/></clipPath></defs><g class="b" transform="translate(-724 -2824)"><g transform="translate(767.027 2862.318)"><path class="c" d="M103.773,172.1l-.277-.33c-.484-.588-1.292-1.786-2.229-3.169l-1.745-2.555c-.754-1.1-1.752-2.709-2.721-4.266-1.022-1.648-1.992-3.211-2.464-3.817a6.028,6.028,0,0,0-1.425-1.443l-.169-.125a1.259,1.259,0,0,1-.231-.306,3.31,3.31,0,0,0-.65-.791,3.95,3.95,0,0,0-1.655-.767l-.458-.142a4.78,4.78,0,0,0-1.973-.409c-.84.061-1.053.289-1.1.417a12.908,12.908,0,0,1-.906,1.571l-.778,1.005c-.352.464-.753.99-.909,1.168-.248.294-2.794,3.7-3.248,4.585-.236.382-1.28,1.555-2.2,2.592-.777.873-1.448,1.629-1.651,1.923-.441.632-3.581,3.851-3.739,3.984a.548.548,0,0,1-.26.086,1.5,1.5,0,0,0-.562.195c.009,0-.238.125-.238.125-.377.2-.432.239-.854.809-.657.824.044,1.491.421,1.847.461.471,1.341.1,2.117-.225l.482-.195.017-.007c.374-.188,1.448-.776,2.489-1.347l1.965-1.068,2.654-1.349,2.989-1.516a13.139,13.139,0,0,1,4.923-1.273,12.439,12.439,0,0,1,4.7.934,5.337,5.337,0,0,1,.829.556l.281.209a4.784,4.784,0,0,0,1.142.435,5.768,5.768,0,0,1,.992.362.374.374,0,0,0,.424.037,2.29,2.29,0,0,1,.663.373,17.588,17.588,0,0,1,3.509,3.827c.364.54.7,1.147,1,1.677.577,1.029.994,1.773,1.449,1.949a2.259,2.259,0,0,0,1.8.025,1.245,1.245,0,0,0,.66-.92.59.59,0,0,0,.009-.1C106.844,175.868,105.613,174.256,103.773,172.1Zm-9.124-6.372L94.2,165.5c-.023-.007-.846-.34-.846-.34a11.821,11.821,0,0,0-1.407-.534c.017,0-.523-.242-.523-.242a4.8,4.8,0,0,0-1.787-.6,9.073,9.073,0,0,0-2.652.675l-.57.195c-.5.159-2.6.962-3.276,1.246a13.385,13.385,0,0,1-2.319.838,1.024,1.024,0,0,1,.374-.489,8.749,8.749,0,0,0,1.317-1.791,8.473,8.473,0,0,1,.665-.98,16.5,16.5,0,0,0,1.305-1.946l.6-.963.037-.051a12.622,12.622,0,0,1,1.706-2.144l.352-.229a2.354,2.354,0,0,1,1.2-.529,4.374,4.374,0,0,1,2.117,1.242l.229.216a21.034,21.034,0,0,1,2.568,2.727c.253.4.709,1.041,1.152,1.665.485.683.987,1.391,1.106,1.621a3.85,3.85,0,0,1,.519,1.273A9.548,9.548,0,0,1,94.649,165.73Zm.768,12.674c0-.309-.275-7.017-.7-7.537a1.558,1.558,0,0,0-1.577-.207,3.2,3.2,0,0,0-1.06.752,3.292,3.292,0,0,1-.691.536l-.18-.023a2.008,2.008,0,0,0-1.148.133,5.273,5.273,0,0,1-2.579-.248l-.128-.038c-.281-.075-.707-.772-.937-1.144l-.222-.349c-.334-.537-.842-.532-1.5-.353-.815.235-.907,1.826-.919,2.144l-.206,11.984.064.07a11.166,11.166,0,0,0,1.225,1.1,8.522,8.522,0,0,0,4.229,1.114,9.152,9.152,0,0,0,2.1-.317,5.882,5.882,0,0,1,.879-.171,7.355,7.355,0,0,0,3.059-.861,1.8,1.8,0,0,0,.47-1.705C95.567,182.994,95.417,179.315,95.417,178.4ZM92.2,183.12a6.542,6.542,0,0,1-2.262.553,4.178,4.178,0,0,1-1.615-.049l-.444-.057a2.122,2.122,0,0,1-1.149-.356,1.687,1.687,0,0,1-.637-1.351l-.008-.068c-.041-.337-.074-4.321-.085-5.85a4.583,4.583,0,0,1,.311-1.2c.09-.171.263-.383.859-.433a3.579,3.579,0,0,0,.655-.158,4,4,0,0,1,.919-.2.824.824,0,0,1,.589.157,1.518,1.518,0,0,0,.536.237,2.724,2.724,0,0,0,.922.1h.2a3.011,3.011,0,0,1,1.012.609,2.284,2.284,0,0,1,.575,1.625l.077.6a17.639,17.639,0,0,1,.176,2.309l.076,1.505c.007.084.011.17.011.252A2.371,2.371,0,0,1,92.2,183.12Z" transform="translate(-71.056 -153.98)"/><path class="d" d="M151.128,172.884l-.317-.152a2.254,2.254,0,0,0,.017-.317c0-.5-2.5-1.8-5.083-1.8-3.29,0-6.249,1.437-6.249,5.256s2.958,5.316,6.5,5.316c2.869,0,5.342-1.629,5.342-2.555a1.251,1.251,0,0,0-.1-.377l.212-.136,2.122,3.048-.141.055c-.067,0-.2-.035-.265-.035-.626,0-2.217,2.411-7.421,2.411-4.607,0-9.191-2.272-9.191-7.727,0-4.811,4.276-7.725,9.337-7.725a17.213,17.213,0,0,1,6.5,1.608.437.437,0,0,0,.477-.252l.3.105-2.037,3.274" transform="translate(-97.511 -159.703)"/><path class="d" d="M169.829,182.939c.458,0,.524-.128.524-.595V169.1c0-.453-.066-.622-.524-.622v-.317H183.26c.478,0,.68-.12.68-.42h.306v3.438h-.306c0-.391-.2-.546-.68-.546h-9.968v3.682h6.5c.516,0,.707-.172.707-.528h.284v3.453H180.5c0-.313-.191-.483-.707-.483h-6.5v4.058h10.15c.486,0,.681-.171.681-.533h.3V183.7h-.3c0-.289-.2-.464-.681-.464H169.829v-.3" transform="translate(-110.951 -159.538)"/><path class="d" d="M202.773,182.629c0,.467.116.595.778.595v.3h-4.443v-.3c.644,0,.743-.128.743-.595V169.385c0-.453-.1-.622-.743-.622v-.317h4.443v.317c-.663,0-.778.169-.778.622v13.244" transform="translate(-122.778 -159.823)"/><path class="d" d="M215.713,170.918h6.543c1.48,0,2.123.373,2.123,1.775a1.71,1.71,0,0,1-1.867,1.735h-6.8Zm7.037,12.607c2.83,0,5.021-1.353,5.021-4.187a3.912,3.912,0,0,0-2.628-3.687,3.364,3.364,0,0,0,2.082-3.115c0-2.59-1.488-4.089-5.014-4.089H212.2v.317c.5,0,.583.169.583.622v13.244c0,.467-.08.595-.583.595v.3Zm-7.037-6.661h6.22c2.087,0,2.91.715,2.91,2.017,0,1.484-.723,2.219-2.833,2.219h-6.3v-4.236" transform="translate(-128.066 -159.823)"/><path class="d" d="M255.366,172.746l-.307-.152a1.389,1.389,0,0,0,.028-.284c0-.272-1.949-1.692-5.328-1.692-3.208,0-4.594.968-4.594,2.237,0,3.389,12.175-1.564,12.175,5.907,0,2.74-2.645,4.839-7.929,4.839a13.321,13.321,0,0,1-6.986-1.612c-.1,0-.168.1-.292.162l-.249-.058,1.715-3.5.319.165c0,.074-.024.159-.024.327,0,1.219,2.656,2.1,5.3,2.1,3.763,0,5.052-1.085,5.052-2.25,0-4.016-12.018,1.007-12.018-5.894,0-3.469,3.664-4.9,7.675-4.9a15.768,15.768,0,0,1,6.369,1.566.413.413,0,0,0,.368-.138l.339.117-1.612,3.052" transform="translate(-140.055 -159.703)"/></g></g></svg>