<svg xmlns="http://www.w3.org/2000/svg" xmlns:xlink="http://www.w3.org/1999/xlink" width="204" height="97" viewBox="0 0 204 97"><defs><style>.a{fill:#fff;stroke:#262626;opacity:0;}.b{clip-path:url(#a);}.c{fill:#003565;}</style><clipPath id="a"><rect class="a" width="204" height="97" transform="translate(1010 2751)"/></clipPath></defs><g class="b" transform="translate(-1010 -2751)"><path class="c" d="M96.28,226.491l.034,2.2H95.97l-.01-.044a1.362,1.362,0,0,0-1.41-.845h-2.4c0,.113,0,12.3,0,12.3h-2.3V227.783h-2.36A1.668,1.668,0,0,0,86,228.824l-.007.043-.322.026v-2.4H96.28Zm-61.435-3.614a14.3,14.3,0,0,1,5.836,1.41l.125.053.284,3.607-.447.133-.069-.17a5.778,5.778,0,0,0-5.531-3.7c-4.782,0-6.923,3.571-6.923,7.118,0,3.658,2.158,7.6,6.9,7.6,1.073,0,3.884,0,5.679-3.746l.069-.14.444.055-.287,3.472-.094.05a12.3,12.3,0,0,1-6.25,1.692,9.741,9.741,0,0,1-6.486-2.374,8.321,8.321,0,0,1-2.789-6.285,8.734,8.734,0,0,1,2.405-5.985s.025.022.04.038c-.015-.016-.04-.038-.04-.038a9.684,9.684,0,0,1,7.138-2.792m12.361,3.614a5.639,5.639,0,0,1,3.956,1.223,3.015,3.015,0,0,1,.96,2.229,3.537,3.537,0,0,1-2.523,3.312,3.485,3.485,0,0,1,1.288,1.256l.022.022.888,1.4a27.694,27.694,0,0,0,1.839,2.789,2.8,2.8,0,0,0,1.3.96l.682.2-.181.048-.5.121a6.162,6.162,0,0,1-2.07.076,2.823,2.823,0,0,1-1.9-1.282c-.682-1.035-1.338-2.146-1.822-2.968l-.3-.469-.056-.106c-.435-.742-.785-1.326-1.686-1.38,0,0-.882-.022-.979-.022,0,.107.015,6.192.015,6.192H43.87V228.033a1.582,1.582,0,0,0-.407-1.21l-.03-.012v-.32h3.773Zm-1.067,1.252v4.918c.082,0,.894.019.894.019A2.538,2.538,0,0,0,49.742,230a2.261,2.261,0,0,0-2.389-2.279,9.941,9.941,0,0,0-1.213.022m25.116-1.252c2.842,0,4.962.889,6.3,2.64a6.644,6.644,0,0,1-.544,8.671,8.253,8.253,0,0,1-6.129,2.293H67.015V227.849c0-.419-.169-.91-.378-1.007l-.028-.015-.041-.335h4.687ZM69.317,238.8c.628.032,1.207.032,1.673.032a5.147,5.147,0,0,0,4.327-1.827,6.536,6.536,0,0,0,1.154-3.934,4.836,4.836,0,0,0-4.231-5.162c-.585-.081-1.392-.1-1.714-.113h-1.21Zm14.268-12.311H80.933l.006.332.026.015c.253.122.412.56.412,1.133v12.123h2.254l.007-13.6Zm45.7,0h-2.677l.032.3.028.019a1.392,1.392,0,0,1,.391,1.16v12.123h2.278v-13.6Zm-65.584,0H56.09l.05.32.028.012a1.486,1.486,0,0,1,.423,1.21v12.061h7.589l.547-2.4-.3-.122-.085.144c-.621.984-1.266,1.116-3.464,1.116a16.823,16.823,0,0,1-2.03-.1v-5.547h3.834v-1.229H58.847V227.72c.106.012,3.1.043,3.1.043a1.806,1.806,0,0,1,1.545,1.086l.015.044.307-.019-.062-2.383Zm97.2,0h-7.59l.028.351.023.019a1.364,1.364,0,0,1,.428,1.172v12.061h7.583l.554-2.414-.341-.107-.072.144c-.642.984-1.267,1.116-3.437,1.116a16.859,16.859,0,0,1-2.035-.1v-5.547h3.832v-1.229h-3.832V227.72c.1.012,3.119.043,3.119.043a1.452,1.452,0,0,1,1.5,1.086v.047l.357-.022-.055-2.383Zm-54.547-3.6a7.014,7.014,0,0,1,3.6,1.005l.081.051.166,3.071-.475.072-.041-.194a3.81,3.81,0,0,0-3.68-2.721,2.5,2.5,0,0,0-2.636,2.456c-.006,1.42,1.044,2.1,3.281,3.229l.406.207c2.2,1.151,4.262,2.239,4.262,5.121a4.779,4.779,0,0,1-1.445,3.436,5.992,5.992,0,0,1-4.2,1.692,9.028,9.028,0,0,1-4.612-1.435l-.11-.063-.135-3.556.482-.075.052.169c.3,1.082,1.311,3.593,4.169,3.618a3.069,3.069,0,0,0,2.307-.848,3.335,3.335,0,0,0,.941-2.276c0-1.91-1.353-2.591-3.226-3.53-.6-.316-.8-.422-.857-.46v.016c-2.236-1.132-3.624-2.277-3.624-4.466v-.05a4.116,4.116,0,0,1,1.773-3.4,6,6,0,0,1,3.527-1.067m30.8,3.483a5.394,5.394,0,0,1,2.858.781l.091.066.131,2.486-.459.063-.047-.188a2.8,2.8,0,0,0-2.78-2.036,1.879,1.879,0,0,0-2.047,1.82c-.009,1.044.641,1.469,2.517,2.414l.307.157c1.738.922,3.386,1.77,3.386,4.162a3.815,3.815,0,0,1-1.162,2.752,4.8,4.8,0,0,1-3.337,1.338,7.157,7.157,0,0,1-3.653-1.145l-.109-.059-.11-2.867.47-.069.044.178a3.357,3.357,0,0,0,3.245,2.708,2.258,2.258,0,0,0,2.47-2.316c0-1.355-.951-1.839-2.391-2.568l-.687-.346c-1.843-.926-2.969-1.88-2.946-3.766.014-2.351,2.2-3.6,4.211-3.564m10.191,0a5.316,5.316,0,0,1,2.845.781l.091.066.137,2.486-.462.063-.034-.188a2.828,2.828,0,0,0-2.793-2.036,2.153,2.153,0,0,0-1.5.539,1.916,1.916,0,0,0-.55,1.281c0,1.044.654,1.469,2.518,2.414l.309.157c1.745.922,3.392,1.77,3.392,4.162a3.8,3.8,0,0,1-1.16,2.752,4.814,4.814,0,0,1-3.336,1.338,7.184,7.184,0,0,1-3.663-1.145l-.1-.059-.106-2.867.453-.069.052.178a3.353,3.353,0,0,0,3.234,2.708,2.252,2.252,0,0,0,2.48-2.316c0-1.355-.945-1.839-2.39-2.568l-.687-.346c-1.845-.926-2.97-1.88-2.952-3.766.032-2.351,2.192-3.6,4.225-3.564m-23.712.116-1.785.006.025.3.029.019c.087.05.39.266.39,1.126l.006,7.723c0,1.506-.547,3.289-3.174,3.289-2.458,0-2.973-1.485-2.973-3.7l.007-8.759h-2.834l.027.3.019.019a1.314,1.314,0,0,1,.495,1.181v7.258c0,4.5,2.942,5.018,5.175,5.018,1.1,0,4.643-.331,4.643-4.577l0-9.206Zm56.773-3.871a26.819,26.819,0,0,1,5.081,2.223c-4.368-7.226-12.183-15.077-19.843-20.168,1.97,1.962,5.171,6.265,6,10.879a90.744,90.744,0,0,1,8.758,7.066m0-.006a22.38,22.38,0,0,0-9.319-1.02,10.322,10.322,0,0,0,.563-6.029,98.768,98.768,0,0,0-18.342-10.39c4.512,3.049,9.484,11.864,11.573,21.32,4.452-1.322,11.3-2.226,20.134.742-1.4-1.542-2.942-3.1-4.609-4.624" transform="translate(1010.302 2576.35)"/></g></svg>