<svg xmlns="http://www.w3.org/2000/svg" width="28.205" height="26.35" viewBox="0 0 28.205 26.35"><defs><style>.a{fill:#292929;}</style></defs><g transform="translate(0 0)"><path class="a" d="M110.62,151.217c-.258-.008-.517,0-.856,0,.557-2.2,1.1-4.3,1.591-6.413a1.524,1.524,0,0,0-.162-1.05c-1.882-2.924-3.8-5.831-5.7-8.739-.485-.743-.961-.719-1.462.04l-3.99,6.13a33.651,33.651,0,0,0-1.858,3c-.226.525.372,2.108.477,2.633s.743,2.875,1.123,4.4a3.376,3.376,0,0,0-.872.016,1.278,1.278,0,0,0-.743.42c-.275.485.1.9.792.9,1.575.008,3.15,0,4.725,0h6.946c.452,0,.832-.129.832-.662C111.444,151.379,111.064,151.234,110.62,151.217Zm-5.823-3.594a.856.856,0,1,1-.856.856A.857.857,0,0,1,104.8,147.623Zm-3.659,3.578c-.533-2.132-1.066-4.248-1.583-6.373a.82.82,0,0,1,.065-.59c1.422-2.2,4.539-6.922,4.539-6.922l-.032,8.626a.854.854,0,0,1-.444.864,1.907,1.907,0,0,0-.832,2.237,1.992,1.992,0,0,0,3.812.048,2.067,2.067,0,0,0-.767-2.286,1.071,1.071,0,0,1-.444-.687c-.032-2.77-.016-8.8-.016-8.8,1.51,2.31,3.021,4.652,4.434,6.857a.952.952,0,0,1,.113.662c-.517,2.116-1.058,4.232-1.6,6.365C105.96,151.2,103.553,151.2,101.138,151.2Z" transform="translate(-90.662 -126.219)"/><path class="a" d="M31.839,39.933A15.962,15.962,0,0,0,28,36.3c.678,0,1.365-.032,2.043.016a1.168,1.168,0,0,1,.719.4A2.034,2.034,0,0,0,34.5,35.6a2.032,2.032,0,0,0-3.74-1.026,1.042,1.042,0,0,1-.719.38c-1.906.032-3.812.016-5.726.016-.186,0-.363-.04-.59-.065V33.156c.008-.549-.234-.856-.808-.856h-5.08c-.565,0-.824.275-.816.84.016.59,0,1.179,0,1.833-2.237,0-4.378.008-6.518-.016-.162,0-.355-.186-.46-.339a2.027,2.027,0,0,0-2.294-.9,1.987,1.987,0,0,0,0,3.828,2,2,0,0,0,2.294-.872c.1-.145.25-.347.388-.355.767-.032,1.535-.016,2.3-.016a13.856,13.856,0,0,0-4.806,5.177,12.214,12.214,0,0,0-1.413,5.7c0,.444.2.816.646.743.258-.04.468-.428.662-.687.073-.1.024-.275.032-.42a11.15,11.15,0,0,1,8.028-10.274c.347-.1.711-.145,1.131-.226,0,.67.016,1.22-.008,1.761-.024.638.258.9.9.9,1.623-.016,3.247-.024,4.862,0,.687.016.961-.275.945-.937-.016-.557,0-1.115,0-1.737.363.073.6.113.824.17a11.149,11.149,0,0,1,8.351,10.532c.016.468.089.921.638.929.6.016.695-.444.678-.953A12.281,12.281,0,0,0,31.839,39.933Zm.654-5.129a.856.856,0,1,1-.856.856A.857.857,0,0,1,32.493,34.8ZM22.349,37.615H18.391V33.689h3.958ZM8.295,34.8a.86.86,0,1,1-.856.864A.869.869,0,0,1,8.295,34.8Z" transform="translate(-6.3 -32.3)"/></g></svg>