<svg xmlns="http://www.w3.org/2000/svg" xmlns:xlink="http://www.w3.org/1999/xlink" width="81" height="81" viewBox="0 0 81 81"><defs><style>.a{fill:#fff;}.b,.c,.e{fill:none;}.b{stroke:#262626;stroke-width:2px;}.d,.f{stroke:none;}.f{fill:#262626;}.g{filter:url(#a);}</style><filter id="a" x="0" y="0" width="81" height="81" filterUnits="userSpaceOnUse"><feOffset dx="2" dy="3" input="SourceAlpha"/><feGaussianBlur stdDeviation="1" result="b"/><feFlood flood-opacity="0.161"/><feComposite operator="in" in2="b"/><feComposite in="SourceGraphic"/></filter></defs><g transform="translate(1)"><g class="g" transform="matrix(1, 0, 0, 1, -1, 0)"><circle class="a" cx="37.5" cy="37.5" r="37.5" transform="translate(1)"/></g><g transform="translate(-1825 -877.779)"><g class="b" transform="translate(1840.314 901.779)"><rect class="d" width="43.881" height="26.816" rx="2"/><rect class="e" x="1" y="1" width="41.881" height="24.816" rx="1"/></g><g class="c" transform="translate(1885.509 918.844) rotate(180)"><path class="d" d="M22.663.434a1,1,0,0,1,1.183,0l20.2,14.825a1,1,0,0,1-.592,1.806H3.053a1,1,0,0,1-.592-1.806Z"/><path class="f" d="M 23.25469970703125 2.48072624206543 L 6.105960845947266 15.06496810913086 L 40.40343856811523 15.06496810913086 L 23.25469970703125 2.48072624206543 M 23.25469398498535 0.2403621673583984 C 23.46248245239258 0.2403621673583984 23.67026901245117 0.3049583435058594 23.8463191986084 0.4341487884521484 L 44.04803848266602 15.25874805450439 C 44.82709121704102 15.83043766021729 44.4227180480957 17.06496810913086 43.4564208984375 17.06496810913086 L 3.052978515625 17.06496810913086 C 2.086669921875 17.06496810913086 1.682308197021484 15.83043766021729 2.461360931396484 15.25874805450439 L 22.6630687713623 0.4341487884521484 C 22.83911895751953 0.3049583435058594 23.04690742492676 0.2403621673583984 23.25469398498535 0.2403621673583984 Z"/></g><line class="b" x1="14.627" y2="13.911" transform="translate(1841.533 913.75)"/><line class="b" x2="14.627" y2="13.911" transform="translate(1868.349 913.75)"/></g></g></svg>