<svg xmlns="http://www.w3.org/2000/svg" xmlns:xlink="http://www.w3.org/1999/xlink" width="204" height="97" viewBox="0 0 204 97"><defs><style>.a,.d{fill:#fff;}.a{stroke:#707070;opacity:0;}.b{clip-path:url(#a);}.c{fill:#003566;}.e{fill:#5a5b5d;}</style><clipPath id="a"><rect class="a" width="204" height="97" transform="translate(417 2973)"/></clipPath></defs><g class="b" transform="translate(-417 -2973)"><g transform="translate(435.981 2985.58)"><path class="c" d="M43.528,42.916h-25.9v-25.9h25.9v25.9Z" transform="translate(0)"/><path class="d" d="M38.922,25.719a11.526,11.526,0,0,0-2.291,4.647H31.108l-.618,2.251h5.638c-.1.524-.2,1.043-.294,1.552H30.078l-.618,2.251h5.851A7.768,7.768,0,0,1,33.8,39.4c-2,2.289-5.674,1.889-5.674,1.889l-.95,3.485s5.426.453,8.449-4.1A12.511,12.511,0,0,0,37.3,36.419h5.354l.618-2.251H37.725c.088-.527.175-1.046.269-1.552h5.689l.618-2.251H38.539a5.658,5.658,0,0,1,1.967-2.949,7.193,7.193,0,0,1,4.958-1.345l.8-2.955s-4.644-.543-7.338,2.6Z" transform="translate(-6.182 -3.927)"/><g transform="translate(49.336 17.073)"><path class="c" d="M107.611,20.153h5.144V21.4h-3.694v3.639h3.512v1.246h-3.512v5.311h-1.451V20.153Z" transform="translate(-107.611 -19.104)"/><path class="c" d="M124.572,30.491c0-.607-.049-1.213-.066-1.8h1.336L125.891,30h.033a2.258,2.258,0,0,1,2.391-1.426v1.361a2.741,2.741,0,0,0-.528-.049c-1.072,0-1.83.918-1.83,2.738v4.426h-1.385V30.491Z" transform="translate(-118.553 -24.557)"/><path class="c" d="M138.117,29.262a4.5,4.5,0,0,1,2.374-.689,3.2,3.2,0,0,1,2.242.787,2.557,2.557,0,0,1,.726,2.049v4.36a12.6,12.6,0,0,0,.066,1.278h-1.253l-.082-1.131h-.033a2.541,2.541,0,0,1-2.358,1.246,2.236,2.236,0,0,1-2.424-2.41c0-1.622,1.072-2.819,3.957-2.819h.808v-.377a2.043,2.043,0,0,0-.313-1.344,1.711,1.711,0,0,0-1.4-.525,2.987,2.987,0,0,0-2.16.869l-.148-1.295Zm4.023,3.688a8.415,8.415,0,0,0-.973-.033c-1.633,0-2.407.77-2.407,1.738a1.3,1.3,0,0,0,1.418,1.459A1.98,1.98,0,0,0,142.14,34V32.95Z" transform="translate(-126.887 -24.557)"/><path class="c" d="M160.089,30.491c0-.607-.049-1.213-.066-1.8h1.336l.049,1.246h.033a2.162,2.162,0,0,1,2.127-1.361c1.468,0,2.457.836,2.457,2.672v5.8H164.64V31.655c0-1.328-.494-1.9-1.385-1.9-1.088,0-1.781.754-1.781,2.262v5.032h-1.386V30.491Z" transform="translate(-141.555 -24.557)"/><path class="c" d="M187.036,21.668h1.616l-3.3,3.737,3.595,4.622h-1.715l-3.05-4.213h-.032v4.213h-1.385V17.734h1.385v7.294l2.885-3.36Z" transform="translate(-156.283 -17.538)"/><path class="c" d="M202.771,22.421h-1.335V21.307h1.335V19.438c0-1.361.627-2.262,2.094-2.262a4.5,4.5,0,0,1,1.089.131v1.18a1.341,1.341,0,0,0-.791-.2c-.776,0-1.006.426-1.006,1.262v1.754h1.517v1.115h-1.517v7.245h-1.385V22.421Z" transform="translate(-168.375 -17.176)"/><path class="c" d="M222.486,35.456c0,.606.05,1.213.066,1.8h-1.335l-.05-1.246h-.033a2.161,2.161,0,0,1-2.127,1.361c-1.467,0-2.456-.836-2.456-2.672V28.9h1.385v5.393c0,1.328.494,1.9,1.385,1.9,1.088,0,1.781-.754,1.781-2.262V28.9h1.384v6.557Z" transform="translate(-178.164 -24.768)"/><path class="c" d="M238.986,30.491c0-.607-.049-1.213-.065-1.8h1.335L240.305,30h.033a2.258,2.258,0,0,1,2.391-1.426v1.361a2.745,2.745,0,0,0-.528-.049c-1.072,0-1.83.918-1.83,2.738v4.426h-1.386V30.491Z" transform="translate(-192.651 -24.557)"/><path class="c" d="M256.707,33.274a3.9,3.9,0,0,1-1.171.213c-1.27,0-1.946-.508-1.946-1.983V26.127h-1.335V25.013h1.335v-1.7l1.385-.41v2.115h1.732v1.115h-1.732v4.934c0,.951.247,1.312.874,1.312a2.011,2.011,0,0,0,.857-.213v1.115Z" transform="translate(-201.287 -20.882)"/><path class="c" d="M283.97,21.6a3.892,3.892,0,0,0-1.962-.524,1.681,1.681,0,0,0-1.8,1.7c0,.738.3,1.2,1.946,2.147,1.781,1.016,2.375,2.016,2.375,3.327a3.077,3.077,0,0,1-3.348,3.246,5.75,5.75,0,0,1-2.407-.492V29.515a4.784,4.784,0,0,0,2.193.738,1.868,1.868,0,0,0,2.044-1.8c0-.885-.231-1.393-1.781-2.328-2.077-1.246-2.539-1.95-2.539-3.426,0-1.885,1.45-2.868,3.2-2.868a5.868,5.868,0,0,1,2.078.377V21.6Z" transform="translate(-218.409 -18.894)"/><path class="c" d="M303.612,30.147a3.124,3.124,0,0,0-1.6-.393c-1.352,0-2.308.934-2.308,3.2,0,1.934.923,3.032,2.276,3.032a3.662,3.662,0,0,0,1.7-.443l.066,1.262a5,5,0,0,1-1.763.361c-2.507,0-3.727-1.852-3.727-4.213,0-2.7,1.418-4.377,3.759-4.377a4.131,4.131,0,0,1,1.665.328l-.066,1.246Z" transform="translate(-231.076 -24.557)"/><path class="c" d="M317.626,17.734h1.384v5.082h.032a2.288,2.288,0,0,1,2.061-1.262c1.468,0,2.457.836,2.457,2.672v5.8h-1.385V24.635c0-1.328-.494-1.9-1.384-1.9-1.088,0-1.781.754-1.781,2.262v5.032h-1.384V17.734Z" transform="translate(-243.623 -17.537)"/><path class="c" d="M342.391,28.573c2.227,0,3.38,1.672,3.38,4.295s-1.153,4.295-3.38,4.295-3.379-1.672-3.379-4.295,1.153-4.295,3.379-4.295Zm0,7.475c1.319,0,1.93-1.082,1.93-3.18s-.611-3.18-1.93-3.18-1.928,1.082-1.928,3.18.609,3.18,1.928,3.18Z" transform="translate(-257.473 -24.557)"/><path class="c" d="M364.944,28.573c2.226,0,3.381,1.672,3.381,4.295s-1.155,4.295-3.381,4.295-3.38-1.672-3.38-4.295,1.155-4.295,3.38-4.295Zm0,7.475c1.319,0,1.93-1.082,1.93-3.18s-.611-3.18-1.93-3.18-1.928,1.082-1.928,3.18.609,3.18,1.928,3.18Z" transform="translate(-272.078 -24.557)"/><path class="c" d="M385.664,17.734h1.385V30.028h-1.385V17.734Z" transform="translate(-287.686 -17.538)"/></g><g transform="translate(49.181 34.969)"><path class="e" d="M109.275,73.479a2.009,2.009,0,0,1,1.519.6,2.346,2.346,0,0,1-.012,3.1,2.133,2.133,0,0,1-3.021,0,2.35,2.35,0,0,1-.012-3.1A2.018,2.018,0,0,1,109.275,73.479Zm0,3.718a1.106,1.106,0,0,0,.956-.463,1.82,1.82,0,0,0,.332-1.089,1.744,1.744,0,0,0-.352-1.088,1.118,1.118,0,0,0-.936-.463,1.129,1.129,0,0,0-.944.459,1.741,1.741,0,0,0-.352,1.092,1.835,1.835,0,0,0,.328,1.089A1.111,1.111,0,0,0,109.275,77.2Z" transform="translate(-107.169 -71.535)"/><path class="e" d="M121.613,70.619h-.972V70h.972v-.381a2.159,2.159,0,0,1,.294-1.244,1.243,1.243,0,0,1,1.085-.417,2.18,2.18,0,0,1,.258.016l.25.032-.032.616a1.108,1.108,0,0,0-.362-.049.628.628,0,0,0-.591.243,1.512,1.512,0,0,0-.141.737V70h1.094v.616h-1.094v3.516h-.761Z" transform="translate(-115.894 -67.962)"/><path class="e" d="M137.4,69.434H140.4v.713h-2.2V71.8h2.1v.713h-2.1v2.576h-.81Z" transform="translate(-126.747 -68.915)"/><path class="e" d="M149.82,69.557h-.858V68.7h.858Zm-.81.923h.761v4.132h-.761Z" transform="translate(-134.235 -68.439)"/><path class="e" d="M155.215,73.576h.737v.656a1.289,1.289,0,0,1,.555-.551,1.692,1.692,0,0,1,.814-.2,1.432,1.432,0,0,1,1.166.458,2.008,2.008,0,0,1,.381,1.316v2.455h-.761V75.569a2.437,2.437,0,0,0-.195-1.118.708.708,0,0,0-.68-.356,1.065,1.065,0,0,0-.94.462,2.164,2.164,0,0,0-.316,1.239v1.912h-.761Z" transform="translate(-138.285 -71.535)"/><path class="e" d="M168.949,73.868a2.725,2.725,0,0,1,.644-.284,2.493,2.493,0,0,1,.717-.105,1.666,1.666,0,0,1,1.264.421,1.821,1.821,0,0,1,.4,1.288V76.9c0,.227,0,.4.008.506s.013.212.024.3h-.713v-.535a1.818,1.818,0,0,1-.514.448,1.494,1.494,0,0,1-.782.193,1.76,1.76,0,0,1-1.114-.315,1.155,1.155,0,0,1-.4-.969,1.094,1.094,0,0,1,.6-1.03,2.705,2.705,0,0,1,1.325-.327h.81a1.211,1.211,0,0,0-.231-.814,1.008,1.008,0,0,0-.79-.263,1.969,1.969,0,0,0-.644.113,1.692,1.692,0,0,0-.555.308Zm2.26,1.871-.486-.016a2.95,2.95,0,0,0-.976.159.623.623,0,0,0-.458.64.587.587,0,0,0,.239.493.85.85,0,0,0,.53.183,1.145,1.145,0,0,0,.851-.3,1.07,1.07,0,0,0,.3-.79Z" transform="translate(-146.875 -71.535)"/><path class="e" d="M182.042,73.576h.737v.656a1.289,1.289,0,0,1,.555-.551,1.692,1.692,0,0,1,.814-.2,1.433,1.433,0,0,1,1.167.458,2.01,2.01,0,0,1,.381,1.316v2.455h-.761V75.569a2.437,2.437,0,0,0-.195-1.118.708.708,0,0,0-.68-.356,1.064,1.064,0,0,0-.939.462A2.161,2.161,0,0,0,182.8,75.8v1.912h-.761Z" transform="translate(-155.659 -71.535)"/><path class="e" d="M198.087,74.273a2.159,2.159,0,0,0-.826-.178,1.164,1.164,0,0,0-.968.463,1.718,1.718,0,0,0-.361,1.088,1.769,1.769,0,0,0,.344,1.093,1.21,1.21,0,0,0,1.033.459,1.523,1.523,0,0,0,.421-.063,1.432,1.432,0,0,0,.4-.18l.057.689a2.036,2.036,0,0,1-.389.117,2.692,2.692,0,0,1-.567.053,1.994,1.994,0,0,1-1.515-.625,2.351,2.351,0,0,1-.012-3.1,2.019,2.019,0,0,1,1.527-.6,2.779,2.779,0,0,1,.494.049,2.306,2.306,0,0,1,.429.113Z" transform="translate(-164.131 -71.535)"/><path class="e" d="M208.956,77.538q-.389.142-.628.209a2.654,2.654,0,0,1-.677.067,2.049,2.049,0,0,1-1.608-.593,2.383,2.383,0,0,1-.531-1.648,2.155,2.155,0,0,1,.531-1.513,1.814,1.814,0,0,1,1.405-.58,1.566,1.566,0,0,1,1.4.626,3.016,3.016,0,0,1,.425,1.715h-2.949a1.343,1.343,0,0,0,1.361,1.377,2.116,2.116,0,0,0,.725-.136,1.758,1.758,0,0,0,.547-.285Zm-.494-2.284a1.252,1.252,0,0,0-.275-.828.93.93,0,0,0-.754-.33.95.95,0,0,0-.786.343,1.522,1.522,0,0,0-.324.816Z" transform="translate(-170.859 -71.535)"/><path class="e" d="M230.113,71.855a2.847,2.847,0,0,1-.165,1.035,4.945,4.945,0,0,1-.48.9l.989,1.117-1.017,0-.458-.554a1.79,1.79,0,0,1-.689.5,2.5,2.5,0,0,1-.932.157,1.956,1.956,0,0,1-1.33-.43,1.449,1.449,0,0,1-.494-1.152,1.538,1.538,0,0,1,.324-1.01,2.328,2.328,0,0,1,.94-.645,3.122,3.122,0,0,1-.47-.714,1.5,1.5,0,0,1-.113-.576,1.205,1.205,0,0,1,.413-.994,1.625,1.625,0,0,1,1.061-.337,1.551,1.551,0,0,1,1,.32,1.16,1.16,0,0,1,.4.96,1.205,1.205,0,0,1-.352.866,2.852,2.852,0,0,1-.886.607L229,73.226a2.41,2.41,0,0,0,.265-.588,2.917,2.917,0,0,0,.085-.783ZM227.505,74.4a1.093,1.093,0,0,0,.6-.165,1.962,1.962,0,0,0,.442-.388l-1.362-1.594a3.187,3.187,0,0,0-.6.508.915.915,0,0,0-.19.614.938.938,0,0,0,.324.74A1.151,1.151,0,0,0,227.505,74.4Zm-.024-2.941a2.276,2.276,0,0,0,.59-.413.78.78,0,0,0,.259-.575.693.693,0,0,0-.178-.535.707.707,0,0,0-.494-.162.671.671,0,0,0-.49.186.725.725,0,0,0-.19.543.867.867,0,0,0,.15.523A5.5,5.5,0,0,0,227.481,71.458Z" transform="translate(-183.827 -68.737)"/><path class="e" d="M248.686,69.434h1.333l1.779,4.7,1.743-4.7h1.333v5.654h-.81V70.2l-1.887,4.893h-.794L249.512,70.2l-.016,4.893h-.81Z" transform="translate(-198.82 -68.915)"/><path class="e" d="M269.844,73.868a2.725,2.725,0,0,1,.644-.284,2.492,2.492,0,0,1,.717-.105,1.666,1.666,0,0,1,1.264.421,1.821,1.821,0,0,1,.4,1.288V76.9c0,.227,0,.4.008.506s.013.212.024.3h-.713v-.535a1.822,1.822,0,0,1-.514.448,1.5,1.5,0,0,1-.782.193,1.76,1.76,0,0,1-1.114-.315,1.155,1.155,0,0,1-.4-.969,1.094,1.094,0,0,1,.6-1.03,2.7,2.7,0,0,1,1.325-.327h.81a1.213,1.213,0,0,0-.231-.814,1.008,1.008,0,0,0-.79-.263,1.973,1.973,0,0,0-.645.113,1.694,1.694,0,0,0-.555.308Zm2.26,1.871-.486-.016a2.949,2.949,0,0,0-.976.159.622.622,0,0,0-.458.64.587.587,0,0,0,.239.493.85.85,0,0,0,.53.183,1.144,1.144,0,0,0,.851-.3,1.07,1.07,0,0,0,.3-.79Z" transform="translate(-212.218 -71.535)"/><path class="e" d="M282.937,73.576h.737v.656a1.291,1.291,0,0,1,.555-.551,1.694,1.694,0,0,1,.814-.2,1.432,1.432,0,0,1,1.166.458,2.01,2.01,0,0,1,.381,1.316v2.455h-.761V75.569a2.438,2.438,0,0,0-.195-1.118.709.709,0,0,0-.68-.356,1.064,1.064,0,0,0-.94.462A2.161,2.161,0,0,0,283.7,75.8v1.912h-.762Z" transform="translate(-221.002 -71.535)"/><path class="e" d="M296.672,73.868a2.725,2.725,0,0,1,.644-.284,2.492,2.492,0,0,1,.717-.105,1.666,1.666,0,0,1,1.264.421,1.821,1.821,0,0,1,.4,1.288V76.9c0,.227,0,.4.008.506s.013.212.024.3h-.713v-.535a1.822,1.822,0,0,1-.514.448,1.5,1.5,0,0,1-.782.193A1.761,1.761,0,0,1,296.6,77.5a1.155,1.155,0,0,1-.4-.969,1.094,1.094,0,0,1,.6-1.03,2.7,2.7,0,0,1,1.324-.327h.81a1.212,1.212,0,0,0-.231-.814,1.008,1.008,0,0,0-.79-.263,1.969,1.969,0,0,0-.644.113,1.692,1.692,0,0,0-.555.308Zm2.26,1.871-.486-.016a2.95,2.95,0,0,0-.976.159.623.623,0,0,0-.458.64.588.588,0,0,0,.239.493.85.85,0,0,0,.531.183,1.145,1.145,0,0,0,.851-.3,1.071,1.071,0,0,0,.3-.79Z" transform="translate(-229.592 -71.535)"/><path class="e" d="M312.912,77.529A1.962,1.962,0,0,1,312.393,79a2.244,2.244,0,0,1-1.612.5,3.7,3.7,0,0,1-.668-.061,6.391,6.391,0,0,1-.814-.223l.081-.7a4.9,4.9,0,0,0,.774.287,2.85,2.85,0,0,0,.717.085,1.194,1.194,0,0,0,.939-.381,1.5,1.5,0,0,0,.34-1.037v-.4a1.591,1.591,0,0,1-.62.474,1.914,1.914,0,0,1-.782.166,1.563,1.563,0,0,1-1.3-.587,2.267,2.267,0,0,1-.462-1.446,2.538,2.538,0,0,1,.481-1.535,1.584,1.584,0,0,1,1.361-.66,1.739,1.739,0,0,1,.857.183,1.238,1.238,0,0,1,.5.53l.016-.616h.713Zm-.762-1.839a1.977,1.977,0,0,0-.312-1.138,1.019,1.019,0,0,0-.9-.457.955.955,0,0,0-.843.478,1.919,1.919,0,0,0-.308,1.061,1.683,1.683,0,0,0,.316,1.033.99.99,0,0,0,.834.425,1.083,1.083,0,0,0,.863-.409A1.493,1.493,0,0,0,312.15,75.69Z" transform="translate(-237.87 -71.535)"/><path class="e" d="M326.472,77.538q-.389.142-.628.209a2.652,2.652,0,0,1-.677.067,2.049,2.049,0,0,1-1.608-.593,2.383,2.383,0,0,1-.531-1.648,2.155,2.155,0,0,1,.531-1.513,1.813,1.813,0,0,1,1.405-.58,1.567,1.567,0,0,1,1.4.626,3.013,3.013,0,0,1,.425,1.715h-2.949A1.342,1.342,0,0,0,325.2,77.2a2.117,2.117,0,0,0,.725-.136,1.755,1.755,0,0,0,.547-.285Zm-.494-2.284a1.251,1.251,0,0,0-.275-.828.928.928,0,0,0-.753-.33.951.951,0,0,0-.786.343,1.522,1.522,0,0,0-.324.816Z" transform="translate(-246.966 -71.535)"/><path class="e" d="M336.569,73.576h.713v.6a1.474,1.474,0,0,1,1.328-.7,1.286,1.286,0,0,1,.7.2,1.221,1.221,0,0,1,.478.6,1.3,1.3,0,0,1,.567-.6,1.519,1.519,0,0,1,.713-.2,1.315,1.315,0,0,1,1.09.43,1.787,1.787,0,0,1,.344,1.15v2.649h-.761V75.245a1.872,1.872,0,0,0-.162-.81.583.583,0,0,0-.575-.34.891.891,0,0,0-.814.446,2.046,2.046,0,0,0-.271,1.085v2.082h-.762V75.245a1.867,1.867,0,0,0-.162-.81.582.582,0,0,0-.575-.34.891.891,0,0,0-.814.446,2.046,2.046,0,0,0-.272,1.085v2.082h-.761Z" transform="translate(-255.735 -71.535)"/><path class="e" d="M359.69,77.538q-.389.142-.628.209a2.648,2.648,0,0,1-.677.067,2.048,2.048,0,0,1-1.607-.593,2.383,2.383,0,0,1-.531-1.648,2.155,2.155,0,0,1,.531-1.513,1.813,1.813,0,0,1,1.405-.58,1.567,1.567,0,0,1,1.4.626,3.013,3.013,0,0,1,.425,1.715h-2.949a1.342,1.342,0,0,0,1.361,1.377,2.118,2.118,0,0,0,.725-.136,1.758,1.758,0,0,0,.547-.285Zm-.494-2.284a1.252,1.252,0,0,0-.275-.828.929.929,0,0,0-.753-.33.95.95,0,0,0-.786.343,1.519,1.519,0,0,0-.324.816Z" transform="translate(-268.479 -71.535)"/><path class="e" d="M369.811,73.576h.737v.656a1.289,1.289,0,0,1,.555-.551,1.691,1.691,0,0,1,.814-.2,1.432,1.432,0,0,1,1.166.458,2.01,2.01,0,0,1,.381,1.316v2.455H372.7V75.569a2.437,2.437,0,0,0-.195-1.118.709.709,0,0,0-.68-.356,1.064,1.064,0,0,0-.94.462,2.161,2.161,0,0,0-.316,1.239v1.912h-.761Z" transform="translate(-277.264 -71.535)"/><path class="e" d="M384.966,72.163h-1.094V74.43a.776.776,0,0,0,.178.544.6.6,0,0,0,.462.195.836.836,0,0,0,.518-.154v.648a3.235,3.235,0,0,1-.324.087,1.515,1.515,0,0,1-.324.035,1.376,1.376,0,0,1-.944-.292,1.158,1.158,0,0,1-.328-.909v-2.42h-.931v-.616h.931V70.59l.761-.243v1.2h1.094Z" transform="translate(-285.274 -69.507)"/></g><g transform="translate(17.731 50.797)"><path class="c" d="M22.162,114.752a2.066,2.066,0,0,0-.615-.274,3.348,3.348,0,0,0-.825-.086,1.92,1.92,0,0,0-1.451.582,2.035,2.035,0,0,0-.559,1.468,2,2,0,0,0,.57,1.48,1.9,1.9,0,0,0,1.4.572,3.99,3.99,0,0,0,.54-.03c.14-.03.24-.05.3-.06v-1.6h-1.1v-.615h1.852v2.728a4.945,4.945,0,0,1-.664.162,5.339,5.339,0,0,1-.933.071,2.739,2.739,0,0,1-2.006-.739,2.664,2.664,0,0,1-.754-1.993,2.567,2.567,0,0,1,.776-1.948,2.766,2.766,0,0,1,1.991-.74,4.424,4.424,0,0,1,.817.06,5.564,5.564,0,0,1,.72.2Z" transform="translate(-17.918 -113.432)"/><path class="c" d="M36.317,121.488q-.36.131-.581.193a2.47,2.47,0,0,1-.626.061,1.9,1.9,0,0,1-1.488-.548,2.206,2.206,0,0,1-.491-1.525,1.994,1.994,0,0,1,.491-1.4,1.678,1.678,0,0,1,1.3-.537,1.45,1.45,0,0,1,1.293.579,2.791,2.791,0,0,1,.394,1.587H33.881a1.242,1.242,0,0,0,1.259,1.275,1.964,1.964,0,0,0,.671-.126,1.623,1.623,0,0,0,.506-.264Zm-.457-2.114a1.158,1.158,0,0,0-.255-.766.86.86,0,0,0-.7-.306.88.88,0,0,0-.727.317,1.4,1.4,0,0,0-.3.755Z" transform="translate(-27.77 -116.023)"/><path class="c" d="M45.685,117.822h.66v.592a1.274,1.274,0,0,1,.431-.491,1.023,1.023,0,0,1,.581-.191,1.963,1.963,0,0,1,.225.011c.06.008.14.021.24.041v.63a.816.816,0,0,0-.191-.052,1.425,1.425,0,0,0-.2-.015.876.876,0,0,0-.757.42,2,2,0,0,0-.285,1.14v1.739h-.7Z" transform="translate(-35.901 -116.023)"/><path class="c" d="M53.939,117.822h.66v.555a1.364,1.364,0,0,1,1.229-.645,1.189,1.189,0,0,1,.645.184,1.128,1.128,0,0,1,.442.559,1.2,1.2,0,0,1,.525-.559,1.406,1.406,0,0,1,.66-.184,1.216,1.216,0,0,1,1.008.4,1.654,1.654,0,0,1,.319,1.064v2.452h-.7v-2.279a1.726,1.726,0,0,0-.15-.749.539.539,0,0,0-.532-.315.826.826,0,0,0-.754.412,1.9,1.9,0,0,0-.251,1v1.927h-.7v-2.279a1.726,1.726,0,0,0-.15-.749.539.539,0,0,0-.532-.315.826.826,0,0,0-.753.412,1.9,1.9,0,0,0-.251,1v1.927h-.7Z" transform="translate(-41.246 -116.023)"/><path class="c" d="M72.587,118.092a2.528,2.528,0,0,1,.6-.262,2.309,2.309,0,0,1,.663-.1,1.543,1.543,0,0,1,1.17.39,1.686,1.686,0,0,1,.367,1.192V120.9q0,.315.008.469c0,.1.012.2.022.281h-.66v-.495a1.684,1.684,0,0,1-.476.414,1.376,1.376,0,0,1-.723.178,1.633,1.633,0,0,1-1.031-.291,1.071,1.071,0,0,1-.371-.9,1.011,1.011,0,0,1,.551-.953,2.5,2.5,0,0,1,1.226-.3h.749a1.12,1.12,0,0,0-.214-.753.932.932,0,0,0-.731-.244,1.813,1.813,0,0,0-.6.105,1.548,1.548,0,0,0-.513.285Zm2.092,1.732-.45-.015a2.737,2.737,0,0,0-.9.147.576.576,0,0,0-.424.592.545.545,0,0,0,.221.456.788.788,0,0,0,.491.169,1.061,1.061,0,0,0,.787-.279.992.992,0,0,0,.277-.732Z" transform="translate(-53.042 -116.023)"/><path class="c" d="M84.706,117.822h.682v.607a1.19,1.19,0,0,1,.513-.51,1.57,1.57,0,0,1,.753-.187,1.324,1.324,0,0,1,1.08.424,1.857,1.857,0,0,1,.352,1.218v2.272h-.7v-1.979a2.252,2.252,0,0,0-.18-1.035.656.656,0,0,0-.63-.33.984.984,0,0,0-.87.427,2,2,0,0,0-.292,1.147v1.769h-.7Z" transform="translate(-61.172 -116.023)"/><path class="c" d="M103.918,113.988h2.931v.66h-2.182v1.529h1.987v.66h-1.987v1.724h2.182v.66h-2.931Z" transform="translate(-73.614 -113.598)"/><path class="c" d="M115.34,119.8,114.1,117.98l.88,0,.827,1.356.844-1.359.793,0L116.21,119.8l1.35,2h-.869l-.944-1.508-.954,1.5-.832.005Z" transform="translate(-80.118 -116.181)"/><path class="c" d="M127.939,118.467a1.987,1.987,0,0,0-.765-.165,1.077,1.077,0,0,0-.9.429,1.591,1.591,0,0,0-.334,1.007,1.637,1.637,0,0,0,.319,1.011,1.118,1.118,0,0,0,.956.425,1.424,1.424,0,0,0,.39-.058,1.335,1.335,0,0,0,.367-.167l.052.637a1.875,1.875,0,0,1-.36.109,2.483,2.483,0,0,1-.525.049,1.845,1.845,0,0,1-1.4-.578,2.176,2.176,0,0,1-.011-2.873,1.867,1.867,0,0,1,1.413-.56,2.538,2.538,0,0,1,.457.045,2.08,2.08,0,0,1,.4.1Z" transform="translate(-87.394 -116.023)"/><path class="c" d="M138,121.488q-.36.131-.581.193a2.47,2.47,0,0,1-.626.061,1.9,1.9,0,0,1-1.488-.548,2.206,2.206,0,0,1-.491-1.525,1.994,1.994,0,0,1,.491-1.4,1.678,1.678,0,0,1,1.3-.537,1.45,1.45,0,0,1,1.293.579,2.791,2.791,0,0,1,.394,1.587h-2.729a1.242,1.242,0,0,0,1.259,1.275,1.964,1.964,0,0,0,.671-.126,1.623,1.623,0,0,0,.506-.264Zm-.457-2.114a1.158,1.158,0,0,0-.255-.766.86.86,0,0,0-.7-.306.88.88,0,0,0-.727.317,1.408,1.408,0,0,0-.3.755Z" transform="translate(-93.621 -116.023)"/><path class="c" d="M147.62,112.881h.7V118.5h-.7Z" transform="translate(-101.917 -112.881)"/><path class="c" d="M153.535,112.881h.7V118.5h-.7Z" transform="translate(-105.748 -112.881)"/><path class="c" d="M161.658,121.488q-.36.131-.581.193a2.47,2.47,0,0,1-.626.061,1.9,1.9,0,0,1-1.488-.548,2.206,2.206,0,0,1-.491-1.525,1.994,1.994,0,0,1,.491-1.4,1.677,1.677,0,0,1,1.3-.537,1.45,1.45,0,0,1,1.293.579,2.791,2.791,0,0,1,.394,1.587h-2.729a1.242,1.242,0,0,0,1.259,1.275,1.965,1.965,0,0,0,.671-.126,1.623,1.623,0,0,0,.506-.264Zm-.457-2.114a1.158,1.158,0,0,0-.255-.766.86.86,0,0,0-.7-.306.88.88,0,0,0-.727.317,1.405,1.405,0,0,0-.3.755Z" transform="translate(-108.944 -116.023)"/><path class="c" d="M171.024,117.822h.682v.607a1.19,1.19,0,0,1,.514-.51,1.569,1.569,0,0,1,.753-.187,1.324,1.324,0,0,1,1.08.424,1.857,1.857,0,0,1,.352,1.218v2.272h-.7v-1.979a2.252,2.252,0,0,0-.18-1.035.656.656,0,0,0-.63-.33.984.984,0,0,0-.87.427,2,2,0,0,0-.292,1.147v1.769h-.7Z" transform="translate(-117.074 -116.023)"/><path class="c" d="M185.874,118.467a1.985,1.985,0,0,0-.764-.165,1.077,1.077,0,0,0-.9.429,1.589,1.589,0,0,0-.334,1.007,1.636,1.636,0,0,0,.319,1.011,1.118,1.118,0,0,0,.956.425,1.423,1.423,0,0,0,.39-.058,1.338,1.338,0,0,0,.368-.167l.053.637a1.888,1.888,0,0,1-.36.109,2.48,2.48,0,0,1-.525.049,1.844,1.844,0,0,1-1.4-.578,2.175,2.175,0,0,1-.012-2.873,1.867,1.867,0,0,1,1.413-.56,2.545,2.545,0,0,1,.457.045,2.087,2.087,0,0,1,.4.1Z" transform="translate(-124.914 -116.023)"/><path class="c" d="M195.933,121.488q-.36.131-.581.193a2.47,2.47,0,0,1-.626.061,1.9,1.9,0,0,1-1.488-.548,2.206,2.206,0,0,1-.491-1.525,1.994,1.994,0,0,1,.491-1.4,1.678,1.678,0,0,1,1.3-.537,1.45,1.45,0,0,1,1.293.579,2.791,2.791,0,0,1,.394,1.587H193.5a1.242,1.242,0,0,0,1.259,1.275,1.964,1.964,0,0,0,.671-.126,1.622,1.622,0,0,0,.506-.264Zm-.457-2.114a1.159,1.159,0,0,0-.255-.766.861.861,0,0,0-.7-.306.88.88,0,0,0-.727.317,1.408,1.408,0,0,0-.3.755Z" transform="translate(-131.142 -116.023)"/><path class="c" d="M205.364,126.457h.84v.839h-.84Z" transform="translate(-139.314 -121.673)"/><path class="c" d="M220.8,114.752a2.059,2.059,0,0,0-.615-.274,3.345,3.345,0,0,0-.825-.086,1.921,1.921,0,0,0-1.451.582,2.036,2.036,0,0,0-.558,1.468,2,2,0,0,0,.57,1.48,1.9,1.9,0,0,0,1.4.572,3.986,3.986,0,0,0,.54-.03q.21-.045.3-.06v-1.6h-1.1v-.615h1.852v2.728a4.959,4.959,0,0,1-.664.162,5.346,5.346,0,0,1-.933.071,2.74,2.74,0,0,1-2.006-.739,2.667,2.667,0,0,1-.753-1.993,2.565,2.565,0,0,1,.776-1.948,2.766,2.766,0,0,1,1.99-.74,4.425,4.425,0,0,1,.818.06,5.583,5.583,0,0,1,.72.2Z" transform="translate(-146.562 -113.432)"/><path class="c" d="M232.746,112.881h.7V118.5h-.7Z" transform="translate(-157.047 -112.881)"/><path class="c" d="M239.632,117.732a1.858,1.858,0,0,1,1.406.56,2.169,2.169,0,0,1-.011,2.869,1.975,1.975,0,0,1-2.8,0,2.176,2.176,0,0,1-.011-2.873A1.867,1.867,0,0,1,239.632,117.732Zm0,3.441a1.023,1.023,0,0,0,.885-.428,1.685,1.685,0,0,0,.307-1.008,1.614,1.614,0,0,0-.326-1.007,1.034,1.034,0,0,0-.866-.429,1.045,1.045,0,0,0-.874.425,1.611,1.611,0,0,0-.326,1.011,1.7,1.7,0,0,0,.3,1.008A1.028,1.028,0,0,0,239.632,121.173Z" transform="translate(-160.244 -116.023)"/><path class="c" d="M251.406,112.881h.7v2.324a1.365,1.365,0,0,1,.5-.453,1.66,1.66,0,0,1,.787-.161,1.45,1.45,0,0,1,1.222.556,2.2,2.2,0,0,1,.427,1.382A2.543,2.543,0,0,1,254.63,118a1.394,1.394,0,0,1-1.23.6,1.609,1.609,0,0,1-.806-.186,1.41,1.41,0,0,1-.5-.451l-.015.54h-.675Zm1.837,2.279a.955.955,0,0,0-.84.429,1.756,1.756,0,0,0-.292,1.014,1.778,1.778,0,0,0,.285.988.936.936,0,0,0,.84.44.862.862,0,0,0,.787-.458,1.92,1.92,0,0,0,.27-.992,1.883,1.883,0,0,0-.255-1.007A.867.867,0,0,0,253.243,115.16Z" transform="translate(-169.132 -112.881)"/><path class="c" d="M264.118,118.092a2.532,2.532,0,0,1,.6-.262,2.313,2.313,0,0,1,.664-.1,1.543,1.543,0,0,1,1.17.39,1.687,1.687,0,0,1,.367,1.192V120.9q0,.315.007.469c.005.1.012.2.023.281h-.66v-.495a1.678,1.678,0,0,1-.476.414,1.378,1.378,0,0,1-.724.178,1.633,1.633,0,0,1-1.031-.291,1.071,1.071,0,0,1-.371-.9,1.011,1.011,0,0,1,.551-.953,2.5,2.5,0,0,1,1.226-.3h.749a1.12,1.12,0,0,0-.214-.753.932.932,0,0,0-.731-.244,1.816,1.816,0,0,0-.6.105,1.552,1.552,0,0,0-.513.285Zm2.092,1.732-.45-.015a2.735,2.735,0,0,0-.9.147.576.576,0,0,0-.424.592.545.545,0,0,0,.221.456.787.787,0,0,0,.491.169,1.06,1.06,0,0,0,.787-.279.991.991,0,0,0,.278-.732Z" transform="translate(-177.083 -116.023)"/><path class="c" d="M276.491,112.881h.7V118.5h-.7Z" transform="translate(-185.377 -112.881)"/><path class="c" d="M288.129,113.988h1.282a3.262,3.262,0,0,1,1.5.281,1.16,1.16,0,0,1,.536,1.136,1.115,1.115,0,0,1-.3.788,1.344,1.344,0,0,1-.78.4.84.84,0,0,1,.281.191,1.6,1.6,0,0,1,.228.348l.99,2.085h-.855l-.8-1.814a.814.814,0,0,0-.341-.427,1.356,1.356,0,0,0-.536-.082h-.449v2.324h-.75Zm.75,2.249h.637a1.392,1.392,0,0,0,.832-.218.7.7,0,0,0,.3-.6.675.675,0,0,0-.27-.566,1.267,1.267,0,0,0-.78-.206h-.72Z" transform="translate(-192.915 -113.598)"/><path class="c" d="M303.529,121.488q-.36.131-.581.193a2.465,2.465,0,0,1-.626.061,1.9,1.9,0,0,1-1.488-.548,2.208,2.208,0,0,1-.491-1.525,2,2,0,0,1,.491-1.4,1.679,1.679,0,0,1,1.3-.537,1.451,1.451,0,0,1,1.294.579,2.794,2.794,0,0,1,.394,1.587h-2.729a1.242,1.242,0,0,0,1.259,1.275,1.964,1.964,0,0,0,.671-.126,1.623,1.623,0,0,0,.506-.264Zm-.457-2.114a1.156,1.156,0,0,0-.255-.766.859.859,0,0,0-.7-.306.881.881,0,0,0-.728.317,1.407,1.407,0,0,0-.3.755Z" transform="translate(-200.824 -116.023)"/><path class="c" d="M313.15,112.881h.7V118.5h-.7Z" transform="translate(-209.119 -112.881)"/><path class="c" d="M321.273,121.488q-.36.131-.581.193a2.465,2.465,0,0,1-.626.061,1.9,1.9,0,0,1-1.488-.548,2.208,2.208,0,0,1-.491-1.525,2,2,0,0,1,.491-1.4,1.679,1.679,0,0,1,1.3-.537,1.451,1.451,0,0,1,1.294.579,2.793,2.793,0,0,1,.394,1.587h-2.729a1.242,1.242,0,0,0,1.259,1.275,1.964,1.964,0,0,0,.671-.126,1.623,1.623,0,0,0,.506-.264Zm-.457-2.114a1.156,1.156,0,0,0-.255-.766.859.859,0,0,0-.7-.306.881.881,0,0,0-.728.317,1.407,1.407,0,0,0-.3.755Z" transform="translate(-212.316 -116.023)"/><path class="c" d="M331.385,121.812h-.84l-1.372-3.824h.772l1.035,3.129,1.075-3.127h.7Z" transform="translate(-219.496 -116.188)"/><path class="c" d="M340.99,118.092a2.533,2.533,0,0,1,.6-.262,2.314,2.314,0,0,1,.663-.1,1.543,1.543,0,0,1,1.17.39,1.687,1.687,0,0,1,.368,1.192V120.9q0,.315.007.469c.005.1.012.2.023.281h-.66v-.495a1.678,1.678,0,0,1-.476.414,1.378,1.378,0,0,1-.724.178,1.633,1.633,0,0,1-1.031-.291,1.071,1.071,0,0,1-.371-.9,1.011,1.011,0,0,1,.551-.953,2.5,2.5,0,0,1,1.226-.3h.75a1.12,1.12,0,0,0-.214-.753.932.932,0,0,0-.731-.244,1.813,1.813,0,0,0-.6.105,1.55,1.55,0,0,0-.514.285Zm2.092,1.732-.45-.015a2.736,2.736,0,0,0-.9.147.576.576,0,0,0-.424.592.544.544,0,0,0,.221.456.786.786,0,0,0,.491.169,1.06,1.06,0,0,0,.787-.279.991.991,0,0,0,.278-.732Z" transform="translate(-226.867 -116.023)"/><path class="c" d="M353.108,117.822h.683v.607a1.19,1.19,0,0,1,.513-.51,1.568,1.568,0,0,1,.754-.187,1.324,1.324,0,0,1,1.079.424,1.857,1.857,0,0,1,.352,1.218v2.272h-.7v-1.979a2.251,2.251,0,0,0-.18-1.035.655.655,0,0,0-.63-.33.984.984,0,0,0-.87.427,2,2,0,0,0-.292,1.147v1.769h-.7Z" transform="translate(-234.997 -116.023)"/><path class="c" d="M367.959,118.467a1.987,1.987,0,0,0-.765-.165,1.077,1.077,0,0,0-.9.429,1.591,1.591,0,0,0-.333,1.007,1.636,1.636,0,0,0,.319,1.011,1.118,1.118,0,0,0,.956.425,1.421,1.421,0,0,0,.39-.058,1.332,1.332,0,0,0,.368-.167l.053.637a1.893,1.893,0,0,1-.36.109,2.483,2.483,0,0,1-.525.049,1.845,1.845,0,0,1-1.4-.578,2.176,2.176,0,0,1-.011-2.873,1.867,1.867,0,0,1,1.413-.56,2.548,2.548,0,0,1,.457.045,2.075,2.075,0,0,1,.4.1Z" transform="translate(-242.838 -116.023)"/><path class="c" d="M378.018,121.488q-.36.131-.581.193a2.468,2.468,0,0,1-.626.061,1.9,1.9,0,0,1-1.488-.548,2.206,2.206,0,0,1-.491-1.525,1.994,1.994,0,0,1,.491-1.4,1.678,1.678,0,0,1,1.3-.537,1.451,1.451,0,0,1,1.294.579,2.793,2.793,0,0,1,.394,1.587h-2.729a1.242,1.242,0,0,0,1.259,1.275,1.963,1.963,0,0,0,.671-.126,1.619,1.619,0,0,0,.506-.264Zm-.457-2.114a1.158,1.158,0,0,0-.255-.766.86.86,0,0,0-.7-.306.88.88,0,0,0-.727.317,1.4,1.4,0,0,0-.3.755Z" transform="translate(-249.065 -116.023)"/><path class="c" d="M387.448,126.457h.84v.839h-.84Z" transform="translate(-257.236 -121.673)"/></g></g></g></svg>