<svg xmlns="http://www.w3.org/2000/svg" width="62.945" height="62.945" viewBox="0 0 62.945 62.945"><defs><style>.a{fill:#f6ff00;}</style></defs><path class="a" d="M146.114,459.054H93.491a5.168,5.168,0,0,0-5.161,5.162v52.623A5.166,5.166,0,0,0,93.491,522h52.623a5.166,5.166,0,0,0,5.161-5.16V464.216A5.168,5.168,0,0,0,146.114,459.054Zm2.71,57.785a2.713,2.713,0,0,1-2.71,2.708H93.491a2.713,2.713,0,0,1-2.71-2.708V474.956h58.042Zm0-44.334H90.781v-8.289a2.713,2.713,0,0,1,2.71-2.711h52.623a2.713,2.713,0,0,1,2.71,2.711Z" transform="translate(-88.33 -459.054)"/><path class="a" d="M95.171,464.322A1.927,1.927,0,1,0,97.1,466.25,1.927,1.927,0,0,0,95.171,464.322Z" transform="translate(-87.221 -457.866)"/><path class="a" d="M99.335,464.322a1.927,1.927,0,1,0,1.928,1.928A1.927,1.927,0,0,0,99.335,464.322Z" transform="translate(-86.282 -457.866)"/><path class="a" d="M103.5,464.322a1.927,1.927,0,1,0,1.927,1.928A1.927,1.927,0,0,0,103.5,464.322Z" transform="translate(-85.343 -457.866)"/><path class="a" d="M104.551,494.445h2.186a6.394,6.394,0,0,0,.716,1.647l-1.677,1.678a1.537,1.537,0,0,0,0,2.174l2.141,2.141a1.537,1.537,0,0,0,2.174,0l1.82-1.818a8.758,8.758,0,0,0,1.478.62v2.544a1.54,1.54,0,0,0,1.538,1.537h2.932a1.54,1.54,0,0,0,1.538-1.537v-2.544a8.844,8.844,0,0,0,1.478-.62l1.82,1.818a1.537,1.537,0,0,0,2.174,0l2.141-2.141a1.539,1.539,0,0,0,0-2.174l-1.677-1.678a6.413,6.413,0,0,0,.716-1.647h2.186a1.54,1.54,0,0,0,1.538-1.538v-2.9a1.54,1.54,0,0,0-1.538-1.538h-2.278a6.441,6.441,0,0,0-.7-1.664l1.613-1.612a1.541,1.541,0,0,0,0-2.175l-1.981-1.979a1.538,1.538,0,0,0-2.174,0l-1.659,1.659a7.292,7.292,0,0,0-1.523-.719v-2.542a1.54,1.54,0,0,0-1.538-1.538h-3.2a1.54,1.54,0,0,0-1.538,1.538v2.542a7.254,7.254,0,0,0-1.523.719l-1.661-1.661a1.539,1.539,0,0,0-2.174,0l-1.981,1.981a1.54,1.54,0,0,0,0,2.174l1.612,1.612a6.489,6.489,0,0,0-.7,1.664h-2.277a1.54,1.54,0,0,0-1.538,1.538v2.9A1.54,1.54,0,0,0,104.551,494.445Zm.351-4.087h2.207a1.522,1.522,0,0,0,1.5-1.216,4.617,4.617,0,0,1,.659-1.561,1.536,1.536,0,0,0-.208-1.914L107.5,484.1l1.483-1.483,1.612,1.61a1.556,1.556,0,0,0,1.947.189,5.307,5.307,0,0,1,1.469-.7,1.543,1.543,0,0,0,1.131-1.482v-2.451h2.5v2.451a1.544,1.544,0,0,0,1.131,1.482,5.294,5.294,0,0,1,1.471.7,1.553,1.553,0,0,0,1.946-.187l1.612-1.612,1.484,1.483-1.561,1.561a1.535,1.535,0,0,0-.208,1.916,4.627,4.627,0,0,1,.658,1.563,1.525,1.525,0,0,0,1.5,1.215h2.206v2.2h-2.1a1.539,1.539,0,0,0-1.506,1.18,4.5,4.5,0,0,1-.663,1.525,1.516,1.516,0,0,0,.174,1.962l1.635,1.635-1.645,1.643-1.755-1.754a1.544,1.544,0,0,0-1.84-.255,6.953,6.953,0,0,1-1.534.643,1.526,1.526,0,0,0-1.146,1.484v2.461H115.28v-2.461a1.527,1.527,0,0,0-1.145-1.484,6.946,6.946,0,0,1-1.536-.642,1.54,1.54,0,0,0-1.838.254L109,500.5l-1.645-1.643,1.634-1.634a1.516,1.516,0,0,0,.174-1.965,4.536,4.536,0,0,1-.663-1.522A1.536,1.536,0,0,0,107,492.555h-2.1Z" transform="translate(-85.018 -454.803)"/><path class="a" d="M114.779,495.081a5.184,5.184,0,1,0-4.334-7.985.836.836,0,0,0,.563,1.279.817.817,0,0,0,.822-.365,3.523,3.523,0,1,1-.445,2.728.818.818,0,0,0-.664-.609.837.837,0,0,0-.938,1.042A5.179,5.179,0,0,0,114.779,495.081Z" transform="translate(-83.496 -453.266)"/><path class="a" d="M100.815,498.244a1.226,1.226,0,0,0,1.722-1.745l-6.025-5.94,6.041-6.188a1.225,1.225,0,1,0-1.754-1.711l-6.32,6.471a2.055,2.055,0,0,0,.028,2.892Z" transform="translate(-87.074 -453.813)"/><path class="a" d="M132.961,490.558l-6.024,5.94a1.225,1.225,0,1,0,1.721,1.745l6.307-6.22a2.054,2.054,0,0,0,.028-2.894l-6.319-6.471a1.225,1.225,0,1,0-1.754,1.711Z" transform="translate(-79.703 -453.813)"/></svg>