<svg xmlns="http://www.w3.org/2000/svg" width="46.462" height="52.578" viewBox="0 0 46.462 52.578"><defs><style>.a{fill:#292929;}</style></defs><path class="a" d="M714.557,501.567l-8.044-8.605a3.363,3.363,0,0,0-4.12-.618,3.173,3.173,0,0,0-.561-.859l-.4-.422a2.988,2.988,0,0,0-1.111-.768,16.69,16.69,0,0,0,.206-19.441l-1.7,1.556a14.336,14.336,0,0,1,2.438,8.033,14.482,14.482,0,0,1-5.436,11.3V480.764a1.144,1.144,0,1,0-2.289,0v12.494a14.34,14.34,0,0,1-2.182.933v-9.384a1.144,1.144,0,0,0-2.288,0v9.943a14.642,14.642,0,0,1-2.229.2V483.523a1.145,1.145,0,0,0-2.289,0v11.244a14.553,14.553,0,0,1-1.993-.438V480.3a1.144,1.144,0,1,0-2.288,0v13.112a14.356,14.356,0,0,1-1.94-1.168,1.141,1.141,0,0,0,.042-.212v-6.79a1.144,1.144,0,1,0-2.289,0v5.014a14.456,14.456,0,0,1-3.6-7.188c.01-.011.024-.014.034-.025l8.5-9.073,7.892,4.377a1.677,1.677,0,0,0,2.082-.165l14.9-13.744.117,5.35a1.146,1.146,0,0,0,1.145,1.119h.025a1.146,1.146,0,0,0,1.12-1.169l-.159-7.234a1.661,1.661,0,0,0-1.817-1.817l-7.235-.16a1.145,1.145,0,0,0-.049,2.289l5.113.112-14.4,13.277-7.924-4.4a1.683,1.683,0,0,0-2.174.262l-7.4,7.9a14.5,14.5,0,0,1,23.731-10.705l1.706-1.544a16.808,16.808,0,1,0-3.547,27.782,3.21,3.21,0,0,0,.8,1.626l.4.423a3.269,3.269,0,0,0,.812.618,3.367,3.367,0,0,0,.344,4.153l8.033,8.605A6.815,6.815,0,0,0,709.3,513.1h.24a6.854,6.854,0,0,0,5.012-11.534Zm-17.542-5.573-.4-.435a.915.915,0,0,1,.046-1.281l1.82-1.694a.908.908,0,0,1,.618-.252h.034a.925.925,0,0,1,.63.287l.4.434a.916.916,0,0,1-.035,1.282l-1.831,1.693a.9.9,0,0,1-.652.252A.949.949,0,0,1,697.015,495.994Zm15.643,13.582a4.623,4.623,0,0,1-3.273,1.237,4.577,4.577,0,0,1-3.182-1.454l-8.033-8.593a1.086,1.086,0,0,1,.046-1.533l1.648-1.522,1.819-1.7v-.011l1.636-1.522a1.087,1.087,0,0,1,.744-.286,1.075,1.075,0,0,1,.779.331l8.044,8.605a4.613,4.613,0,0,1,1.225,3.273A4.526,4.526,0,0,1,712.658,509.576Z" transform="translate(-669.941 -460.523)"/></svg>