<svg xmlns="http://www.w3.org/2000/svg" width="62.833" height="57.922" viewBox="0 0 62.833 57.922"><defs><style>.a{fill:#292929;}</style></defs><g transform="translate(-448.544 -213.236)"><g transform="translate(468.498 228.191)"><path class="a" d="M475.684,233.637c-.437.535-.876,1.071-1.323,1.6-.323.387-.7.565-1.123.168-.4-.376-.267-.763.038-1.129.894-1.081,5.207-6.3,6.1-7.386.305-.376.657-.546,1.066-.179a.743.743,0,0,1,.019,1.131C480.025,228.412,476.141,233.092,475.684,233.637Z" transform="translate(-465.388 -226.503)"/><path class="a" d="M468.157,231.1c.842.876,1.651,1.708,2.449,2.54a3.507,3.507,0,0,1,.389.427c.41.641.248.967.13,1.159a.761.761,0,0,1-1.2.021c-1.154-1.18-2.31-2.383-3.443-3.6a.825.825,0,0,1,.064-1.214q1.635-1.77,3.3-3.529a.72.72,0,0,1,1.155-.056.825.825,0,0,1-.054,1.214c-.7.776-1.415,1.529-2.127,2.282C468.62,230.591,468.4,230.827,468.157,231.1Z" transform="translate(-466.246 -226.493)"/><path class="a" d="M485.4,230.9c-.918-.877-1.728-1.753-2.58-2.573a3.834,3.834,0,0,1-.507-.517.792.792,0,0,1,.13-.99.7.7,0,0,1,.939-.045q1.846,1.821,3.551,3.8a.879.879,0,0,1,.216.551.935.935,0,0,1-.292.506c-1.069,1.214-2.191,2.349-3.313,3.507-.346.36-.766.506-1.144.079a.847.847,0,0,1,.064-1.27C483.38,233,484.286,232.06,485.4,230.9Z" transform="translate(-464.224 -226.489)"/></g><g transform="translate(448.544 213.236)"><path class="a" d="M505.177,213.236H454.744a6.339,6.339,0,0,0-6.2,6.457v32.26a6.338,6.338,0,0,0,6.2,6.456h15.948l-5.136,8.942a2.578,2.578,0,0,0-.028,2.532,2.376,2.376,0,0,0,2.1,1.275h24.661a2.376,2.376,0,0,0,2.1-1.275,2.578,2.578,0,0,0-.028-2.532l-5.136-8.942h15.948a6.338,6.338,0,0,0,6.2-6.456v-32.26A6.339,6.339,0,0,0,505.177,213.236Zm-12.748,55.32a.159.159,0,0,1,0,.168.148.148,0,0,1-.141.086H467.629a.148.148,0,0,1-.14-.085.16.16,0,0,1,0-.169l5.827-10.147H486.6Zm16.693-16.6a4.034,4.034,0,0,1-3.945,4.108H454.744a4.034,4.034,0,0,1-3.945-4.108v-32.26a4.034,4.034,0,0,1,3.945-4.109h50.433a4.034,4.034,0,0,1,3.945,4.109Z" transform="translate(-448.544 -213.236)"/><path class="a" d="M503.234,218.742H455.492a2.3,2.3,0,0,0-2.252,2.346v23.051a2.3,2.3,0,0,0,2.252,2.347h47.741a2.3,2.3,0,0,0,2.252-2.347V221.088A2.3,2.3,0,0,0,503.234,218.742Zm-47.739,25.4,0-23.048,47.739,0,0,23.05Z" transform="translate(-447.947 -212.535)"/></g></g></svg>