<svg xmlns="http://www.w3.org/2000/svg" width="31.913" height="81.703" viewBox="0 0 31.913 81.703"><defs><style>.a{fill:#f6ff00;}</style></defs><path class="a" d="M128.764,208.265c-.618-.587-.9-1.281-.226-1.973s1.37-.422,1.972.181c1.476,1.476,2.951,2.921,4.412,4.411a1.358,1.358,0,0,1-.016,2.244c-1.46,1.476-2.95,2.935-4.411,4.411-.6.618-1.279.889-1.957.181s-.376-1.37.24-1.973c.768-.753,1.536-1.52,2.56-2.514h-2.666c-4.727.015-7.573,2.544-8.085,7.227-.105.843-.406,1.536-1.354,1.476-.934-.076-1.145-.8-1.13-1.657a9.735,9.735,0,0,1,7.423-9.185,45.252,45.252,0,0,1,5.812-.482C130.36,209.71,129.547,208.987,128.764,208.265Z" transform="translate(-103.595 -205.876)"/><path class="a" d="M113.008,273.109c.618.587.9,1.279.227,1.972-.694.708-1.37.422-1.973-.18-1.476-1.476-2.951-2.921-4.411-4.412a1.357,1.357,0,0,1,.015-2.243c1.461-1.476,2.951-2.936,4.411-4.412.6-.616,1.281-.887,1.958-.18s.376,1.37-.241,1.972c-.768.754-1.536,1.521-2.559,2.515H113.1c4.728-.015,7.573-2.544,8.085-7.227.105-.843.407-1.536,1.355-1.476.933.076,1.143.8,1.129,1.657a9.732,9.732,0,0,1-7.422,9.183,45.262,45.262,0,0,1-5.812.483C111.412,271.664,112.225,272.386,113.008,273.109Z" transform="translate(-106.265 -193.794)"/><rect class="a" width="10.293" height="2.697" rx="1.1" transform="translate(10.814 56.96)"/><rect class="a" width="10.293" height="2.697" rx="1.1" transform="translate(10.814 60.687)"/><path class="a" d="M132.768,226.018a13.155,13.155,0,0,0-10.893-5.169c-3.05,0-7.05.592-10.941,5.227-6.917,9.291-.411,16.929,2.368,20.19a12.868,12.868,0,0,1,2.646,9.1A2.77,2.77,0,0,0,118,258.25a8.115,8.115,0,0,0,2.05.178s1.465-.009,1.827-.009,1.814.007,1.814.007a8.04,8.04,0,0,0,2.063-.176,2.769,2.769,0,0,0,2.049-2.881,12.867,12.867,0,0,1,2.647-9.1C133.226,243,139.731,235.366,132.768,226.018Zm-10.9,14.334a1.53,1.53,0,1,1,1.53-1.53A1.531,1.531,0,0,1,121.867,240.352Zm3.4,15.211a.219.219,0,0,1-.173.234,6.711,6.711,0,0,1-1.387.092l-.4,0V242.973a4.413,4.413,0,1,0-2.883,0v12.913l-.382,0a6.674,6.674,0,0,1-1.39-.091.22.22,0,0,1-.173-.235c.15-1.968.135-6.975-3.247-10.944-4.141-4.861-7.284-10.283-2.31-16.968a11.527,11.527,0,0,1,17.853-.058c5.018,6.738,1.878,12.165-2.264,17.026C125.135,248.587,125.119,253.593,125.268,255.563Z" transform="translate(-105.907 -202.498)"/></svg>