<svg xmlns="http://www.w3.org/2000/svg" width="52.617" height="59.543" viewBox="0 0 52.617 59.543"><defs><style>.a{fill:#f6ff00;}</style></defs><path class="a" d="M720.468,507l-9.11-9.745a3.808,3.808,0,0,0-4.665-.7,3.593,3.593,0,0,0-.636-.973l-.453-.478a3.385,3.385,0,0,0-1.258-.869,18.9,18.9,0,0,0,.234-22.016l-1.931,1.762a16.236,16.236,0,0,1,2.761,9.1,16.4,16.4,0,0,1-6.156,12.8V483.446a1.3,1.3,0,1,0-2.592,0v14.149a16.235,16.235,0,0,1-2.472,1.056V488.024a1.3,1.3,0,0,0-2.591,0v11.26a16.588,16.588,0,0,1-2.524.225V486.57a1.3,1.3,0,0,0-2.592,0V499.3a16.475,16.475,0,0,1-2.257-.5V482.914a1.3,1.3,0,1,0-2.591,0v14.849a16.257,16.257,0,0,1-2.2-1.323,1.288,1.288,0,0,0,.048-.24v-7.689a1.3,1.3,0,1,0-2.592,0v5.679a16.371,16.371,0,0,1-4.078-8.141c.011-.012.027-.016.038-.028l9.625-10.275,8.937,4.957a1.9,1.9,0,0,0,2.357-.187l16.876-15.564.133,6.059a1.3,1.3,0,0,0,1.3,1.268h.028a1.3,1.3,0,0,0,1.268-1.324l-.18-8.192a1.881,1.881,0,0,0-2.057-2.057l-8.193-.181a1.3,1.3,0,0,0-.055,2.592l5.791.127-16.3,15.035L683.4,473.3a1.906,1.906,0,0,0-2.462.3l-8.381,8.948a16.416,16.416,0,0,1,26.875-12.123l1.932-1.749a19.035,19.035,0,1,0-4.017,31.463,3.635,3.635,0,0,0,.906,1.841l.454.479a3.7,3.7,0,0,0,.92.7,3.813,3.813,0,0,0,.39,4.7l9.1,9.745a7.718,7.718,0,0,0,5.4,2.462h.272A7.762,7.762,0,0,0,720.468,507ZM700.6,500.693l-.454-.493a1.037,1.037,0,0,1,.052-1.451l2.061-1.918a1.028,1.028,0,0,1,.7-.285H703a1.048,1.048,0,0,1,.713.325l.454.492a1.038,1.038,0,0,1-.039,1.452l-2.073,1.917a1.017,1.017,0,0,1-.739.285A1.074,1.074,0,0,1,700.6,500.693Zm17.715,15.381a5.236,5.236,0,0,1-3.706,1.4,5.183,5.183,0,0,1-3.6-1.647l-9.1-9.732a1.229,1.229,0,0,1,.052-1.736l1.867-1.724,2.06-1.931v-.012l1.853-1.724a1.231,1.231,0,0,1,.842-.323,1.217,1.217,0,0,1,.882.375l9.109,9.745a5.224,5.224,0,0,1,1.387,3.706A5.125,5.125,0,0,1,718.317,516.074Z" transform="translate(-669.941 -460.523)"/></svg>