<svg xmlns="http://www.w3.org/2000/svg" width="63.363" height="63.059" viewBox="0 0 63.363 63.059"><defs><style>.a{fill:#292929;}</style></defs><g transform="translate(-267.693 -458.682)"><path class="a" d="M297.542,458.682a21.134,21.134,0,1,0,21.135,21.135A21.159,21.159,0,0,0,297.542,458.682Zm-5.2,2.608a15.329,15.329,0,0,0-2.813,4.01,24.7,24.7,0,0,0-1.394,3.4h-6.287A19.177,19.177,0,0,1,292.338,461.29Zm-11.679,9.3h6.917a36.947,36.947,0,0,0-1.109,8.276h-8.143A19.263,19.263,0,0,1,280.659,470.595Zm-2.335,10.169h8.14a37.059,37.059,0,0,0,1.069,8.275h-6.874A19.257,19.257,0,0,1,278.324,480.763Zm3.519,10.167h6.23a24.513,24.513,0,0,0,1.451,3.579,15.728,15.728,0,0,0,2.573,3.764A19.214,19.214,0,0,1,281.844,490.931ZM296.6,498.9c-1.987-.443-3.889-2.289-5.382-5.243a22.075,22.075,0,0,1-1.146-2.724H296.6Zm0-9.86h-7.109a34.793,34.793,0,0,1-1.129-8.275H296.6Zm0-10.167H288.36a34.584,34.584,0,0,1,1.175-8.276H296.6Zm0-10.169h-6.468a22.261,22.261,0,0,1,1.086-2.549c1.495-2.953,3.395-4.8,5.382-5.242Zm20.163,10.169h-8.143a36.884,36.884,0,0,0-1.109-8.276h6.917A19.245,19.245,0,0,1,316.759,478.871Zm-3.52-10.169h-6.287a24.689,24.689,0,0,0-1.393-3.4,15.386,15.386,0,0,0-2.813-4.01A19.178,19.178,0,0,1,313.239,468.7Zm-14.751-7.791c1.986.442,3.886,2.289,5.381,5.242a22.031,22.031,0,0,1,1.086,2.549h-6.466Zm0,9.683h7.059a34.546,34.546,0,0,1,1.175,8.276h-8.235Zm0,10.169h8.238a34.8,34.8,0,0,1-1.13,8.275h-7.108Zm0,18.135v-7.967h6.527a22.087,22.087,0,0,1-1.146,2.724C302.376,496.609,300.476,498.455,298.488,498.9Zm4.5-.625a15.727,15.727,0,0,0,2.573-3.764,24.782,24.782,0,0,0,1.451-3.579h6.229A19.207,19.207,0,0,1,302.986,498.274Zm11.438-9.236h-6.873a37.207,37.207,0,0,0,1.069-8.275h8.139A19.235,19.235,0,0,1,314.424,489.038Z" transform="translate(1.832)"/><path class="a" d="M300.875,506.045l-4.762,4.779v-12.25a.891.891,0,0,0-1.781,0v12.265l-4.957-4.777a.891.891,0,0,0-1.227,1.291l5.944,5.727a1.649,1.649,0,0,0,2.316-.03l5.728-5.745a.891.891,0,0,0-1.26-1.26Z" transform="translate(4.242 8.201)"/><path class="a" d="M278.273,491.5l-8.673,8.673-.127-6.883a.89.89,0,1,0-1.78.045l.153,8.253A1.651,1.651,0,0,0,269.5,503.2l8.114-.013a.89.89,0,1,0,0-1.78l-6.747.011,8.662-8.662a.891.891,0,1,0-1.26-1.26Z" transform="translate(0 6.845)"/><path class="a" d="M321.282,492.417a.891.891,0,0,0-.913.869l-.128,6.883-8.673-8.673a.891.891,0,0,0-1.26,1.26l8.663,8.662-6.747-.011a.89.89,0,1,0,0,1.78l8.112.013A1.651,1.651,0,0,0,322,501.584l.154-8.253A.892.892,0,0,0,321.282,492.417Z" transform="translate(8.906 6.845)"/></g></svg>