<svg xmlns="http://www.w3.org/2000/svg" width="98.733" height="102.963" viewBox="0 0 98.733 102.963"><defs><style>.a{fill:#8897ab;}</style></defs><g transform="translate(-638.51 -207.05)"><path class="a" d="M686.423,210.831H672.976a.766.766,0,0,0,0,1.531h13.447a.766.766,0,0,0,0-1.531Z" transform="translate(31.598 3.107)"/><path class="a" d="M711.373,207.05H666.446a6.139,6.139,0,0,0-6.116,6.135V219.3a6.571,6.571,0,0,1,1.067.191,10.469,10.469,0,0,1,3.734,1.581,11.415,11.415,0,0,1,1.086.8h47.137V293.78H670.371v3.392h42.984v1.277a1.992,1.992,0,0,1-1.981,1.982H670.352c0,.267-.019.514-.038.762a10.615,10.615,0,0,1-.876,3.391h41.936a6.139,6.139,0,0,0,6.116-6.135V213.185A6.139,6.139,0,0,0,711.373,207.05Zm1.981,11.451H664.484v-5.316a1.96,1.96,0,0,1,1.962-1.963h44.927a1.976,1.976,0,0,1,1.981,1.963Z" transform="translate(19.754 0)"/><path class="a" d="M670.777,210.831a.766.766,0,1,0,.763.766A.766.766,0,0,0,670.777,210.831Z" transform="translate(28.518 3.107)"/><path class="a" d="M683.99,215.889a9.657,9.657,0,0,0-3.239-1.372,8.93,8.93,0,0,0-2.172-.248H648.437a9.92,9.92,0,0,0-9.927,9.927v69.334a9.937,9.937,0,0,0,9.927,9.946h30.142a9.945,9.945,0,0,0,8.974-5.735,9.117,9.117,0,0,0,.9-3.258,7.534,7.534,0,0,0,.057-.953V224.2A9.873,9.873,0,0,0,683.99,215.889Zm-9.069,2.534c-.324,1.829-3.106,6.021-4.039,6.021H656.153c-.953,0-3.754-4.211-4.058-6.021Zm9.431,75.107a2.1,2.1,0,0,1-.038.457,5.509,5.509,0,0,1-.9,2.706,5.789,5.789,0,0,1-4.84,2.629H648.437a5.786,5.786,0,0,1-5.773-5.792V224.2a5.781,5.781,0,0,1,5.773-5.773h.229c.209,1.505,3.2,9.393,7.488,9.393h14.728c4.268,0,7.259-7.888,7.45-9.393h.248a5.89,5.89,0,0,1,1.867.3,5.8,5.8,0,0,1,3.906,5.468Z" transform="translate(0 6.536)"/><path class="a" d="M659.275,218.3a.631.631,0,0,1-.61.629h-9.126a.634.634,0,0,1-.629-.629.383.383,0,0,1,.057-.21.586.586,0,0,1,.572-.381h9.126a.579.579,0,0,1,.553.381A.384.384,0,0,1,659.275,218.3Z" transform="translate(9.415 9.651)"/></g></svg>