<svg xmlns="http://www.w3.org/2000/svg" width="76.751" height="76.383" viewBox="0 0 76.751 76.383"><defs><style>.a{fill:#f6ff00;}</style></defs><path class="a" d="M302.008,458.682a25.6,25.6,0,1,0,25.6,25.6A25.63,25.63,0,0,0,302.008,458.682Zm-6.3,3.159A18.567,18.567,0,0,0,292.3,466.7a29.913,29.913,0,0,0-1.689,4.121h-7.616A23.229,23.229,0,0,1,295.7,461.841Zm-14.147,11.271h8.378a44.751,44.751,0,0,0-1.343,10.024h-9.863A23.332,23.332,0,0,1,281.557,473.112Zm-2.828,12.317h9.86a44.891,44.891,0,0,0,1.294,10.023h-8.327A23.326,23.326,0,0,1,278.729,485.429Zm4.263,12.316h7.547a29.69,29.69,0,0,0,1.758,4.335,19.05,19.05,0,0,0,3.117,4.559A23.274,23.274,0,0,1,282.992,497.745Zm17.869,9.651c-2.407-.537-4.71-2.772-6.519-6.351a26.732,26.732,0,0,1-1.388-3.3h7.908Zm0-11.943H292.25a42.145,42.145,0,0,1-1.368-10.023h9.979Zm0-12.316h-9.976a41.892,41.892,0,0,1,1.424-10.024h8.553Zm0-12.317h-7.834a26.971,26.971,0,0,1,1.315-3.087c1.811-3.577,4.112-5.814,6.519-6.349Zm24.423,12.317h-9.863a44.679,44.679,0,0,0-1.343-10.024h8.378A23.312,23.312,0,0,1,325.285,483.136Zm-4.263-12.317h-7.616a29.909,29.909,0,0,0-1.687-4.121,18.637,18.637,0,0,0-3.407-4.857A23.231,23.231,0,0,1,321.022,470.819Zm-17.867-9.437c2.406.535,4.707,2.772,6.518,6.349a26.682,26.682,0,0,1,1.315,3.087h-7.833Zm0,11.729h8.551a41.846,41.846,0,0,1,1.424,10.024h-9.975Zm0,12.317h9.979a42.152,42.152,0,0,1-1.369,10.023h-8.61Zm0,21.966v-9.651h7.906a26.749,26.749,0,0,1-1.388,3.3C307.863,504.623,305.561,506.859,303.154,507.4Zm5.448-.756a19.05,19.05,0,0,0,3.117-4.559,30.017,30.017,0,0,0,1.758-4.335h7.545A23.265,23.265,0,0,1,308.6,506.639Zm13.855-11.187h-8.325a45.069,45.069,0,0,0,1.294-10.023h9.859A23.3,23.3,0,0,1,322.457,495.452Z" transform="translate(-263.632 -458.682)"/><path class="a" d="M303.623,507.812l-5.769,5.789V498.762a1.079,1.079,0,0,0-2.158,0v14.856l-6-5.786A1.079,1.079,0,0,0,288.2,509.4l7.2,6.937a2,2,0,0,0,2.806-.037l6.939-6.959a1.079,1.079,0,0,0-1.526-1.526Z" transform="translate(-258.291 -440.508)"/><path class="a" d="M280.509,491.552,270,502.057l-.154-8.337a1.079,1.079,0,1,0-2.156.054l.185,10a2,2,0,0,0,2.01,1.959l9.828-.016a1.078,1.078,0,1,0,0-2.156l-8.173.013,10.492-10.492a1.079,1.079,0,1,0-1.526-1.526Z" transform="translate(-267.693 -443.512)"/><path class="a" d="M323.655,492.667a1.08,1.08,0,0,0-1.105,1.053l-.155,8.337-10.505-10.505a1.079,1.079,0,0,0-1.526,1.526l10.494,10.492-8.173-.013a1.078,1.078,0,1,0,0,2.156l9.827.016a2,2,0,0,0,2.01-1.959l.186-10A1.08,1.08,0,0,0,323.655,492.667Z" transform="translate(-247.955 -443.512)"/></svg>