<svg xmlns="http://www.w3.org/2000/svg" width="52.435" height="65.74" viewBox="0 0 52.435 65.74"><defs><style>.a{fill:#f6ff00;}</style></defs><path class="a" d="M541.669,470.992a11.5,11.5,0,1,1-11.5-11.484,11.379,11.379,0,0,1,6.753,2.194l-1.618,1.471a9.161,9.161,0,0,0-5.135-1.556,9.382,9.382,0,1,0,9.376,9.376,9.2,9.2,0,0,0-1.029-4.253l1.606-1.458A11.285,11.285,0,0,1,541.669,470.992Z" transform="translate(-511.201 -442.117)"/><path class="a" d="M562.936,496.205l-9.069-9.707a3.707,3.707,0,0,1-5.282-1.654l-.453-.49a3.557,3.557,0,0,0-1.262-.858,18.86,18.86,0,0,0,.233-21.95l-1.924,1.765a16.15,16.15,0,0,1,2.745,9.057,16.395,16.395,0,1,1-5.944-12.611l1.924-1.74a18.966,18.966,0,1,0-4.008,31.35,3.718,3.718,0,0,0,.907,1.838l.453.478a3.65,3.65,0,0,0,.919.7,3.778,3.778,0,0,0,.38,4.682l9.069,9.719a7.7,7.7,0,0,0,5.393,2.451h.27a7.689,7.689,0,0,0,5.27-2.084,7.6,7.6,0,0,0,2.451-5.393A7.694,7.694,0,0,0,562.936,496.205Zm-19.793-6.287-.453-.478a1.036,1.036,0,0,1,.049-1.446l2.059-1.924a1.037,1.037,0,0,1,.7-.27h.037a.985.985,0,0,1,.711.319l.453.49a1.022,1.022,0,0,1-.049,1.434l-2.059,1.924a1.082,1.082,0,0,1-.735.282A1.048,1.048,0,0,1,543.143,489.918Zm17.648,15.344a5.151,5.151,0,0,1-7.28-.245l-9.069-9.707a1.233,1.233,0,0,1,.061-1.728l1.851-1.728,2.047-1.924h.012l1.851-1.728a1.177,1.177,0,0,1,.821-.319,1.215,1.215,0,0,1,.895.38l9.069,9.707a5.151,5.151,0,0,1-.257,7.292Z" transform="translate(-512.577 -443.493)"/><path class="a" d="M532.633,467.4l-.27.245-.576.515-2.059,1.875a1.293,1.293,0,0,1-1.74-1.912l2.083-1.887.576-.527.184-.159A4.674,4.674,0,0,1,532.633,467.4Z" transform="translate(-509.197 -440.754)"/><path class="a" d="M527.988,468.094l2.083-1.887.576-.527a4.388,4.388,0,0,1,1.716,1.936l-.576.515-2.059,1.875a1.293,1.293,0,0,1-1.74-1.912Z" transform="translate(-509.197 -440.725)"/><path class="a" d="M533.551,469.71a4.62,4.62,0,1,1-4.62-4.62,4.7,4.7,0,0,1,1.446.233l-2.365,2.133a2.338,2.338,0,1,0,3.15,3.456l2.059-1.875.245-.221A4.342,4.342,0,0,1,533.551,469.71Z" transform="translate(-509.93 -440.858)"/><path class="a" d="M559.375,451.4a1.512,1.512,0,0,0-.931-1.066l-2.856-1-.723-2.917a1.383,1.383,0,0,0-.956-1.029,1.4,1.4,0,0,0-1.373.306l-8.469,7.684a1.464,1.464,0,0,0-.453,1.36l.674,3.138-2.954,2.721-1.912,1.728-1.728,1.557-1.924,1.753-1.973,1.8-1.936,1.753-1.03.931-.184.159-.576.527-2.083,1.887a1.293,1.293,0,0,0,1.74,1.912l2.059-1.875.576-.515.27-.245.944-.846,1.949-1.777,1.973-1.789,1.937-1.765,1.716-1.556,1.912-1.74,2.966-2.721,3.064.968a1.455,1.455,0,0,0,1.373-.319l8.457-7.684A1.44,1.44,0,0,0,559.375,451.4Zm-10.148,6.655-.968-.306-1.446-.453-.306-1.446-.208-1.005,6.532-5.944.392,1.655.27.772,2.267.809Z" transform="translate(-509.197 -445.318)"/><path class="a" d="M559.375,451.4a1.512,1.512,0,0,0-.931-1.066l-2.856-1-.723-2.917a1.383,1.383,0,0,0-.956-1.029,1.4,1.4,0,0,0-1.373.306l-8.469,7.684a1.464,1.464,0,0,0-.453,1.36l.674,3.138-2.954,2.721-1.912,1.728-1.728,1.557-1.924,1.753-1.973,1.8-1.936,1.753-1.03.931-.184.159-.576.527-2.083,1.887a1.293,1.293,0,0,0,1.74,1.912l2.059-1.875.576-.515.27-.245.944-.846,1.949-1.777,1.973-1.789,1.937-1.765,1.716-1.556,1.912-1.74,2.966-2.721,3.064.968a1.455,1.455,0,0,0,1.373-.319l8.457-7.684A1.44,1.44,0,0,0,559.375,451.4Zm-10.148,6.655-.968-.306-1.446-.453-.306-1.446-.208-1.005,6.532-5.944.392,1.655.27.772,2.267.809Z" transform="translate(-509.197 -445.318)"/></svg>