<svg xmlns="http://www.w3.org/2000/svg" width="51.359" height="51.359" viewBox="0 0 51.359 51.359"><defs><style>.a{fill:#292929;}</style></defs><g transform="translate(-88.33 -459.054)"><path class="a" d="M135.478,459.054H92.541a4.217,4.217,0,0,0-4.211,4.212V506.2a4.215,4.215,0,0,0,4.211,4.21h42.937a4.215,4.215,0,0,0,4.211-4.21V463.266A4.217,4.217,0,0,0,135.478,459.054Zm2.211,47.149a2.213,2.213,0,0,1-2.211,2.21H92.541a2.213,2.213,0,0,1-2.211-2.21V472.029h47.359Zm0-36.174H90.33v-6.763a2.214,2.214,0,0,1,2.211-2.212h42.937a2.214,2.214,0,0,1,2.211,2.212Z"/><path class="a" d="M94.816,464.322a1.573,1.573,0,1,0,1.573,1.573A1.572,1.572,0,0,0,94.816,464.322Z"/><path class="a" d="M98.98,464.322a1.573,1.573,0,1,0,1.573,1.573A1.573,1.573,0,0,0,98.98,464.322Z"/><path class="a" d="M103.144,464.322a1.573,1.573,0,1,0,1.572,1.573A1.573,1.573,0,0,0,103.144,464.322Z"/><path class="a" d="M104.268,491.4h1.784a5.217,5.217,0,0,0,.584,1.344l-1.368,1.369a1.254,1.254,0,0,0,0,1.774l1.747,1.747a1.254,1.254,0,0,0,1.774,0l1.485-1.483a7.143,7.143,0,0,0,1.206.506v2.076a1.256,1.256,0,0,0,1.255,1.254h2.392a1.256,1.256,0,0,0,1.255-1.254v-2.076a7.214,7.214,0,0,0,1.206-.506l1.485,1.483a1.254,1.254,0,0,0,1.774,0l1.747-1.747a1.256,1.256,0,0,0,0-1.774l-1.368-1.369a5.232,5.232,0,0,0,.584-1.344h1.784a1.256,1.256,0,0,0,1.255-1.255v-2.367a1.256,1.256,0,0,0-1.255-1.255h-1.859a5.256,5.256,0,0,0-.572-1.358l1.316-1.315a1.257,1.257,0,0,0,0-1.775l-1.616-1.615a1.255,1.255,0,0,0-1.774,0l-1.354,1.354a5.948,5.948,0,0,0-1.243-.587v-2.074a1.256,1.256,0,0,0-1.255-1.255h-2.612a1.256,1.256,0,0,0-1.255,1.255v2.074a5.919,5.919,0,0,0-1.243.587l-1.355-1.355a1.256,1.256,0,0,0-1.774,0l-1.616,1.616a1.257,1.257,0,0,0,0,1.774l1.315,1.315a5.3,5.3,0,0,0-.572,1.358h-1.858a1.256,1.256,0,0,0-1.255,1.255v2.367A1.256,1.256,0,0,0,104.268,491.4Zm.286-3.335h1.8a1.242,1.242,0,0,0,1.226-.992,3.767,3.767,0,0,1,.538-1.274,1.253,1.253,0,0,0-.17-1.562l-1.274-1.275,1.21-1.21,1.315,1.314a1.27,1.27,0,0,0,1.589.154,4.33,4.33,0,0,1,1.2-.571,1.259,1.259,0,0,0,.923-1.209v-2h2.039v2a1.26,1.26,0,0,0,.923,1.209,4.319,4.319,0,0,1,1.2.571,1.267,1.267,0,0,0,1.588-.153l1.315-1.315,1.211,1.21-1.274,1.274a1.253,1.253,0,0,0-.17,1.563,3.776,3.776,0,0,1,.537,1.275,1.245,1.245,0,0,0,1.227.991h1.8v1.793H121.6a1.256,1.256,0,0,0-1.229.963,3.676,3.676,0,0,1-.541,1.244,1.237,1.237,0,0,0,.142,1.6L121.3,495l-1.342,1.341-1.432-1.431a1.26,1.26,0,0,0-1.5-.208,5.673,5.673,0,0,1-1.252.525,1.245,1.245,0,0,0-.935,1.211v2.008h-1.818v-2.008a1.246,1.246,0,0,0-.934-1.211,5.667,5.667,0,0,1-1.253-.524,1.256,1.256,0,0,0-1.5.207L107.9,496.34,106.56,495l1.333-1.333a1.237,1.237,0,0,0,.142-1.6,3.7,3.7,0,0,1-.541-1.242,1.254,1.254,0,0,0-1.228-.964h-1.712Z"/><path class="a" d="M113.855,493.172a4.23,4.23,0,1,0-3.536-6.515.682.682,0,0,0,.459,1.044.667.667,0,0,0,.671-.3,2.874,2.874,0,1,1-.363,2.226.668.668,0,0,0-.542-.5.683.683,0,0,0-.765.85A4.226,4.226,0,0,0,113.855,493.172Z"/><path class="a" d="M99.542,495.307a1,1,0,0,0,1.4-1.424l-4.916-4.847,4.929-5.049a1,1,0,1,0-1.431-1.4l-5.157,5.28a1.676,1.676,0,0,0,.023,2.36Z"/><path class="a" d="M131.785,489.036l-4.915,4.847a1,1,0,1,0,1.4,1.424l5.146-5.075a1.676,1.676,0,0,0,.023-2.361l-5.156-5.28a1,1,0,1,0-1.431,1.4Z"/></g></svg>