<svg xmlns="http://www.w3.org/2000/svg" width="68.315" height="62.975" viewBox="0 0 68.315 62.975"><defs><style>.a{fill:#f6ff00;}</style></defs><g transform="translate(21.695 16.26)"><path class="a" d="M475.919,234.26c-.476.582-.952,1.164-1.439,1.735-.352.42-.766.614-1.221.183-.435-.409-.29-.83.042-1.228.972-1.175,5.661-6.845,6.633-8.03.332-.409.714-.593,1.159-.195a.808.808,0,0,1,.021,1.229C480.639,228.579,476.416,233.667,475.919,234.26Z" transform="translate(-464.725 -226.503)"/><path class="a" d="M468.323,231.491c.915.952,1.8,1.857,2.663,2.761a3.812,3.812,0,0,1,.423.465c.446.7.27,1.052.141,1.26a.827.827,0,0,1-1.3.023c-1.255-1.283-2.511-2.591-3.743-3.911a.9.9,0,0,1,.07-1.32q1.778-1.925,3.591-3.837a.783.783,0,0,1,1.256-.061.9.9,0,0,1-.059,1.32c-.764.843-1.538,1.662-2.313,2.481C468.827,230.941,468.593,231.2,468.323,231.491Z" transform="translate(-466.246 -226.485)"/><path class="a" d="M485.683,231.276c-1-.953-1.879-1.906-2.805-2.8a4.169,4.169,0,0,1-.552-.563.861.861,0,0,1,.141-1.076.76.76,0,0,1,1.021-.049q2.007,1.98,3.861,4.131a.956.956,0,0,1,.235.6,1.017,1.017,0,0,1-.317.55c-1.162,1.32-2.383,2.554-3.6,3.813-.376.391-.833.55-1.244.086a.921.921,0,0,1,.07-1.381C483.488,233.562,484.473,232.535,485.683,231.276Z" transform="translate(-462.66 -226.477)"/></g><g transform="translate(0 0)"><path class="a" d="M510.118,213.236H455.285a6.893,6.893,0,0,0-6.741,7.02v35.075a6.892,6.892,0,0,0,6.741,7.019h17.34l-5.584,9.723a2.8,2.8,0,0,0-.031,2.753,2.583,2.583,0,0,0,2.284,1.386h26.813a2.583,2.583,0,0,0,2.286-1.386,2.8,2.8,0,0,0-.031-2.753l-5.584-9.723h17.34a6.891,6.891,0,0,0,6.741-7.019V220.256A6.893,6.893,0,0,0,510.118,213.236Zm-13.86,60.147a.173.173,0,0,1,0,.183.161.161,0,0,1-.153.093H469.294a.161.161,0,0,1-.152-.092.174.174,0,0,1,0-.184l6.335-11.033h14.443Zm18.15-18.052a4.386,4.386,0,0,1-4.289,4.466H455.285a4.386,4.386,0,0,1-4.29-4.466V220.256a4.386,4.386,0,0,1,4.29-4.467h54.834a4.386,4.386,0,0,1,4.289,4.467Z" transform="translate(-448.544 -213.236)"/><path class="a" d="M507.6,218.742H455.689a2.5,2.5,0,0,0-2.449,2.55v25.062a2.5,2.5,0,0,0,2.449,2.552H507.6a2.5,2.5,0,0,0,2.449-2.552V221.292A2.5,2.5,0,0,0,507.6,218.742Zm-51.9,27.612,0-25.059,51.9,0,0,25.061Z" transform="translate(-447.485 -211.994)"/></g></svg>