<svg xmlns="http://www.w3.org/2000/svg" width="59.984" height="62.554" viewBox="0 0 59.984 62.554"><defs><style>.a{fill:#f6ff00;}</style></defs><path class="a" d="M680.845,210.831h-8.169a.465.465,0,1,0,0,.93h8.169a.465.465,0,1,0,0-.93Z" transform="translate(-632.54 -206.646)"/><path class="a" d="M691.34,207.05H664.046a3.73,3.73,0,0,0-3.716,3.727v3.716a4,4,0,0,1,.648.116,6.362,6.362,0,0,1,2.269.961,6.922,6.922,0,0,1,.66.486h28.637v43.686H666.43v2.06h26.114v.776a1.21,1.21,0,0,1-1.2,1.2H666.419c0,.162-.012.313-.023.463a6.449,6.449,0,0,1-.532,2.06H691.34a3.73,3.73,0,0,0,3.716-3.727v-51.8A3.73,3.73,0,0,0,691.34,207.05Zm1.2,6.957H662.853v-3.23a1.191,1.191,0,0,1,1.192-1.192H691.34a1.2,1.2,0,0,1,1.2,1.192Z" transform="translate(-635.072 -207.05)"/><path class="a" d="M670.476,210.831a.465.465,0,1,0,.464.465A.465.465,0,0,0,670.476,210.831Z" transform="translate(-633.547 -206.646)"/><path class="a" d="M666.141,215.254a5.868,5.868,0,0,0-1.968-.833,5.423,5.423,0,0,0-1.32-.15H644.541a6.027,6.027,0,0,0-6.031,6.031v42.123a6.037,6.037,0,0,0,6.031,6.042h18.312a6.042,6.042,0,0,0,5.452-3.484,5.537,5.537,0,0,0,.544-1.979,4.567,4.567,0,0,0,.035-.579V220.3A6,6,0,0,0,666.141,215.254Zm-5.51,1.54c-.2,1.111-1.887,3.658-2.454,3.658h-8.948c-.579,0-2.28-2.558-2.466-3.658Zm5.73,45.63a1.272,1.272,0,0,1-.023.278,3.346,3.346,0,0,1-.544,1.644,3.518,3.518,0,0,1-2.94,1.6H644.541a3.515,3.515,0,0,1-3.507-3.519V220.3a3.512,3.512,0,0,1,3.507-3.507h.139c.127.914,1.945,5.707,4.549,5.707h8.948c2.593,0,4.41-4.792,4.526-5.707h.15a3.579,3.579,0,0,1,1.135.185,3.524,3.524,0,0,1,2.373,3.322Z" transform="translate(-638.51 -205.913)"/><path class="a" d="M655.207,218.069a.383.383,0,0,1-.37.382h-5.545a.385.385,0,0,1-.382-.382.233.233,0,0,1,.035-.127.356.356,0,0,1,.347-.232h5.545a.352.352,0,0,1,.336.232A.233.233,0,0,1,655.207,218.069Z" transform="translate(-636.872 -205.371)"/></svg>