<svg xmlns="http://www.w3.org/2000/svg" width="46.302" height="58.05" viewBox="0 0 46.302 58.05"><defs><style>.a{fill:#292929;}</style></defs><path class="a" d="M538.979,469.648a10.151,10.151,0,1,1-10.151-10.14,10.049,10.049,0,0,1,5.963,1.937l-1.429,1.3a8.089,8.089,0,0,0-4.534-1.374,8.284,8.284,0,1,0,8.279,8.279,8.122,8.122,0,0,0-.909-3.755l1.418-1.288A9.965,9.965,0,0,1,538.979,469.648Z" transform="translate(-512.076 -444.151)"/><path class="a" d="M557.045,491.2l-8.008-8.571a3.274,3.274,0,0,1-4.664-1.461l-.4-.433a3.141,3.141,0,0,0-1.115-.758,16.654,16.654,0,0,0,.206-19.383l-1.7,1.558a14.261,14.261,0,0,1,2.424,8,14.477,14.477,0,1,1-5.249-11.136l1.7-1.537A16.747,16.747,0,1,0,536.7,485.16a3.283,3.283,0,0,0,.8,1.623l.4.422a3.223,3.223,0,0,0,.812.617,3.336,3.336,0,0,0,.336,4.134l8.008,8.582a6.8,6.8,0,0,0,4.762,2.164h.238a6.79,6.79,0,0,0,4.654-1.84,6.714,6.714,0,0,0,2.164-4.762A6.8,6.8,0,0,0,557.045,491.2Zm-17.478-5.552-.4-.422a.915.915,0,0,1,.043-1.277l1.818-1.7a.916.916,0,0,1,.617-.238h.032a.87.87,0,0,1,.628.281l.4.433a.9.9,0,0,1-.043,1.266l-1.818,1.7a.955.955,0,0,1-.649.249A.925.925,0,0,1,539.568,485.647ZM555.152,499.2a4.549,4.549,0,0,1-6.428-.216l-8.008-8.571a1.088,1.088,0,0,1,.054-1.526l1.634-1.526,1.807-1.7h.011l1.634-1.526a1.04,1.04,0,0,1,.725-.281,1.073,1.073,0,0,1,.79.336l8.008,8.571a4.549,4.549,0,0,1-.227,6.439Z" transform="translate(-512.577 -444.653)"/><path class="a" d="M532.04,467.184l-.238.216-.509.455-1.818,1.656a1.141,1.141,0,0,1-1.537-1.688l1.84-1.667.509-.465.162-.141A4.127,4.127,0,0,1,532.04,467.184Z" transform="translate(-511.345 -443.655)"/><path class="a" d="M527.938,467.812l1.84-1.667.509-.465a3.874,3.874,0,0,1,1.515,1.71l-.509.455-1.818,1.656a1.141,1.141,0,0,1-1.537-1.688Z" transform="translate(-511.345 -443.644)"/><path class="a" d="M532.47,469.17a4.08,4.08,0,1,1-4.08-4.08,4.153,4.153,0,0,1,1.277.206l-2.089,1.883a2.065,2.065,0,1,0,2.781,3.052l1.818-1.656.216-.195A3.833,3.833,0,0,1,532.47,469.17Z" transform="translate(-511.612 -443.692)"/><path class="a" d="M555.654,450.688a1.335,1.335,0,0,0-.823-.942l-2.522-.887-.638-2.576a1.221,1.221,0,0,0-.844-.909,1.236,1.236,0,0,0-1.212.271l-7.478,6.786a1.293,1.293,0,0,0-.4,1.2l.6,2.77-2.608,2.4-1.688,1.526L536.51,461.7l-1.7,1.548-1.742,1.591-1.71,1.548-.909.822-.162.141-.509.465-1.84,1.667a1.141,1.141,0,0,0,1.537,1.688l1.818-1.656.509-.455.238-.216.833-.747,1.721-1.569,1.742-1.58,1.71-1.558,1.515-1.374,1.688-1.537,2.619-2.4,2.706.855a1.285,1.285,0,0,0,1.212-.281l7.467-6.786A1.272,1.272,0,0,0,555.654,450.688Zm-8.961,5.876-.855-.271-1.277-.4-.271-1.277-.184-.887,5.768-5.249.346,1.461.238.682,2,.714Z" transform="translate(-511.345 -445.318)"/><path class="a" d="M555.654,450.688a1.335,1.335,0,0,0-.823-.942l-2.522-.887-.638-2.576a1.221,1.221,0,0,0-.844-.909,1.236,1.236,0,0,0-1.212.271l-7.478,6.786a1.293,1.293,0,0,0-.4,1.2l.6,2.77-2.608,2.4-1.688,1.526L536.51,461.7l-1.7,1.548-1.742,1.591-1.71,1.548-.909.822-.162.141-.509.465-1.84,1.667a1.141,1.141,0,0,0,1.537,1.688l1.818-1.656.509-.455.238-.216.833-.747,1.721-1.569,1.742-1.58,1.71-1.558,1.515-1.374,1.688-1.537,2.619-2.4,2.706.855a1.285,1.285,0,0,0,1.212-.281l7.467-6.786A1.272,1.272,0,0,0,555.654,450.688Zm-8.961,5.876-.855-.271-1.277-.4-.271-1.277-.184-.887,5.768-5.249.346,1.461.238.682,2,.714Z" transform="translate(-511.345 -445.318)"/></svg>