<?xml version="1.0" encoding="UTF-8"?>
<svg width="71px" height="28px" viewBox="0 0 71 28" version="1.1" xmlns="http://www.w3.org/2000/svg" xmlns:xlink="http://www.w3.org/1999/xlink">
    <!-- Generator: Sketch 48.2 (47327) - http://www.bohemiancoding.com/sketch -->
    <title>icon-logo/icon-logo-light</title>
    <desc>Created with Sketch.</desc>
    <defs></defs>
    <g id="mobile-nav/white" stroke="none" stroke-width="1" fill="none" fill-rule="evenodd" transform="translate(-20.000000, -10.000000)">
        <g id="tablet-nav-white" transform="translate(20.000000, 10.000000)" fill="#ffffff">
            <g id="icon-logo/icon-logo-light">
                <g id="icon_logo">
                    <path d="M0,18.371 L3.266,18.371 L3.266,0.69 L0,0.69 L0,18.371 Z M23.678,13.191 C22.551,14.711 20.777,15.641 18.778,15.641 C15.598,15.641 12.725,12.966 12.725,9.531 C12.725,6.096 15.598,3.421 18.778,3.421 C20.777,3.421 22.495,4.351 23.621,5.983 L26.324,3.956 C24.354,1.479 21.594,0.324 18.778,0.324 C13.485,0.324 9.291,4.351 9.291,9.531 C9.291,14.711 13.485,18.737 18.778,18.737 C21.594,18.737 24.354,17.583 26.324,15.106 L23.678,13.191 Z M30.885,9.531 C30.885,14.711 35.08,18.737 40.373,18.737 C45.666,18.737 49.861,14.711 49.861,9.531 C49.861,4.351 45.666,0.324 40.373,0.324 C35.08,0.324 30.885,4.351 30.885,9.531 Z M34.319,9.531 C34.319,6.096 37.191,3.421 40.373,3.421 C43.555,3.421 46.426,6.096 46.426,9.531 C46.426,12.966 43.555,15.641 40.373,15.641 C37.191,15.641 34.319,12.966 34.319,9.531 Z M70.328,18.737 L70.328,5.087 L67.062,5.087 L67.062,11.529 L55.66,0.324 L55.66,18.371 L58.926,18.371 L58.926,7.532 L70.328,18.737 Z" id="Fill-1"></path>
                    <polygon id="Fill-2" points="67.059 3.968 70.344 3.968 70.344 0.684 67.059 0.684"></polygon>
                    <polyline id="Fill-3" points="24.103 22.872 25.078 22.872 26.215 25.848 27.358 23.144 28.518 25.848 29.639 22.872 30.623 22.872 28.518 28 27.358 25.088 26.15 28 24.103 22.872"></polyline>
                    <path d="M33.871,27.216 C34.599,27.216 35.127,26.656 35.127,25.96 C35.127,25.264 34.599,24.704 33.871,24.704 C33.143,24.704 32.614,25.264 32.614,25.96 C32.614,26.656 33.143,27.216 33.871,27.216 Z M33.871,23.92 C35.223,23.92 36.006,24.936 36.006,25.96 C36.006,26.983 35.223,28 33.871,28 C32.518,28 31.734,26.983 31.734,25.96 C31.734,24.936 32.518,23.92 33.871,23.92 Z" id="Fill-4"></path>
                    <path d="M37.975,24.023 L38.758,24.023 L38.758,24.448 L38.774,24.448 C38.91,24.128 39.198,23.92 39.534,23.92 C39.719,23.92 39.879,23.968 39.99,24.04 L39.694,24.864 C39.614,24.8 39.463,24.752 39.383,24.752 C39.078,24.752 38.807,24.983 38.807,25.336 L38.807,27.895 L37.975,27.895 L37.975,24.023" id="Fill-5"></path>
                    <path d="M42.543,22.872 L42.543,26.336 C42.543,26.784 42.639,26.944 42.887,27.088 L43.334,27.344 L42.967,28 C42.11,27.592 41.711,27.296 41.711,26.488 L41.711,22.872 L42.543,22.872" id="Fill-6"></path>
                    <path d="M46.799,27.216 C47.455,27.216 48.014,26.656 48.014,25.96 C48.014,25.264 47.455,24.704 46.799,24.704 C46.127,24.704 45.566,25.264 45.566,25.96 C45.566,26.656 46.127,27.216 46.799,27.216 Z M47.982,27.424 L47.967,27.424 C47.703,27.775 47.223,28 46.694,28 C45.422,28 44.687,26.96 44.687,25.96 C44.687,25.008 45.479,23.92 46.734,23.92 C47.311,23.92 47.75,24.168 47.967,24.496 L47.982,24.496 L47.982,22.872 L48.814,22.872 L48.814,27.895 L47.982,27.895 L47.982,27.424 Z" id="Fill-7"></path>
                    <polyline id="Fill-8" points="50.582 24.023 51.479 24.023 52.166 26.12 52.183 26.12 52.99 24.264 53.799 26.12 53.814 26.12 54.502 24.023 55.398 24.023 53.902 28 52.998 25.904 52.982 25.904 52.078 28 50.582 24.023"></polyline>
                    <path d="M57.183,27.895 L58.015,27.895 L58.015,24.023 L57.183,24.023 L57.183,27.895 Z M57.599,22.768 C57.854,22.768 58.063,22.976 58.063,23.232 C58.063,23.488 57.854,23.696 57.599,23.696 C57.342,23.696 57.135,23.488 57.135,23.232 C57.135,22.976 57.342,22.768 57.599,22.768 Z" id="Fill-9"></path>
                    <path d="M62.11,27.216 C62.767,27.216 63.326,26.656 63.326,25.96 C63.326,25.264 62.767,24.704 62.11,24.704 C61.438,24.704 60.879,25.264 60.879,25.96 C60.879,26.656 61.438,27.216 62.11,27.216 Z M63.295,27.424 L63.278,27.424 C63.014,27.775 62.534,28 62.006,28 C60.734,28 59.998,26.96 59.998,25.96 C59.998,25.008 60.791,23.92 62.047,23.92 C62.623,23.92 63.063,24.168 63.278,24.496 L63.295,24.496 L63.295,22.872 L64.127,22.872 L64.127,27.895 L63.295,27.895 L63.295,27.424 Z" id="Fill-10"></path>
                    <path d="M69.326,25.56 C69.15,24.968 68.711,24.656 68.183,24.656 C67.654,24.656 67.223,24.983 67.086,25.56 L69.326,25.56 Z M70.094,27.056 C69.631,27.64 68.99,27.992 68.295,28 C66.942,28 66.158,26.983 66.158,25.96 C66.158,24.936 66.942,23.92 68.295,23.92 C69.102,23.92 70.303,24.584 70.303,26.096 L70.303,26.248 L67.086,26.248 C67.135,26.84 67.686,27.264 68.271,27.264 C68.719,27.264 69.102,27.048 69.391,26.664 L70.094,27.056 Z" id="Fill-11"></path>
                </g>
            </g>
        </g>
    </g>
</svg>
