<svg xmlns="http://www.w3.org/2000/svg" width="48.524" height="56.368" viewBox="0 0 48.524 56.368"><defs><style>.a{fill:#f6ff00;}</style></defs><path class="a" d="M294.857,257.772h-6.738V226.137h4.423l.156-2.086H280.234l5.716-8.334H288.2l4.61,6.728.25-3.338-5.121-7.458-.323-.459h-1.1l-9.314,13.58V266.92h19.734V248.291l-2.086-2.535ZM279.3,226.137h6.738v31.636H279.3Zm15.562,38.7H279.3v-4.975h15.562Z" transform="translate(-277.209 -211.19)"/><path class="a" d="M324.826,255.545l-2.858-6.6a3.4,3.4,0,0,0-4.475-1.763l-.96.417L314.4,231.242,295.1,215.68l-1.585.678-.271,3.734-.25,3.327-.031.438-.146,2.086L291.7,241.089l2.535,3.077,2.086,2.535,5.862,7.124-.96.417a3.4,3.4,0,0,0-1.763,4.475l2.868,6.6a3.4,3.4,0,0,0,4.475,1.763l16.261-7.061A3.4,3.4,0,0,0,324.826,255.545ZM296.32,243.008l-2.086-2.535v-2.764l1.074-14.6.125-1.627,5.361,12.36a4.067,4.067,0,1,0,2.1-.918l-5.361-12.35,14.644,11.807,2.128,16.188-9.888,4.287Zm6.352-7.7a1.8,1.8,0,1,1-.928,2.357A1.8,1.8,0,0,1,302.672,235.31Zm19.484,22.613-16.271,7.061a1.106,1.106,0,0,1-1.46-.584l-2.868-6.6a1.1,1.1,0,0,1,.574-1.46l1.731-.751,12.809-5.559,1.731-.751a1.116,1.116,0,0,1,1.471.574l2.868,6.6A1.123,1.123,0,0,1,322.156,257.923Z" transform="translate(-276.585 -210.997)"/></svg>
