<svg xmlns="http://www.w3.org/2000/svg" xmlns:xlink="http://www.w3.org/1999/xlink" width="204" height="97" viewBox="0 0 204 97"><defs><style>.a{fill:#642525;stroke:#707070;}.b{clip-path:url(#a);}.c{fill:#e82130;}.d{fill:#2c51a3;}.e{fill:#323031;}</style><clipPath id="a"><rect class="a" width="204" height="97" transform="translate(141 2955)"/></clipPath></defs><g class="b" transform="translate(-141 -2955)"><g transform="translate(151 2995.887)"><path class="c" d="M26.921,3.381,25.109,6.7,21.66.38H43.381L34.331,16.96Z" transform="translate(-16.114 -0.283)"/><path class="d" d="M9.025,29.59l7.389,13.536,1.836-3.362,3.472,6.362H0Z" transform="translate(0 -22.014)"/><rect class="e" width="1.767" height="12.589" transform="translate(30.068 0.09)"/><path class="e" d="M136.617,16.215h-.036a6.483,6.483,0,0,0,.036-.678V13.968H134.94V22.99h1.731V19.3a5.46,5.46,0,0,1,.215-1.623,2.738,2.738,0,0,1,2.532-2.122,2.494,2.494,0,0,1,.5.054V13.9a2.9,2.9,0,0,0-3.3,2.32" transform="translate(-100.392 -10.311)"/><path class="e" d="M161.627,13.44a4.726,4.726,0,1,0,4.867,4.706,4.7,4.7,0,0,0-4.867-4.706m0,7.952a3.129,3.129,0,0,1-3.1-3.246,3.1,3.1,0,1,1,6.206,0,3.117,3.117,0,0,1-3.1,3.246" transform="translate(-116.625 -9.999)"/><path class="e" d="M206.774,13.44a3.669,3.669,0,0,0-3.387,2.069h-.036a6.342,6.342,0,0,0,.036-.661v-1.2H201.71v9.022h1.731V18.45a4.268,4.268,0,0,1,.143-1.214,2.954,2.954,0,0,1,2.852-2.21c1.444,0,1.713,1,1.713,2.266v5.384h1.731V16.9c-.005-2.3-.986-3.461-3.106-3.461" transform="translate(-150.067 -9.999)"/><path class="e" d="M248.183.35H244.01V12.939h4.173c3.851,0,6.383-2.32,6.383-6.314,0-3.976-2.532-6.275-6.383-6.275m-.125,11.055h-2.281V1.884h2.281c2.816,0,4.69,1.659,4.69,4.742,0,3.1-1.854,4.78-4.69,4.78" transform="translate(-181.537 -0.26)"/><path class="e" d="M295.511,13.44A4.422,4.422,0,0,0,291,18.166a4.594,4.594,0,0,0,4.777,4.724,5.37,5.37,0,0,0,3.495-1.283l-.714-1.267a4.3,4.3,0,0,1-2.675,1.052,2.949,2.949,0,0,1-3.1-2.978h6.58s.054-.517.054-.75c.005-2.332-1.352-4.224-3.9-4.224m-2.673,3.674a2.585,2.585,0,0,1,2.64-2.3,2.13,2.13,0,0,1,2.176,2.3Z" transform="translate(-216.496 -9.999)"/><rect class="e" width="1.746" height="1.587" transform="translate(104.256 0.09)"/><rect class="e" width="1.746" height="1.587" transform="translate(90.669 0.09)"/><path class="e" d="M331.137,3.39A1.716,1.716,0,0,1,333.026,1.5a2.5,2.5,0,0,1,.445.036V.054A3.681,3.681,0,0,0,332.811,0a3.073,3.073,0,0,0-3.387,3.351v.3H328.3v1.39h1.124v7.632h1.713V5.046h3.8v7.632h1.731V3.656h-5.528Z" transform="translate(-244.247)"/><path class="e" d="M373.274,21.392a3.124,3.124,0,0,1-3.19-3.246,3.072,3.072,0,0,1,3.139-3.208,3.654,3.654,0,0,1,2.5,1.034l.819-1.211a4.567,4.567,0,0,0-3.387-1.321,4.639,4.639,0,0,0-4.831,4.726,4.617,4.617,0,0,0,4.831,4.724,4.946,4.946,0,0,0,3.6-1.444l-.694-1.267a4.1,4.1,0,0,1-2.786,1.214" transform="translate(-274.021 -9.999)"/><rect class="e" width="1.731" height="9.022" transform="translate(104.274 3.656)"/><path class="e" d="M425.681,13.44a4.422,4.422,0,0,0-4.511,4.726,4.594,4.594,0,0,0,4.777,4.724,5.37,5.37,0,0,0,3.495-1.283l-.714-1.267a4.3,4.3,0,0,1-2.676,1.052,2.949,2.949,0,0,1-3.1-2.978h6.58s.054-.517.054-.75c0-2.332-1.354-4.224-3.9-4.224m-2.675,3.674a2.585,2.585,0,0,1,2.64-2.3,2.13,2.13,0,0,1,2.176,2.3Z" transform="translate(-313.34 -9.999)"/><path class="e" d="M466.444,13.44a3.669,3.669,0,0,0-3.387,2.069h-.036a6.339,6.339,0,0,0,.036-.661v-1.2H461.38v9.022h1.731V18.45a4.268,4.268,0,0,1,.143-1.214,2.954,2.954,0,0,1,2.852-2.21c1.444,0,1.713,1,1.713,2.266v5.384h1.731V16.9c0-2.3-.983-3.461-3.106-3.461" transform="translate(-343.255 -9.999)"/><path class="e" d="M504.924,21.392a3.124,3.124,0,0,1-3.19-3.246,3.072,3.072,0,0,1,3.139-3.208,3.653,3.653,0,0,1,2.5,1.034l.819-1.211A4.567,4.567,0,0,0,504.8,13.44a4.639,4.639,0,0,0-4.831,4.726A4.617,4.617,0,0,0,504.8,22.89a4.946,4.946,0,0,0,3.6-1.444l-.694-1.267a4.1,4.1,0,0,1-2.786,1.214" transform="translate(-371.965 -9.999)"/><path class="e" d="M539.8,20.192c-.161.463-.3,1.07-.3,1.07h-.036s-.161-.625-.338-1.088l-2.266-5.9H534.92l3.779,8.915-.445,1.034a1.843,1.843,0,0,1-1.623,1.319,2.014,2.014,0,0,1-1.052-.374l-.607,1.319a3.162,3.162,0,0,0,1.749.553,3.1,3.1,0,0,0,2.924-2.122l4.224-10.646H542Z" transform="translate(-397.967 -10.617)"/><path class="e" d="M591.91,20.437c-.049.041-.1.084-.164.128-.013.01-.028.018-.041.028q-.073.054-.154.108c-.023.015-.049.031-.072.049-.059.038-.123.077-.189.115-.021.01-.038.023-.059.033-.074.041-.156.082-.241.123-.033.015-.067.031-.1.044q-.1.042-.207.084l-.1.038c-.1.033-.2.064-.312.092-.031.008-.067.015-.1.02-.085.018-.172.033-.259.046l-.12.015a3.114,3.114,0,0,1-.351.02h-.028a3.126,3.126,0,0,1-3.193-3.246,3.072,3.072,0,0,1,3.139-3.208,3.653,3.653,0,0,1,2.5,1.034l.049-.072v0l.771-1.139a3.26,3.26,0,0,0-.535-.461c-.023-.015-.046-.031-.069-.049s-.054-.036-.084-.054-.067-.041-.1-.061l-.079-.046c-.061-.036-.128-.072-.195-.108l-.044-.02c-.059-.031-.12-.059-.184-.087l-.085-.036c-.054-.023-.11-.046-.169-.067-.031-.013-.064-.023-.095-.036-.064-.023-.133-.046-.2-.067-.026-.008-.051-.018-.079-.026-.095-.028-.189-.051-.292-.074l-.1-.02c-.072-.015-.146-.028-.22-.041-.044-.008-.087-.013-.133-.018-.072-.01-.143-.018-.218-.023l-.138-.013c-.1-.005-.2-.01-.3-.01l-.061,0a4.639,4.639,0,0,0-4.831,4.726h0a4.617,4.617,0,0,0,4.831,4.724c.136,0,.266-.005.394-.015l.072-.005c.12-.01.238-.023.351-.041a.033.033,0,0,0,.015,0c.123-.018.241-.041.353-.067a.27.27,0,0,0,.049-.013c.1-.023.2-.049.3-.079a.235.235,0,0,0,.033-.01c.1-.033.207-.067.307-.1l.02-.008q.134-.05.261-.108l.036-.015a4.87,4.87,0,0,0,.479-.248c.01-.008.023-.013.033-.02q.207-.127.369-.246l.031-.023.125-.1.018-.015.01-.008h0a3.318,3.318,0,0,0,.348-.323l-.7-1.267a2.018,2.018,0,0,1-.287.271" transform="translate(-434.823 -9.992)"/><path class="e" d="M625.467,13.44a4.726,4.726,0,1,0,4.867,4.706,4.7,4.7,0,0,0-4.867-4.706m0,7.952a3.129,3.129,0,0,1-3.1-3.246,3.1,3.1,0,1,1,6.206,0,3.117,3.117,0,0,1-3.1,3.246" transform="translate(-461.71 -9.999)"/><path class="e" d="M676.275,13.44a3.627,3.627,0,0,0-3.208,2.051h-.036a2.464,2.464,0,0,0-2.711-2.051,3.526,3.526,0,0,0-3.1,2.069h-.036a6.345,6.345,0,0,0,.036-.661v-1.2H665.54v9.022h1.731V18.558a4.942,4.942,0,0,1,.108-1.175,2.848,2.848,0,0,1,2.586-2.371c1.39,0,1.57,1.088,1.57,2.263v5.4h1.731V18.558a5.344,5.344,0,0,1,.125-1.247,2.81,2.81,0,0,1,2.532-2.3c1.354,0,1.605,1,1.605,2.263v5.4h1.731V16.9c-.005-2.3-.95-3.461-2.983-3.461" transform="translate(-495.145 -9.999)"/><rect class="e" width="1.746" height="1.587" transform="translate(146.257 11.091)"/></g></g></svg>