<svg xmlns="http://www.w3.org/2000/svg" xmlns:xlink="http://www.w3.org/1999/xlink" width="204" height="97" viewBox="0 0 204 97"><defs><style>.a{fill:#642525;stroke:#707070;}.b{clip-path:url(#a);}.c,.d{fill:#9036a8;}.d{stroke:#9036a8;stroke-miterlimit:10;stroke-width:0.25px;}</style><clipPath id="a"><rect class="a" width="204" height="97" transform="translate(428 2955)"/></clipPath></defs><g class="b" transform="translate(-428 -2955)"><g transform="translate(462 2973.238)"><g transform="translate(55.257 13.36)"><path class="c" d="M49.34,11.93v5.72H50.6V11.93Z" transform="translate(-49.34 -11.93)"/><path class="c" d="M56.8,15.374c-.069,0-.138,0-.212,0a1.155,1.155,0,0,0-.671.178,1.486,1.486,0,0,0-.459.543h-.02v-.632h-1.2v3.929h1.2V17.748a3.868,3.868,0,0,1,.035-.533,1.031,1.031,0,0,1,.138-.415.68.68,0,0,1,.306-.271,1.228,1.228,0,0,1,.548-.1,2.42,2.42,0,0,1,.267.02c.089.015.173.035.257.054V15.4A1.017,1.017,0,0,0,56.8,15.374Z" transform="translate(-51.816 -13.671)"/><path class="c" d="M64.81,16.579a1.947,1.947,0,0,0-.464-.647,2.1,2.1,0,0,0-.691-.415,2.4,2.4,0,0,0-.854-.138,2.47,2.47,0,0,0-.849.138,1.926,1.926,0,0,0-1.16,1.061,2.09,2.09,0,0,0-.173.849,2.012,2.012,0,0,0,.173.849,1.9,1.9,0,0,0,.464.647,1.954,1.954,0,0,0,.7.42,2.47,2.47,0,0,0,.849.138,2.623,2.623,0,0,0,.854-.138,2.062,2.062,0,0,0,.691-.42,1.947,1.947,0,0,0,.464-.647,2.012,2.012,0,0,0,.173-.849,2.061,2.061,0,0,0-.178-.849Zm-1.293,1.565a1.045,1.045,0,0,1-1.426,0,1.13,1.13,0,0,1,0-1.431,1.038,1.038,0,0,1,1.421,0A1.124,1.124,0,0,1,63.517,18.144Z" transform="translate(-55.052 -13.677)"/><path class="c" d="M74.956,16.478a1.63,1.63,0,0,0-.222-.592,1.153,1.153,0,0,0-.434-.395,1.659,1.659,0,0,0-.74-.133,1.234,1.234,0,0,0-.4.054,1.381,1.381,0,0,0-.331.138,1.267,1.267,0,0,0-.257.2,1.171,1.171,0,0,0-.158.227h-.02v-.538H71.23v3.929h1.209v-1.95a2.463,2.463,0,0,1,.03-.38,1.023,1.023,0,0,1,.1-.316.5.5,0,0,1,.222-.227.721.721,0,0,1,.38-.089.637.637,0,0,1,.365.1.732.732,0,0,1,.188.252,1.13,1.13,0,0,1,.069.336c.01.118.01.237.01.355V19.37h1.209V17.2a6.132,6.132,0,0,0-.054-.726Z" transform="translate(-60.426 -13.664)"/><path class="c" d="M54.375,33.1a2.478,2.478,0,0,0-.735-.893,2.979,2.979,0,0,0-1.076-.5,5.28,5.28,0,0,0-1.3-.148H49.37v5.72h2.058a3.93,3.93,0,0,0,1.219-.188,3.272,3.272,0,0,0,1.027-.548,2.663,2.663,0,0,0,.706-.883,2.786,2.786,0,0,0,.267-1.229A3.1,3.1,0,0,0,54.375,33.1Zm-1.2,2.093a1.49,1.49,0,0,1-.429.543,1.709,1.709,0,0,1-.656.291,3.144,3.144,0,0,1-.8.089h-.652V32.724h.74a2.991,2.991,0,0,1,.755.1,2.026,2.026,0,0,1,.632.306,1.368,1.368,0,0,1,.42.513,1.6,1.6,0,0,1,.158.726,1.983,1.983,0,0,1-.163.824Z" transform="translate(-49.355 -21.871)"/><path class="c" d="M65.585,37.058a2.626,2.626,0,0,0-.128-.849,1.882,1.882,0,0,0-.37-.656,1.615,1.615,0,0,0-.577-.415A2.121,2.121,0,0,0,63.744,35a2.623,2.623,0,0,0-.854.138,2.1,2.1,0,0,0-.691.415,1.986,1.986,0,0,0-.464.656,2.177,2.177,0,0,0,0,1.688,1.986,1.986,0,0,0,.464.656,2.15,2.15,0,0,0,.691.415,2.4,2.4,0,0,0,.854.138,2.257,2.257,0,0,0,.918-.2,1.984,1.984,0,0,0,.735-.573l-.849-.632a1.43,1.43,0,0,1-.355.355.963.963,0,0,1-.508.128.851.851,0,0,1-.6-.207.935.935,0,0,1-.311-.548h2.808Zm-2.808-.449a.8.8,0,0,1,.232-.518.921.921,0,0,1,.267-.163.965.965,0,0,1,.355-.064.718.718,0,0,1,.74.7V36.6Z" transform="translate(-55.531 -23.613)"/><path class="c" d="M72.907,31.724a.621.621,0,0,1,.434-.118,1.329,1.329,0,0,1,.2.015.979.979,0,0,1,.192.064l.059-1.027a2.714,2.714,0,0,0-.341-.054c-.118,0-.242-.015-.365-.015a2.312,2.312,0,0,0-.8.118,1.06,1.06,0,0,0-.464.355,1.335,1.335,0,0,0-.222.5,3.223,3.223,0,0,0-.054.617v.691H70.75v.972h.795V36.8h1.209V33.836h.9v-.972h-.9v-.617A.7.7,0,0,1,72.907,31.724Zm2.325-.6a.651.651,0,0,0-.489-.2.693.693,0,0,0-.5.2.7.7,0,1,0,1.194.494.754.754,0,0,0-.207-.494Zm-1.1,1.732v3.929h1.209V32.854Z" transform="translate(-60.183 -21.379)"/><path class="c" d="M84.45,37.951a.6.6,0,0,1-.341.089.934.934,0,0,1-.721-.281,1.157,1.157,0,0,1,0-1.431.934.934,0,0,1,.721-.281.688.688,0,0,1,.341.089.715.715,0,0,1,.257.212l.795-.839a1.487,1.487,0,0,0-.661-.4,2.421,2.421,0,0,0-.726-.114,2.623,2.623,0,0,0-.854.138,2.1,2.1,0,0,0-.691.415,1.986,1.986,0,0,0-.464.656,2.177,2.177,0,0,0,0,1.688,1.986,1.986,0,0,0,.464.656,2.1,2.1,0,0,0,.691.415,2.3,2.3,0,0,0,.854.138,2.4,2.4,0,0,0,.726-.114,1.533,1.533,0,0,0,.661-.4l-.795-.839A1.051,1.051,0,0,1,84.45,37.951Z" transform="translate(-65.847 -23.608)"/><path class="c" d="M91.409,31.465a.715.715,0,0,0-.992,0,.7.7,0,0,0,.987,1l0,0A.7.7,0,0,0,91.409,31.465ZM90.3,33.2v3.929h1.209V33.2Z" transform="translate(-70.038 -21.722)"/><path class="c" d="M98.718,37.058a2.367,2.367,0,0,0-.128-.849,1.951,1.951,0,0,0-.365-.656,1.678,1.678,0,0,0-.582-.415A2.02,2.02,0,0,0,96.877,35a2.615,2.615,0,0,0-.849.138,2.195,2.195,0,0,0-.7.415,2.038,2.038,0,0,0-.464.656,2.268,2.268,0,0,0,0,1.688,2.038,2.038,0,0,0,.464.656,2.289,2.289,0,0,0,.7.415,2.358,2.358,0,0,0,.849.138,2.179,2.179,0,0,0,.918-.2,2,2,0,0,0,.74-.573l-.849-.632a1.471,1.471,0,0,1-.365.355.963.963,0,0,1-.508.128.839.839,0,0,1-.592-.207.9.9,0,0,1-.311-.548h2.8Zm-2.8-.449a.78.78,0,0,1,.064-.281.913.913,0,0,1,.173-.237.825.825,0,0,1,.267-.163.873.873,0,0,1,.355-.064.688.688,0,0,1,.543.222.707.707,0,0,1,.207.518Z" transform="translate(-72.312 -23.613)"/><path class="c" d="M108.387,36.123a1.611,1.611,0,0,0-.212-.592,1.024,1.024,0,0,0-.434-.385,1.638,1.638,0,0,0-.75-.138,1.223,1.223,0,0,0-.4.054,1.268,1.268,0,0,0-.582.341.893.893,0,0,0-.158.227h-.02V35.1h-1.16v3.929h1.214V37.07a2.339,2.339,0,0,1,.03-.37.811.811,0,0,1,.1-.321.547.547,0,0,1,.222-.227.721.721,0,0,1,.38-.089.637.637,0,0,1,.365.1.573.573,0,0,1,.178.252.955.955,0,0,1,.079.336c0,.118,0,.237,0,.355V39.03h1.209V36.863A4.089,4.089,0,0,0,108.387,36.123Z" transform="translate(-77.361 -23.616)"/><path class="c" d="M116.675,37.951a.636.636,0,0,1-.355.089.913.913,0,0,1-.711-.281,1.13,1.13,0,0,1,0-1.431.913.913,0,0,1,.711-.281.758.758,0,0,1,.355.089.743.743,0,0,1,.252.212l.795-.839a1.566,1.566,0,0,0-.671-.4,2.421,2.421,0,0,0-.726-.114,2.623,2.623,0,0,0-.854.138,2.1,2.1,0,0,0-.691.415,1.986,1.986,0,0,0-.464.656,2.177,2.177,0,0,0,0,1.688,1.986,1.986,0,0,0,.464.656,2.1,2.1,0,0,0,.691.415,2.544,2.544,0,0,0,1.579.025,1.647,1.647,0,0,0,.671-.4l-.795-.839A1.3,1.3,0,0,1,116.675,37.951Z" transform="translate(-82.159 -23.608)"/><path class="c" d="M124.963,35.19l-.864,2.591h-.015l-1.012-2.591h-1.3l1.718,3.958-.094.227c-.044.109-.079.2-.114.286a.948.948,0,0,1-.138.207.718.718,0,0,1-.212.128,1.279,1.279,0,0,1-.336.044,1.474,1.474,0,0,1-.563-.118l-.163.992a2.817,2.817,0,0,0,.9.148,2.43,2.43,0,0,0,.706-.089,1.081,1.081,0,0,0,.434-.257,1.247,1.247,0,0,0,.291-.4c.069-.158.148-.341.227-.558l1.782-4.566Z" transform="translate(-86.021 -23.71)"/><path class="c" d="M54.375,52.73a2.478,2.478,0,0,0-.735-.893,2.979,2.979,0,0,0-1.076-.5,5.28,5.28,0,0,0-1.3-.148H49.37v5.72h2.058a3.93,3.93,0,0,0,1.219-.188,3.272,3.272,0,0,0,1.027-.548,2.727,2.727,0,0,0,.706-.883,2.856,2.856,0,0,0,.267-1.229A3.115,3.115,0,0,0,54.375,52.73Zm-1.2,2.088a1.49,1.49,0,0,1-.429.543,1.709,1.709,0,0,1-.656.291,3.143,3.143,0,0,1-.8.089h-.652V52.35h.74a2.991,2.991,0,0,1,.755.1,2.026,2.026,0,0,1,.632.306,1.323,1.323,0,0,1,.42.513,1.6,1.6,0,0,1,.158.726A1.937,1.937,0,0,1,53.175,54.817Z" transform="translate(-49.355 -31.812)"/><path class="c" d="M65.091,55.779a1.521,1.521,0,0,0-.286-.637,1.327,1.327,0,0,0-.548-.395,2.512,2.512,0,0,0-.879-.128,2.745,2.745,0,0,0-.933.158,2.16,2.16,0,0,0-.795.469l.647.661a1.386,1.386,0,0,1,.434-.341,1.177,1.177,0,0,1,.548-.128.814.814,0,0,1,.543.192.621.621,0,0,1,.227.513c-.163,0-.355,0-.543,0s-.395.025-.592.049a3.8,3.8,0,0,0-.573.118,1.777,1.777,0,0,0-.484.242,1.064,1.064,0,0,0-.341.385,1.269,1.269,0,0,0-.118.573,1.145,1.145,0,0,0,.114.528,1.086,1.086,0,0,0,.306.38,1.311,1.311,0,0,0,.449.237,1.746,1.746,0,0,0,.528.069A1.908,1.908,0,0,0,63.5,58.6a1.156,1.156,0,0,0,.533-.449h.015v.484h1.12V56.637a3.168,3.168,0,0,0-.079-.859Zm-1.032,1.4a.649.649,0,0,1-.069.321.761.761,0,0,1-.207.227,1.1,1.1,0,0,1-.3.133,1,1,0,0,1-.341.049.7.7,0,0,1-.385-.109.361.361,0,0,1-.188-.321.384.384,0,0,1,.128-.316.884.884,0,0,1,.331-.173,1.542,1.542,0,0,1,.395-.069c.138,0,.257,0,.341,0h.3Z" transform="translate(-55.447 -33.548)"/><path class="c" d="M73.3,54.82l-.869,2.6h-.015L71.4,54.82H70.1l1.718,3.958-.089.227c-.044.109-.089.2-.118.286a.709.709,0,0,1-.138.2.686.686,0,0,1-.212.138,1.279,1.279,0,0,1-.336.044,1.474,1.474,0,0,1-.563-.118l-.158.992a2.659,2.659,0,0,0,.9.148,2.43,2.43,0,0,0,.706-.089,1.1,1.1,0,0,0,.439-.257,1.371,1.371,0,0,0,.286-.4c.069-.158.148-.341.237-.558l1.777-4.566Z" transform="translate(-59.854 -33.651)"/></g><g transform="translate(55.433 43.34)"><path class="d" d="M115.977,90.086l-.276,1.594h.888V92.2h-.967l-.232,1.328h-.528l.227-1.328h-1.426l-.232,1.328H112.9l.227-1.328h-.819v-.518h.908l.276-1.594H112.6v-.518h.977l.227-1.3h.528l-.217,1.3h1.426l.227-1.3h.528l-.217,1.3h.809v.518h-.913Zm-1.964,0-.271,1.594h1.426l.271-1.594Z" transform="translate(-112.31 -88.043)"/><path class="d" d="M125.369,93.531h-.6V88.818H123V88.27h4.131v.548h-1.767v4.714Z" transform="translate(-117.724 -88.043)"/><path class="d" d="M131.423,91.745l-.173-.474a3.181,3.181,0,0,1,1.412-.321,1.449,1.449,0,0,1,1.653,1.565v2.374h-.558V94.3a1.7,1.7,0,0,1-1.407.666,1.305,1.305,0,0,1-1.451-1.219c0-.824.676-1.264,1.658-1.264a4.281,4.281,0,0,1,1.194.163v-.133c0-.7-.429-1.061-1.155-1.061A2.806,2.806,0,0,0,131.423,91.745Zm.064,1.984c0,.494.449.78.977.78a1.171,1.171,0,0,0,1.3-1.051v-.375a4,4,0,0,0-1.14-.163C131.9,92.919,131.487,93.235,131.487,93.729Z" transform="translate(-121.725 -89.4)"/><path class="d" d="M143.76,93.3h-.691l-1.392-1.811-.79.795V93.3h-.577V87.81h.577V91.6l2.1-2.187h.721l-1.629,1.668Z" transform="translate(-126.49 -87.81)"/><path class="d" d="M150.055,94.444a1.606,1.606,0,0,0,1.224-.548l.36.321a2.008,2.008,0,0,1-1.6.73,2.033,2.033,0,0,1-.074-4.057,1.852,1.852,0,0,1,1.811,2.058,1.228,1.228,0,0,1-.01.183h-3.08A1.364,1.364,0,0,0,150.055,94.444ZM151.19,92.7a1.278,1.278,0,0,0-1.239-1.323,1.339,1.339,0,0,0-1.264,1.323Z" transform="translate(-130.435 -89.37)"/><path class="d" d="M158.5,88.27v5.261h-.592V88.27Z" transform="translate(-135.403 -88.043)"/><path class="d" d="M162.617,94.877h-.577V90.993h.577V92.01a1.663,1.663,0,0,1,1.584-1.081v.622h-.044a1.565,1.565,0,0,0-1.54,1.782v1.545Z" transform="translate(-137.495 -89.389)"/><path class="d" d="M169.394,94.942a1.993,1.993,0,0,1-2.014-2.024,2.026,2.026,0,1,1,2.014,2.024Zm0-3.549a1.425,1.425,0,0,0-1.421,1.51,1.461,1.461,0,0,0,1.436,1.52,1.428,1.428,0,0,0,1.426-1.505A1.466,1.466,0,0,0,169.394,91.393Z" transform="translate(-140.199 -89.365)"/><path class="d" d="M178.277,94.858H177.7V90.974h.577v.676a1.475,1.475,0,0,1,1.328-.76,1.418,1.418,0,0,1,1.486,1.555v2.414h-.577v-2.27a1.034,1.034,0,0,0-1.076-1.17,1.145,1.145,0,0,0-1.165,1.219v2.221Z" transform="translate(-145.425 -89.37)"/><path class="d" d="M188.8,90.538c1.175.257,1.713.686,1.713,1.5,0,.908-.75,1.5-1.8,1.5a3.05,3.05,0,0,1-2.147-.844l.37-.434a2.5,2.5,0,0,0,1.8.745c.706,0,1.175-.37,1.175-.9,0-.494-.262-.775-1.367-1.007-1.209-.262-1.767-.652-1.767-1.525a1.547,1.547,0,0,1,1.727-1.441,2.756,2.756,0,0,1,1.851.647l-.345.459a2.307,2.307,0,0,0-1.52-.573c-.686,0-1.12.375-1.12.859S187.646,90.292,188.8,90.538Z" transform="translate(-149.918 -87.967)"/><path class="d" d="M198.285,94.444a1.606,1.606,0,0,0,1.224-.548l.36.321a2.008,2.008,0,0,1-1.6.73,2.033,2.033,0,0,1-.074-4.057,1.852,1.852,0,0,1,1.811,2.058,1.228,1.228,0,0,1-.01.183h-3.08A1.36,1.36,0,0,0,198.285,94.444ZM199.42,92.7a1.278,1.278,0,0,0-1.239-1.323,1.339,1.339,0,0,0-1.264,1.323Z" transform="translate(-154.86 -89.37)"/><path class="d" d="M206.407,94.877h-.577V90.993h.577V92.01a1.663,1.663,0,0,1,1.584-1.081v.622h-.044a1.565,1.565,0,0,0-1.54,1.782Z" transform="translate(-159.671 -89.389)"/><path class="d" d="M212.03,88.677V88.04h.661v.637Zm.035,4.738V89.531h.577v3.884Z" transform="translate(-162.811 -87.926)"/><path class="d" d="M217.524,94.942a1.993,1.993,0,0,1-2.014-2.024,2.026,2.026,0,1,1,2.014,2.024Zm0-3.549A1.425,1.425,0,0,0,216.1,92.9a1.461,1.461,0,0,0,1.436,1.52,1.428,1.428,0,0,0,1.426-1.505A1.463,1.463,0,0,0,217.524,91.393Z" transform="translate(-164.574 -89.365)"/><path class="d" d="M228.533,91.05h.573v3.884h-.573v-.676a1.481,1.481,0,0,1-1.328.76,1.418,1.418,0,0,1-1.486-1.555V91.05h.577v2.27a1.038,1.038,0,0,0,1.076,1.175,1.148,1.148,0,0,0,1.165-1.219V91.05Z" transform="translate(-169.744 -89.451)"/><path class="d" d="M236.169,94.942a2.655,2.655,0,0,1-1.609-.573l.291-.415a2.268,2.268,0,0,0,1.347.494c.464,0,.8-.242.8-.617v-.015c0-.39-.459-.543-.967-.686-.607-.173-1.283-.385-1.283-1.1v-.015a1.177,1.177,0,0,1,1.323-1.111,2.626,2.626,0,0,1,1.4.429l-.262.434a2.206,2.206,0,0,0-1.15-.375c-.459,0-.75.242-.75.563v.015c0,.37.479.513,1,.666.6.183,1.249.415,1.249,1.111v.015A1.234,1.234,0,0,1,236.169,94.942Z" transform="translate(-174.221 -89.38)"/><path class="d" d="M242.9,93.3V87.81h.577v5.484H242.9Z" transform="translate(-178.445 -87.81)"/><path class="d" d="M248.285,95.063c-.331.8-.706,1.1-1.293,1.1a1.753,1.753,0,0,1-.824-.2l.2-.459a1.2,1.2,0,0,0,.607.143c.345,0,.563-.183.795-.73L246,91.05h.637l1.412,3.238L249.3,91.05h.617Z" transform="translate(-180.015 -89.451)"/></g><g transform="translate(55.112 3.983)"><path class="d" d="M115.53,8.53h.577v5.261h-.474l-3.4-4.314v4.314h-.577V8.53h.558l3.312,4.215Z" transform="translate(-111.66 -8.303)"/><path class="d" d="M124.564,15.2a1.993,1.993,0,0,1-2.014-2.024,2.026,2.026,0,1,1,2.014,2.024Zm0-3.549a1.425,1.425,0,0,0-1.421,1.51,1.461,1.461,0,0,0,1.436,1.52A1.428,1.428,0,0,0,126,13.178,1.466,1.466,0,0,0,124.564,11.653Z" transform="translate(-117.175 -9.625)"/><path class="d" d="M134.437,11.31h.622l-1.693,3.914h-.513L131.17,11.31h.637l1.308,3.223Z" transform="translate(-121.54 -9.711)"/><path class="d" d="M141.445,14.7a1.606,1.606,0,0,0,1.224-.548l.36.321a2.008,2.008,0,0,1-1.6.73,1.934,1.934,0,0,1-1.94-2.029,1.92,1.92,0,0,1,1.866-2.029,1.852,1.852,0,0,1,1.811,2.058,1.228,1.228,0,0,1-.01.183h-3.08A1.36,1.36,0,0,0,141.445,14.7Zm1.135-1.747a1.278,1.278,0,0,0-1.239-1.323,1.339,1.339,0,0,0-1.264,1.323Z" transform="translate(-125.754 -9.63)"/><path class="d" d="M152.987,11.15a1.4,1.4,0,0,1,1.441,1.565v2.4h-.577v-2.27c0-.75-.375-1.17-1.007-1.17a1.088,1.088,0,0,0-1.076,1.2v2.241H151.2V12.838c0-.73-.385-1.155-1-1.155a1.126,1.126,0,0,0-1.081,1.224v2.216h-.577V11.239h.577v.652a1.417,1.417,0,0,1,1.254-.735,1.326,1.326,0,0,1,1.249.775A1.538,1.538,0,0,1,152.987,11.15Z" transform="translate(-130.337 -9.63)"/><path class="d" d="M164.623,13.637a1.745,1.745,0,0,1-1.486-.824v.745h-.577V8.07h.577v2.384a1.751,1.751,0,0,1,1.486-.864,1.9,1.9,0,0,1,1.856,2.024A1.9,1.9,0,0,1,164.623,13.637Zm-.1-3.529a1.509,1.509,0,0,0,0,3.011,1.374,1.374,0,0,0,1.367-1.5A1.4,1.4,0,0,0,164.519,10.108Z" transform="translate(-137.437 -8.07)"/><path class="d" d="M173.675,14.7a1.606,1.606,0,0,0,1.224-.548l.36.321a2.008,2.008,0,0,1-1.6.73,1.934,1.934,0,0,1-1.94-2.029,1.92,1.92,0,0,1,1.866-2.029,1.852,1.852,0,0,1,1.811,2.058,1.23,1.23,0,0,1-.01.183h-3.08A1.357,1.357,0,0,0,173.675,14.7Zm1.135-1.747a1.278,1.278,0,0,0-1.239-1.323,1.339,1.339,0,0,0-1.264,1.323Z" transform="translate(-142.076 -9.63)"/><path class="d" d="M181.337,15.127h-.577V11.243h.577V12.26a1.663,1.663,0,0,1,1.584-1.081V11.8h-.044a1.565,1.565,0,0,0-1.54,1.782v1.545Z" transform="translate(-146.654 -9.644)"/></g><path class="c" d="M72.338,52.757h0a3.049,3.049,0,0,0-2.142-.938h-.163a3.768,3.768,0,0,0-1.51.281,4.017,4.017,0,0,0-1.12.706,3.053,3.053,0,0,0-.721.992,3.217,3.217,0,0,0-.291,1.189h0v0H73.2a3.041,3.041,0,0,0-.864-2.236Z" transform="translate(-33.622 -26.243)"/><path class="c" d="M49.337,0H3.564A3.575,3.575,0,0,0,0,3.564V49.327a3.575,3.575,0,0,0,3.564,3.564H49.337A3.575,3.575,0,0,0,52.9,49.327V3.564A3.575,3.575,0,0,0,49.337,0ZM10.6,48.947H9.674V43.686H10.6v5.261Zm3.391-3.08h-.054c-.795,0-1.352.518-1.352,1.57v1.51h-.908V44.979h.908v.893a1.406,1.406,0,0,1,1.407-.967ZM16.3,49.036a2.052,2.052,0,0,1-2.1-2.058A2.079,2.079,0,0,1,16.317,44.9a2.056,2.056,0,0,1,2.112,2.068A2.079,2.079,0,0,1,16.3,49.036Zm6.387-.089h-.908V46.692c0-.617-.306-.967-.849-.967a.881.881,0,0,0-.893.982v2.241h-.908V44.979h.908V45.6a1.429,1.429,0,0,1,1.239-.7,1.362,1.362,0,0,1,1.412,1.525v2.527ZM25.621,19.6H14.669v4.95H24.807v4.95H14.669v9.477H9.314V14.669H25.626Zm19.1,12.64H32.768A4.114,4.114,0,0,0,34.111,34.6a3.78,3.78,0,0,0,2.537.879,3.844,3.844,0,0,0,2.152-.573,5.785,5.785,0,0,0,1.525-1.456l3.608,2.646A8.357,8.357,0,0,1,40.8,38.533a9.4,9.4,0,0,1-3.914.854,10.5,10.5,0,0,1-3.618-.617A8.653,8.653,0,0,1,30.32,37a8.155,8.155,0,0,1-1.974-2.769,9.353,9.353,0,0,1,0-7.206,8.155,8.155,0,0,1,1.974-2.764A8.653,8.653,0,0,1,33.271,22.5a10.386,10.386,0,0,1,3.618-.617,8.253,8.253,0,0,1,3.253.617,6.72,6.72,0,0,1,2.473,1.767,7.993,7.993,0,0,1,1.56,2.764,11.069,11.069,0,0,1,.558,3.608Zm.237-22.778h-3.8v-.73L42.97,7.2c.721-.607.982-.948.982-1.421a.79.79,0,0,0-.849-.819c-.479,0-.809.262-1.219.79l-.652-.513a2.156,2.156,0,0,1,1.94-1.106A1.57,1.57,0,0,1,44.91,5.706c0,.834-.434,1.283-1.367,2.043l-1.081.9h2.5v.814ZM47.7,9.56a1.989,1.989,0,0,1-1.466-.548A2.611,2.611,0,0,1,45.6,6.989c0-1.614.765-2.873,2.256-2.873a2.375,2.375,0,0,1,1.609.587l-.494.716a1.751,1.751,0,0,0-1.14-.459c-.78,0-1.219.706-1.264,1.668a1.82,1.82,0,0,1,3.095,1.13A1.833,1.833,0,0,1,47.7,9.56Z"/><path class="c" d="M31.8,92.58a1.192,1.192,0,0,0-1.194,1.268,1.226,1.226,0,0,0,1.209,1.283,1.2,1.2,0,0,0,1.2-1.268A1.234,1.234,0,0,0,31.8,92.58Z" transform="translate(-15.502 -46.885)"/><path class="c" d="M95.466,13.93a.97.97,0,0,0-1.066.933.981.981,0,0,0,1.091.953.95.95,0,1,0-.025-1.885Z" transform="translate(-47.807 -7.055)"/></g></g></svg>