<svg xmlns="http://www.w3.org/2000/svg" xmlns:xlink="http://www.w3.org/1999/xlink" width="204" height="97" viewBox="0 0 204 97"><defs><style>.a{fill:#fff;stroke:#262626;opacity:0;}.b{clip-path:url(#a);}.c{fill:#f30617;}</style><clipPath id="a"><rect class="a" width="204" height="97" transform="translate(449 2966)"/></clipPath></defs><g class="b" transform="translate(-449 -2966)"><path class="c" d="M837.059,241.545c0,.181-.442,1.056-1,2.6a19.975,19.975,0,0,0-1.155,6.7,44.635,44.635,0,0,0,.757,6.024l-1,1.355a11.186,11.186,0,0,1-2.591-7.861c0-5.278,3.211-8.955,4.869-8.955C837.04,241.412,837.059,241.462,837.059,241.545Zm44.471,14.828a4.524,4.524,0,0,1,.273,1.4c0,.508-.178,1.009-.534,1.009-.23,0-.5-.276-.5-.723A3.789,3.789,0,0,1,881.53,256.372Zm-45.6,2.137a32.655,32.655,0,0,1,.484,4.527c0,2.989-1.009,6.461-2.722,6.44-.662,0-1.227-.653-1.25-1.8A14.639,14.639,0,0,1,835.934,258.509Zm51.429-6.8a5.488,5.488,0,0,0-.97,3.18c0,2.617,1.5,5.1,4.4,5.1,2.8,0,4.789-2.215,4.789-5.3a6.718,6.718,0,0,0-.095-1.388,7.047,7.047,0,0,0,1.647-1.05,1.639,1.639,0,0,1,.875-.449c.283,0,.408.232.408.636v6.1c0,.981.318,1.449,1.094,1.449a1.7,1.7,0,0,0,1.5-1.085c1.033-2.144,2.534-5.015,3.182-6.1.161-.239.273-.427.366-.427.14,0,.194.094.194.482v4.865c0,1.366.641,2.268,2.005,2.268,1.435,0,2.152-1.381,3.4-3.495a.6.6,0,0,0,.086-.307.443.443,0,0,0-.482-.426c-.3,0-.451.284-1.374,1.31-.195.177-.394.449-.719.449-.123,0-.228-.135-.228-.343v-5.423c0-1.471-.662-2.071-1.492-2.071a2.112,2.112,0,0,0-1.839,1.163,53.649,53.649,0,0,0-2.76,4.887c-.064.113-.159.312-.223.312s-.08-.1-.08-.312v-3.979c0-1.154-.318-2.071-1.533-2.071-1.287,0-1.946.887-2.871,1.53a11.488,11.488,0,0,1-1.531.941,3.261,3.261,0,0,0-2.738-2.376,1.564,1.564,0,0,0-1.664,1.622,2.149,2.149,0,0,0,1.459,2.064,4.09,4.09,0,0,0,1.536.208,2.21,2.21,0,0,0,.482-.031,4.7,4.7,0,0,1,.052,1.09,2.768,2.768,0,0,1-2.591,3.043c-1.756,0-2.776-1.679-2.776-3.594a5.357,5.357,0,0,1,1.136-3.515c.294-.31.513-.5.513-.8,0-.132-.218-.177-.408-.177a8.341,8.341,0,0,0-3.4.993,21.124,21.124,0,0,0-3.747,2.683c-.56-1.236-1.253-2.336-1.587-3.182-.138-.333-.218-.721-.475-.721-.206,0-.313.213-.472.636a38.527,38.527,0,0,1-4.21,7.125c-.064.083-.145.187-.18.187-.069,0-.1-.019-.1-.227v-5.423c0-1.471-.586-2.071-1.4-2.071a2.11,2.11,0,0,0-1.848,1.163c-1.018,1.549-2.266,3.826-2.872,4.958-.08.171-.178.241-.214.241s-.066-.137-.066-.312v-3.979c0-1.471-.589-2.071-1.4-2.071a2.059,2.059,0,0,0-1.88,1.163c-1.314,2.208-3.512,5.6-3.908,6.161-.062.085-.116.165-.18.17s-.09-.054-.09-.205v-5.218c0-1.471-.589-2.071-1.412-2.071-1.12,0-1.73,1.038-2.162,1.681-.557.908-1.3,2.13-1.891,3.243a5.415,5.415,0,0,1-.871,1.438c-.074,0-.074-.284-.074-.815v-4.159a11.557,11.557,0,0,0,3.194-7.786c0-1.69-.747-2.629-1.912-2.629-2.164,0-3.79,3.369-3.79,7.344v3.246a8.422,8.422,0,0,1-3.108,1.15c-.586-1.731-1.839-2.632-2.836-2.617a1.559,1.559,0,0,0-1.65,1.622c0,1.655,1.618,2.331,3.057,2.331h.4a5.244,5.244,0,0,1,.062,1,2.768,2.768,0,0,1-2.587,3.043c-1.754,0-2.781-1.679-2.781-3.594a5.3,5.3,0,0,1,1.153-3.515,1.561,1.561,0,0,0,.493-.8c0-.132-.218-.177-.408-.177-1.177,0-3.8,1.6-6.921,4.7a62.4,62.4,0,0,1-.586-7.271,26.969,26.969,0,0,1,.652-5.547,7.851,7.851,0,0,0,.092-.82c0-.258-.135-.392-.472-.392-2.532,0-8.083,4.017-8.083,10.011,0,4.27,1.561,6.319,4.269,8.979-1.637,2.636-2.971,5.775-2.971,8.579,0,2.04.484,3.556,1.974,3.556,3.118,0,5.461-6.475,5.461-11.272,0-1.424-.052-2.846-.178-4.3a20.747,20.747,0,0,1,3.37-3.011,7.236,7.236,0,0,0-.313,1.988c0,2.617,1.5,5.1,4.4,5.1,2.717,0,4.777-2.215,4.777-5.3,0-.393-.031-.733-.052-1.111a8.25,8.25,0,0,0,2.783-.96v6.258a1.023,1.023,0,0,0,1.08,1.116c.717,0,1.082-.494,1.628-1.639.441-.945,1.616-3.09,2.333-4.366.557-.993.868-1.648,1.129-1.648.064,0,.133.154.133.52v5.329c0,1.442.74,1.8,1.393,1.8a1.68,1.68,0,0,0,1.431-.9c1.644-2.31,3.36-5.038,4.039-6.232.128-.21.273-.366.41-.366.119,0,.18.073.18.463v5.587c0,.981.316,1.449,1.092,1.449a1.625,1.625,0,0,0,1.461-1.085c1.037-2.144,2.573-4.986,3.214-6.1.156-.239.327-.466.417-.466.128,0,.159.154.159.561v5.288c0,1.442.738,1.8,1.409,1.8.871,0,1.429-.624,1.993-1.324,1.03-1.364,2.53-3.749,3.439-5.272a14.223,14.223,0,0,1,.942,1.738,5.184,5.184,0,0,0-1.512,3.024,1.718,1.718,0,0,0,1.657,1.835,3.034,3.034,0,0,0,2.743-3.26,6.633,6.633,0,0,0-.493-2.277A11.079,11.079,0,0,1,887.363,251.708Zm-31.7-4.583c0-4.618.914-5.316,1.189-5.316.5,0,.555.294.555,2.071a10.542,10.542,0,0,1-1.745,5.539Zm-8.685,4.509a.392.392,0,0,1,.423-.437c.387,0,1,.437,1.341,1.3C847.59,252.493,846.98,252.251,846.98,251.634Zm45.134,0a.4.4,0,0,1,.434-.437c.411,0,1.032.437,1.365,1.3-.123,0-.318.043-.43.043C892.738,252.535,892.113,252.181,892.113,251.634Zm25.166,5.147a8.376,8.376,0,0,1-1.41.078c-1.215,0-2.119-.487-2.119-1.156,0-.44.22-.691.842-.691C915.589,255.012,916.394,255.7,917.279,256.781Zm6.153.315a19.085,19.085,0,0,0,2.06,2.251c-1.661,2.636-2.983,5.775-2.983,8.579,0,2.04.482,3.556,1.981,3.556,3.111,0,5.463-6.475,5.463-11.272,0-1.424-.064-2.846-.19-4.3a20.2,20.2,0,0,1,3.372-3.011,7.614,7.614,0,0,0-.316,1.988c0,2.617,1.5,5.1,4.414,5.1,2.708,0,4.77-2.215,4.77-5.3,0-.393-.036-.733-.067-1.111a8.008,8.008,0,0,0,2.784-.96v6.258a1.026,1.026,0,0,0,1.082,1.116c.736,0,1.1-.494,1.628-1.639.453-.945,1.625-3.09,2.352-4.366.557-.993.871-1.648,1.124-1.648.062,0,.126.154.126.52v5.329c0,1.442.745,1.8,1.4,1.8a1.756,1.756,0,0,0,1.449-.9c1.619-2.31,3.332-5.038,4.023-6.232.116-.21.275-.366.391-.366.133,0,.187.073.187.463v5.587c0,.981.325,1.449,1.1,1.449a1.653,1.653,0,0,0,1.467-1.085c1.039-2.144,2.565-4.986,3.206-6.1.157-.239.325-.466.429-.466s.147.154.147.561v5.288c0,1.442.735,1.8,1.4,1.8a2.653,2.653,0,0,0,2.005-1.324c1.044-1.364,2.523-3.749,3.424-5.272a13.271,13.271,0,0,1,.947,1.738,5.178,5.178,0,0,0-1.5,3.024,1.713,1.713,0,0,0,1.659,1.835,3.037,3.037,0,0,0,2.729-3.26,6.3,6.3,0,0,0-.494-2.277,11.232,11.232,0,0,1,3.939-2.747,5.488,5.488,0,0,0-.968,3.18c0,2.617,1.5,5.1,4.4,5.1,2.828,0,4.77-2.215,4.77-5.3a7.2,7.2,0,0,0-.083-1.388,6.767,6.767,0,0,0,1.656-1.05,1.622,1.622,0,0,1,.873-.449c.283,0,.411.232.411.636v6.1c0,.981.311,1.449,1.094,1.449a1.678,1.678,0,0,0,1.5-1.085c1.021-2.144,2.518-5.015,3.182-6.1.166-.239.282-.427.368-.427.137,0,.2.094.2.482v4.865c0,1.366.62,2.268,1.993,2.268,1.441,0,2.167-1.381,3.417-3.495a.827.827,0,0,0,.086-.307.457.457,0,0,0-.5-.426c-.289,0-.453.284-1.386,1.31-.178.177-.368.449-.717.449-.121,0-.2-.135-.2-.343v-5.423c0-1.471-.664-2.071-1.5-2.071a2.132,2.132,0,0,0-1.849,1.163,52.549,52.549,0,0,0-2.743,4.887c-.073.113-.147.312-.232.312-.059,0-.069-.1-.069-.312v-3.979c0-1.154-.318-2.071-1.545-2.071-1.281,0-1.938.887-2.869,1.53a11.788,11.788,0,0,1-1.545.941,3.258,3.258,0,0,0-2.741-2.376,1.56,1.56,0,0,0-1.649,1.622,2.15,2.15,0,0,0,1.462,2.064,4.083,4.083,0,0,0,1.54.208,2.342,2.342,0,0,0,.488-.031,6.3,6.3,0,0,1,.038,1.09,2.776,2.776,0,0,1-2.605,3.043c-1.739,0-2.762-1.679-2.762-3.594a5.37,5.37,0,0,1,1.144-3.515c.275-.31.5-.5.5-.8,0-.132-.223-.177-.389-.177a8.265,8.265,0,0,0-3.406.993,20.691,20.691,0,0,0-3.756,2.683c-.56-1.236-1.232-2.336-1.587-3.182-.126-.333-.211-.721-.482-.721-.211,0-.306.213-.453.636a38.517,38.517,0,0,1-4.221,7.125c-.064.083-.157.187-.188.187-.054,0-.086-.019-.086-.227v-5.423c0-1.471-.6-2.071-1.4-2.071a2.115,2.115,0,0,0-1.86,1.163c-1.02,1.549-2.271,3.826-2.857,4.958-.095.171-.188.241-.221.241s-.067-.137-.067-.312v-3.979c0-1.471-.593-2.071-1.4-2.071a2.027,2.027,0,0,0-1.87,1.163c-1.322,2.208-3.507,5.6-3.909,6.161-.052.085-.114.165-.187.17-.054,0-.1-.054-.1-.205v-5.218c0-1.471-.6-2.071-1.4-2.071-1.125,0-1.751,1.038-2.143,1.681-.569.908-1.315,2.13-1.922,3.243a5.891,5.891,0,0,1-.861,1.438c-.066,0-.066-.284-.066-.815v-4.159a11.6,11.6,0,0,0,3.185-7.786c0-1.69-.747-2.629-1.912-2.629-2.153,0-3.8,3.369-3.8,7.344v3.246a8.465,8.465,0,0,1-3.1,1.15c-.589-1.731-1.842-2.632-2.829-2.617a1.562,1.562,0,0,0-1.656,1.622c0,1.655,1.614,2.331,3.056,2.331h.394a4.154,4.154,0,0,1,.079,1,2.774,2.774,0,0,1-2.606,3.043c-1.729,0-2.769-1.679-2.769-3.594a5.414,5.414,0,0,1,1.153-3.515c.271-.31.506-.581.506-.8,0-.132-.235-.177-.421-.177-1.179,0-3.8,1.6-6.931,4.7a65.154,65.154,0,0,1-.591-7.271,26.848,26.848,0,0,1,.665-5.547,5.817,5.817,0,0,0,.09-.82c0-.258-.121-.392-.47-.392-2.53,0-8.087,4.017-8.087,10.011a10.488,10.488,0,0,0,1.461,5.731,5.6,5.6,0,0,0-.864-.05,10.579,10.579,0,0,0-2.529.383v-.624c0-1.352-.313-3.189-.893-3.8a.267.267,0,0,0-.232-.108,2.091,2.091,0,0,0-.911.326c-.371.175-.748.371-.748.487,0,.071,0,.116.1.284a4.58,4.58,0,0,1,1.019,2.392,5.117,5.117,0,0,0-3.863-1.527c-1.877,0-2.437.83-2.437,1.678,0,1.639,2.153,2.442,4.874,2.442a7.09,7.09,0,0,0,1.616-.236c0,.5.064.936.064,1.317,0,.535.083.932.453.932.525,0,.828-1.055.878-2.584a13.246,13.246,0,0,1,2.824-.466A9.223,9.223,0,0,1,923.432,257.1Zm5.2-15.551c0,.181-.429,1.056-1,2.6a19.844,19.844,0,0,0-1.156,6.7,48.136,48.136,0,0,0,.745,6.024l-.987,1.355a11.231,11.231,0,0,1-2.584-7.861c0-5.278,3.216-8.955,4.853-8.955C928.61,241.412,928.631,241.462,928.631,241.545Zm44.477,14.828a4.083,4.083,0,0,1,.282,1.4c0,.508-.2,1.009-.534,1.009-.254,0-.506-.276-.506-.723A3.785,3.785,0,0,1,973.107,256.372Zm-45.587,2.137a32.562,32.562,0,0,1,.458,4.527c0,2.989-1,6.461-2.715,6.44-.654,0-1.212-.653-1.243-1.8A14.7,14.7,0,0,1,927.52,258.509Zm19.729-11.384c0-4.618.892-5.316,1.187-5.316.5,0,.557.294.557,2.071a10.607,10.607,0,0,1-1.744,5.539Zm-8.716,4.509a.409.409,0,0,1,.432-.437c.417,0,1.005.437,1.352,1.3C939.152,252.493,938.533,252.251,938.533,251.634Zm45.145,0a.411.411,0,0,1,.442-.437,1.8,1.8,0,0,1,1.366,1.3c-.112,0-.292.043-.432.043C984.312,252.535,983.678,252.181,983.678,251.634Z" transform="translate(-364.57 2760.131)"/></g></svg>