<svg xmlns="http://www.w3.org/2000/svg" width="75.266" height="80.401" viewBox="0 0 75.266 80.401"><defs><style>.a{fill:none;stroke:#292929;}</style></defs><g transform="translate(0.5 0.5)"><g transform="translate(0 0)"><path class="a" d="M16.781,46.357V14.8a19.831,19.831,0,0,1,.18-2.842A6.39,6.39,0,0,1,22.51,6.635c.9-.09,1.8-.113,2.707-.113q25.41,0,50.8-.023c2.639,0,5.188.248,6.835,2.617a6.672,6.672,0,0,1,1.263,3.271c.158,4.263.158,8.5.09,12.767-.023,1.2.316,1.624,1.511,1.827a6.446,6.446,0,0,1,5.3,6.226c.045,2.1.023,4.218.023,6.316V78.906a6.639,6.639,0,0,1-6.88,6.947q-29.605.068-59.211.023a11.686,11.686,0,0,1-4.647-.9,5.7,5.7,0,0,1-3.406-5.1c-.068-.789-.09-1.6-.09-2.391C16.758,67.109,16.781,56.733,16.781,46.357Zm37.2,27.812V55.921c0-7.218-.023-14.436.023-21.632.023-4.895,2.684-7.489,7.556-7.489,4.218-.023,8.414,0,12.632,0h1.8c0-3.023-.045-5.865.023-8.707.045-1.286-.429-1.6-1.647-1.6q-23.82.068-47.639,0c-1.308,0-1.579.451-1.579,1.647q.034,27.135,0,54.248c0,1.466.451,1.872,1.872,1.85,8.414-.068,16.827-.023,25.241-.023C52.736,74.169,53.232,74.169,53.976,74.169Zm3.316-3.541H87.721V38.575c-.564-.045-1.06-.09-1.534-.09-9.068,0-18.135.023-27.2-.045-1.421,0-1.737.451-1.737,1.8.045,9.609.023,19.241.023,28.85C57.292,69.59,57.292,70.064,57.292,70.628ZM53.863,77.35h-29.1c-2.639,0-2.91-.271-2.91-2.955V16.222c0-2.707.338-3.045,3.023-3.045h52.15c1.556.068,2.165.654,2.211,2.211.045,1.759.023,3.5.023,5.256v6.09c.677-.045,1.15-.068,1.647-.09,0-4.692.068-9.248-.045-13.8-.045-1.827-1.105-2.8-2.91-3.09a11.07,11.07,0,0,0-1.94-.135H25.059c-3.835,0-5.053,1.218-5.053,5.008V77.756c0,3.586,1.2,4.782,4.782,4.782H53.051c.519,0,1.038-.045,1.579-.068-.2-.947-.383-1.714-.519-2.5C54,79.222,53.954,78.41,53.863,77.35ZM57.292,74.1c0,1.624-.023,3.158,0,4.692.068,2.391,1.331,3.789,3.7,3.812,7.714.045,15.406.045,23.12,0a3.323,3.323,0,0,0,3.564-2.82,52.905,52.905,0,0,0,.045-5.684ZM87.63,35.169c.519-3.406-.9-5.1-4.218-5.1-7.263-.023-14.5,0-21.767,0a8.015,8.015,0,0,0-1.038.068c-2.662.383-3.835,2.346-3.023,5.03Z" transform="translate(-16.775 -6.5)"/></g></g></svg>