<svg xmlns="http://www.w3.org/2000/svg" width="28.482" height="24.949" viewBox="0 0 28.482 24.949"><defs><style>.a{fill:#292929;}</style></defs><g transform="translate(0 0)"><path class="a" d="M32.5,247.87a5.016,5.016,0,0,0-2.948-4.58,8.412,8.412,0,0,0-7.35-.016c-.121.057-.137.048-.194.024a8.689,8.689,0,0,0-7.463,0,.206.206,0,0,1-.1.008,8.618,8.618,0,0,0-6.429-.428,5.018,5.018,0,0,0-3.853,4.168,18.686,18.686,0,0,0-.121,2.924c.008.388.008.792,0,1.187a.624.624,0,0,0,.63.646,2.263,2.263,0,0,0,.234.008H31.634c.452,0,.864-.1.864-.775,0-.275,0-.541.008-.816C32.522,249.453,32.531,248.653,32.5,247.87Zm-20.887,1.817c0,.234.008.468.008.7v.048H5.408v-.695c-.008-.7-.016-1.438.04-2.14a3.516,3.516,0,0,1,2.068-3.021,7.18,7.18,0,0,1,5.694-.331,4.782,4.782,0,0,0-1.333,2.213,7.159,7.159,0,0,0-.242,1.518C11.6,248.556,11.611,249.13,11.611,249.687Zm1.365.073c0-.678-.008-1.381.04-2.068a3.52,3.52,0,0,1,1.947-3.037,6.826,6.826,0,0,1,6.591-.032,3.582,3.582,0,0,1,2.019,3.207c.032.654.024,1.3.016,1.979,0,.2-.008.412-.008.63h-10.6Zm11.962-.372c-.008-.194-.008-.4-.008-.582a14.154,14.154,0,0,0-.081-1.648,4.82,4.82,0,0,0-1.494-2.908,5.549,5.549,0,0,1,1.422-.339,7.007,7.007,0,0,1,4.232.646,3.822,3.822,0,0,1,2.157,3.53c.016.6.008,1.187.008,1.809v.541H24.954v-.113C24.946,250.01,24.946,249.7,24.938,249.388Z" transform="translate(-4.038 -226.862)"/><path class="a" d="M136.3,145.76a3.572,3.572,0,0,0,3.53,3.546h.008a3.554,3.554,0,1,0-2.488-6.074A3.584,3.584,0,0,0,136.3,145.76Zm3.546,2.181a2.172,2.172,0,0,1-2.173-2.213,2.138,2.138,0,0,1,.654-1.543,2.193,2.193,0,0,1,1.551-.622h.016a2.189,2.189,0,0,1-.048,4.378Z" transform="translate(-125.617 -134.719)"/><path class="a" d="M230.094,145.692a3.572,3.572,0,0,0,3.481,3.6h.065a3.543,3.543,0,0,0,2.48-1.01,3.5,3.5,0,0,0,1.082-2.472,3.549,3.549,0,0,0-3.505-3.626,3.442,3.442,0,0,0-2.488.977A3.553,3.553,0,0,0,230.094,145.692Zm3.554,2.237h0a2.174,2.174,0,0,1-1.551-.638,2.193,2.193,0,0,1,1.527-3.748h.008a2.193,2.193,0,0,1,1.559,3.74A2.1,2.1,0,0,1,233.648,147.929Z" transform="translate(-211.835 -134.707)"/><path class="a" d="M46.07,149.306h0a3.558,3.558,0,0,0,3.538-3.538,3.57,3.57,0,0,0-3.538-3.57,3.547,3.547,0,0,0-2.528,6.058A3.55,3.55,0,0,0,46.07,149.306Zm0-5.743a2.15,2.15,0,0,1,1.535.638,2.187,2.187,0,0,1-1.543,3.74h0a2.193,2.193,0,0,1-1.567-.654,2.187,2.187,0,0,1,1.575-3.723Z" transform="translate(-39.394 -134.719)"/><path class="a" d="M186.862,56.7h0a3.544,3.544,0,0,0,3.538-3.53,3.544,3.544,0,0,0-3.53-3.57h-.016a3.538,3.538,0,0,0-2.5,1.026,3.5,3.5,0,0,0-1.05,2.5,3.544,3.544,0,0,0,3.562,3.57Zm-2.213-3.538a2.211,2.211,0,0,1,2.2-2.2h.008a2.146,2.146,0,0,1,1.527.638,2.207,2.207,0,0,1,.654,1.567,2.221,2.221,0,0,1-2.181,2.2h0a2.18,2.18,0,0,1-1.559-.646A2.21,2.21,0,0,1,184.649,53.162Z" transform="translate(-168.821 -49.6)"/><path class="a" d="M93.046,56.7h0a3.55,3.55,0,1,0-.016-7.1h-.008a3.552,3.552,0,0,0-2.488,6.058A3.492,3.492,0,0,0,93.046,56.7Zm0-5.743a2.2,2.2,0,0,1,1.559.654,2.153,2.153,0,0,1,.646,1.535,2.224,2.224,0,0,1-2.2,2.2,2.164,2.164,0,0,1-1.535-.638,2.193,2.193,0,0,1,1.535-3.756Z" transform="translate(-82.597 -49.6)"/></g></svg>