<svg xmlns="http://www.w3.org/2000/svg" xmlns:xlink="http://www.w3.org/1999/xlink" width="204" height="97" viewBox="0 0 204 97"><defs><style>.a{fill:#fff;stroke:#262626;opacity:0;}.b{clip-path:url(#a);}.c{fill:#0e274d;}.d{fill:url(#b);}.e{opacity:0.8;fill:url(#c);}</style><clipPath id="a"><rect class="a" width="204" height="97" transform="translate(1271 2961)"/></clipPath><linearGradient id="b" y1="0.5" x2="1" y2="0.5" gradientUnits="objectBoundingBox"><stop offset="0" stop-color="#ffd400"/><stop offset="0.072" stop-color="#eecf01" stop-opacity="0.953"/><stop offset="0.223" stop-color="#c3c304" stop-opacity="0.835"/><stop offset="0.387" stop-color="#91b508" stop-opacity="0.694"/><stop offset="1" stop-color="#fff" stop-opacity="0.788"/></linearGradient><radialGradient id="c" cx="-27.893" cy="1.591" r="0.5" gradientTransform="matrix(0.997, -0.075, 0.075, 0.997, -0.181, -1.897)" gradientUnits="objectBoundingBox"><stop offset="0" stop-color="#2d8a30" stop-opacity="0.761"/><stop offset="0.094" stop-color="#43922a" stop-opacity="0.788"/><stop offset="0.291" stop-color="#7baa1b" stop-opacity="0.863"/><stop offset="0.573" stop-color="#d6ce03" stop-opacity="0.98"/><stop offset="0.618" stop-color="#e5d500"/><stop offset="0.653" stop-color="#e5d609" stop-opacity="0.961"/><stop offset="0.709" stop-color="#e8da24" stop-opacity="0.859"/><stop offset="0.78" stop-color="#ede24f" stop-opacity="0.69"/><stop offset="0.863" stop-color="#f3eb8b" stop-opacity="0.455"/><stop offset="0.955" stop-color="#faf8d6" stop-opacity="0.157"/><stop offset="1" stop-color="#fff" stop-opacity="0"/></radialGradient></defs><g class="b" transform="translate(-1271 -2961)"><g transform="translate(1311.409 3377.621)"><path class="c" d="M57.77-337.322l-1.484-8.216h-.769v8.216H52.655V-356.8h2.862c3.393,0,4.877,1.961,4.877,5.619,0,1.935-.5,3.684-1.59,4.426l1.829,9.436Zm-2.253-16.645v5.778c.8,0,2.12-.106,2.12-2.889S56.313-353.967,55.517-353.967Z" transform="translate(-35.465 -15.184)"/><path class="c" d="M85.8-337.593c-3.843,0-3.817-4.214-3.817-4.214v-11.477S81.956-357.5,85.8-357.5s3.817,4.214,3.817,4.214v11.477S89.643-337.593,85.8-337.593Zm0-17.122c-1.007,0-.954,1.431-.954,1.431v11.477s-.053,1.431.954,1.431.954-1.431.954-1.431v-11.477S86.807-354.715,85.8-354.715Z" transform="translate(-55.833 -14.702)"/><path class="c" d="M110.876-339.946s1.537.318,1.537-1.431V-356.8h2.862v15.876c0,2.094-1.007,3.976-4.4,3.791Z" transform="translate(-75.9 -15.184)"/><path class="c" d="M130.484-356.8h6.547v2.942h-3.684v5.116H136v3.128h-2.65v5.354h3.684v2.942h-6.547Z" transform="translate(-89.518 -15.184)"/><path class="d" d="M26.014-364.082a31.12,31.12,0,0,0,3.611,2.27c.358.2.741.383,1.129.579s.8.377,1.22.558.856.36,1.3.541l.685.251.348.126.356.116c.951.319,1.956.6,3.005.849s2.151.424,3.282.586l.858.1.433.048.438.032.883.064.9.031c.15,0,.3.013.451.014l.455,0,.883,0,.481-.017.24-.009.208-.018.419-.034.441-.053A19.678,19.678,0,0,0,55-360.445a33.714,33.714,0,0,0,3.325-2.082c1.089-.762,2.16-1.581,3.216-2.438s2.107-1.736,3.15-2.633l3.145-2.691a64.909,64.909,0,0,1,6.572-5A25.9,25.9,0,0,1,78-377.251a19.355,19.355,0,0,1,1.9-.719,16.124,16.124,0,0,1,1.953-.481,13.264,13.264,0,0,1,1.965-.209c.162-.01.325-.006.487-.006h.242l.166,0,.107.007.85.056.836.055c.276.018.545.031.839.075.575.073,1.137.144,1.686.224a24.6,24.6,0,0,1,5.734,1.674A15.621,15.621,0,0,1,98.7-374.13a11.351,11.351,0,0,1,2.01,2.219,6.78,6.78,0,0,1,.415.688l.1.194.035.076-.835.417a6.363,6.363,0,0,0-.58-.693,11.163,11.163,0,0,0-2.061-1.681,15.317,15.317,0,0,0-3.756-1.744,25.222,25.222,0,0,0-5.31-1.015c-.49-.022-.988-.055-1.494-.088-.245-.024-.524-.019-.8-.018l-.837,0-.852,0H84.62c-.02,0,.072,0,.022,0l-.024,0-.047,0-.19.012c-.126.009-.253.013-.381.031a12.327,12.327,0,0,0-1.539.257,15.044,15.044,0,0,0-3.111,1.137,25.046,25.046,0,0,0-3.091,1.826,64.866,64.866,0,0,0-6.082,4.923l-3.1,2.736c-1.055.915-2.127,1.835-3.239,2.727s-2.258,1.758-3.451,2.57a37.15,37.15,0,0,1-3.729,2.236,26.232,26.232,0,0,1-4.032,1.66,20.827,20.827,0,0,1-2.1.544c-.352.078-.708.132-1.061.192s-.709.1-1.064.13l-.531.047-.552.027-.275.012-.244,0-.482,0h-.1l-.063,0-.125-.005-.25-.01-.5-.021-.495-.021c-.164-.009-.328-.025-.492-.038l-.974-.079-.96-.114-.475-.057-.47-.074-.931-.15a32.774,32.774,0,0,1-6.722-2.015,29.668,29.668,0,0,1-5.184-2.822,18.6,18.6,0,0,1-2.847-2.12Z" transform="translate(-16.768 0)"/><path class="c" d="M253.154-356.708h2.861v19.465h-2.861Z" transform="translate(-174.713 -15.25)"/><path class="c" d="M272.707-353.874v5.773c.795,0,2.12-.105,2.12-2.887S273.5-353.874,272.707-353.874Zm2.251,16.631-1.483-8.209h-.768v8.209h-2.86v-19.465h2.86c3.39,0,4.873,1.961,4.873,5.615,0,1.933-.5,3.681-1.589,4.423l1.827,9.428Z" transform="translate(-186.306 -15.25)"/><path class="c" d="M300.908-356.708h6.541v2.939h-3.681v5.111h2.649v3.126h-2.649v5.349h3.681v2.939h-6.541Z" transform="translate(-207.879 -15.25)"/><path class="c" d="M333.1-353.769H329.15v5.111H331.8v2.941H329.15v8.474h-2.86v-19.465H333.1Z" transform="translate(-225.507 -15.25)"/><path class="c" d="M351.773-356.708h2.861v16.817h3.788v2.649h-6.649Z" transform="translate(-243.205 -15.25)"/><path class="c" d="M372.761-350.483l.079.185h.053l.079-.185,1.43-6.225h2.808L374.3-345.531v8.289h-2.859v-8.289l-2.913-11.177h2.807Z" transform="translate(-254.838 -15.25)"/><path class="c" d="M233.248-353.769H229.3v5.111h2.648v2.941H229.3v8.474h-2.861v-19.465h6.807Z" transform="translate(-156.161 -15.25)"/><path class="c" d="M23.5-356.8h2.862c2.491,0,5.036,1.352,5.036,5.831s-2.544,5.858-5.036,5.858v7.792H23.5Zm2.862,8.773c1.8,0,2.147-.663,2.147-2.836s-.345-3.021-2.147-3.021Z" transform="translate(-15.218 -15.184)"/><path class="c" d="M163.281-344.484v2.677s.027,4.214-3.817,4.214-3.817-4.214-3.817-4.214v-11.477s-.026-4.214,3.817-4.214,3.817,4.214,3.817,4.214v2.677H160.6v-2.677s.106-1.431-1.087-1.431c-1.007,0-1.007,1.431-1.007,1.431v11.477s0,1.431,1.007,1.431c1.193,0,1.087-1.431,1.087-1.431v-2.677Z" transform="translate(-106.994 -14.702)"/><path class="c" d="M182.458-353.861V-356.8h8.269v2.942h-2.7v16.539h-2.862v-16.539Z" transform="translate(-125.614 -15.184)"/><path class="e" d="M10.441-348.584a4.422,4.422,0,0,1-4.361,4.49,4.426,4.426,0,0,1-4.49-4.364,4.422,4.422,0,0,1,4.362-4.487A4.422,4.422,0,0,1,10.441-348.584Z" transform="translate(0 -17.863)"/></g></g></svg>