<svg xmlns="http://www.w3.org/2000/svg" xmlns:xlink="http://www.w3.org/1999/xlink" width="204" height="97" viewBox="0 0 204 97"><defs><style>.a{fill:#fff;stroke:#262626;opacity:0;}.b{clip-path:url(#a);}.c,.d{fill:#00286e;}.c{font-size:5px;font-family:Gotham-Light, Gotham;font-weight:300;letter-spacing:0.015em;}.e{fill:#0052a0;}.f{fill:#ffd400;}.g{fill:url(#b);}</style><clipPath id="a"><rect class="a" width="204" height="97" transform="translate(1277 3086)"/></clipPath><radialGradient id="b" cx="0.5" cy="0.5" r="0.486" gradientTransform="translate(-0.029 0) scale(1.059 1)" gradientUnits="objectBoundingBox"><stop offset="0" stop-color="#0052a0"/><stop offset="0.517" stop-color="#00509e"/><stop offset="0.703" stop-color="#004a97"/><stop offset="0.836" stop-color="#00408b"/><stop offset="0.942" stop-color="#00327a"/><stop offset="1" stop-color="#00286e"/></radialGradient></defs><g class="b" transform="translate(-1277 -3086)"><g transform="translate(1281.924 3122.575)"><text class="c" transform="translate(40.4 26.988)"><tspan x="0" y="0">Saut: The Voice of Down Syndrome Society</tspan></text><g transform="translate(40.459 7.149)"><path class="d" d="M138.014,32.39h.768v3.94c0,2.915-1.55,4.864-4.139,4.864-2.474,0-4.067-1.948-4.067-4.864a7.009,7.009,0,0,1,.313-1.963h.882a5.414,5.414,0,0,0-.384,1.963c0,2.19,1.18,4.082,3.257,4.082,2.19,0,3.371-1.892,3.371-4.082Zm-2.845,2.432h-.9v-.967h.9Z" transform="translate(-130.576 -29.503)"/><path class="d" d="M166,38.733a3.061,3.061,0,0,1-3.157-3.072A3.156,3.156,0,0,1,166,32.39h2.446v6.358a2.3,2.3,0,0,1-2.6,2.432,4.117,4.117,0,0,1-1.408-.384l-.085-.711a2.866,2.866,0,0,0,1.408.37,1.68,1.68,0,0,0,1.92-1.721Zm1.678-.725V33.1H166a2.406,2.406,0,0,0-2.3,2.432,2.356,2.356,0,0,0,2.3,2.474Z" transform="translate(-152.843 -29.503)"/><path class="d" d="M188.3,32.3h-.768v-9.23h.768Z" transform="translate(-169.885 -23.073)"/><path class="d" d="M199.847,34.437c-.086-1.053-.583-1.379-1.48-1.379-.811,0-1.479.242-1.578,1.109h-.825a2.125,2.125,0,0,1,2.4-1.82c1.422,0,2.276.654,2.276,2.119V38.7h-4.85v-.725h4.054Z" transform="translate(-175.585 -29.473)"/><path class="d" d="M226.621,32.56a2.334,2.334,0,0,1-2.19-2.46c.043-2.162,1.764-2.944,4.224-2.773v-.612l.769-.242.014,4.38a1.579,1.579,0,0,0,1.692,1.707h.783v.725h-.982a2.062,2.062,0,0,1-2.2-1.949A2.331,2.331,0,0,1,226.621,32.56Zm.128-.682c2.076,0,1.934-2.276,1.9-3.84-.924.028-3.3-.313-3.427,2.048C225.2,30.6,225.512,31.878,226.749,31.878Zm.114-7.382h-.9v.967h.9Zm1.949,0h-.9v.967h.9Z" transform="translate(-195.349 -24.055)"/><path class="d" d="M248.344,38.007v-.725h1.137a1.589,1.589,0,0,0,1.692-1.763v-.782a3.012,3.012,0,1,1,5.974,0,3.12,3.12,0,0,1-2.987,3.4,2.733,2.733,0,0,1-2.461-1.379,2.023,2.023,0,0,1-2.034,1.251Zm5.817-5.973c-1.551,0-2.191,1.507-2.191,2.7s.64,2.7,2.191,2.7,2.161-1.408,2.161-2.7C256.322,33.541,255.711,32.034,254.161,32.034Z" transform="translate(-211.853 -28.776)"/><path class="d" d="M282.975,25.96h.767v6.358a2.509,2.509,0,0,1-2.6,2.432,3.323,3.323,0,0,1-1.408-.384s-.042-.355-.085-.711a3.056,3.056,0,0,0,1.408.37,1.838,1.838,0,0,0,1.92-1.707Zm.81-1.934h-.9v-.953h.9Z" transform="translate(-233.457 -23.073)"/><path class="d" d="M299.2,32.3h-1.963l.384-.725h1.408L296.992,23.3h.768l1.991,8.15a1.6,1.6,0,0,0,.953-1.621V23.073h.767v6.4a1.883,1.883,0,0,0,1.935,2.1h.384V32.3h-.256a2.473,2.473,0,0,1-2.248-1.408A2,2,0,0,1,299.2,32.3Z" transform="translate(-245.428 -23.073)"/><path class="d" d="M318.565,33.285V32.56h1.167a1.572,1.572,0,0,0,1.692-1.749V27.4h.768v3.058a1.891,1.891,0,0,0,1.935,2.1h.583v.725h-.456a2.473,2.473,0,0,1-2.247-1.408,1.984,1.984,0,0,1-2.077,1.408Zm1.72-7.822h-.9V24.5h.9Zm1.949,0h-.9V24.5h.9Z" transform="translate(-260.316 -24.055)"/><path class="d" d="M338.163,38.007v-.725H339.3a1.59,1.59,0,0,0,1.693-1.763v-.782a3.011,3.011,0,1,1,5.972,0,3.119,3.119,0,0,1-2.986,3.4,2.733,2.733,0,0,1-2.46-1.379,2.023,2.023,0,0,1-2.034,1.251Zm5.817-5.973c-1.55,0-2.19,1.507-2.19,2.7s.639,2.7,2.19,2.7,2.162-1.408,2.162-2.7C346.142,33.541,345.53,32.034,343.98,32.034Z" transform="translate(-273.842 -28.776)"/><path class="d" d="M382.549,38.733a2.8,2.8,0,0,1-2.986-2.247,2.733,2.733,0,0,1,.5-2.12c.171.143.4.342.526.441a2.1,2.1,0,0,0-.3,1.636,2.125,2.125,0,0,0,2.148,1.564h5.021a1.572,1.572,0,0,0,1.692-1.749V32.39h.767v3.755a2.257,2.257,0,0,1-2.261,2.588Zm1.749-4.75h-.9V33.03h.9Zm1.963,0h-.9V33.03h.9Z" transform="translate(-302.385 -29.503)"/><path class="d" d="M424.452,38.733v.015a2.3,2.3,0,0,1-2.6,2.432,4.108,4.108,0,0,1-1.408-.384s-.043-.355-.085-.711a2.862,2.862,0,0,0,1.408.37,1.681,1.681,0,0,0,1.92-1.721h-1.678a3.061,3.061,0,0,1-3.157-3.072,3.155,3.155,0,0,1,3.157-3.272h2.446v5.618h2.091v.725Zm-.768-.725V33.1h-1.678a2.406,2.406,0,0,0-2.3,2.432,2.356,2.356,0,0,0,2.3,2.474Z" transform="translate(-329.527 -29.503)"/><path class="d" d="M443.492,38.579h2.048V34.214h.768l-.171,1.849a4.815,4.815,0,0,1,4.636-2.844c1.707,0,3.655.967,3.655,3.172a2.882,2.882,0,0,1-3.157,2.915h-7.78Zm7.78,0a2.232,2.232,0,0,0,2.319-2.19A2.59,2.59,0,0,0,450.9,33.9a4.685,4.685,0,0,0-4.821,4.678Z" transform="translate(-346.535 -30.075)"/><path class="d" d="M493.967,32.56a2.334,2.334,0,0,1-2.19-2.46c.043-2.162,1.763-2.944,4.224-2.773v-.612l.768-.242.014,4.38a1.58,1.58,0,0,0,1.692,1.707h.782v.725h-.981a2.061,2.061,0,0,1-2.2-1.949A2.329,2.329,0,0,1,493.967,32.56Zm.128-.682c2.077,0,1.934-2.276,1.906-3.84-.925.028-3.3-.313-3.427,2.048C492.545,30.6,492.858,31.878,494.1,31.878Zm.113-7.382h-.9v.967h.9Zm1.949,0h-.9v.967h.9Z" transform="translate(-379.858 -24.055)"/><path class="d" d="M515.506,39.748v-.725h1.166a1.572,1.572,0,0,0,1.692-1.749V33.861h.768v3.058a1.891,1.891,0,0,0,1.934,2.1h.583v.725h-.455a2.473,2.473,0,0,1-2.248-1.408,1.983,1.983,0,0,1-2.076,1.408Zm1.735,2.474h-.9v-.967h.9Zm1.949,0h-.9v-.967h.9Z" transform="translate(-396.235 -30.518)"/><path class="d" d="M542.741,34.2a9.172,9.172,0,0,1-2.588,2.93,2.987,2.987,0,0,0,.967.156h2.915v.725h-2.673a4.224,4.224,0,0,1-1.891-.469,4.162,4.162,0,0,1-1.878.469h-2.673v-.725h2.916a3.131,3.131,0,0,0,.967-.156,8.834,8.834,0,0,1-2.589-2.93,3.293,3.293,0,0,1,6.528,0Zm-3.271,2.631a6.127,6.127,0,0,0,2.418-2.8,2.443,2.443,0,0,0-4.822,0A6.072,6.072,0,0,0,539.47,36.826Z" transform="translate(-409.633 -28.776)"/><path class="d" d="M564.454,39.434a1.675,1.675,0,0,0,1.707-1.707,3.155,3.155,0,0,1,2.987-3.271,3.118,3.118,0,0,1,3,3.229,1.773,1.773,0,0,0,1.82,1.749h.726v.725h-.612a2.554,2.554,0,0,1-2.077-1.208,2.922,2.922,0,0,1-2.858,2.3,2.856,2.856,0,0,1-2.745-1.948,2.069,2.069,0,0,1-1.82.853h-.612v-.725Zm4.694-4.28c-1.537,0-2.162,1.521-2.162,2.7s.625,2.7,2.162,2.7,2.176-1.508,2.176-2.7S570.7,35.153,569.148,35.153Z" transform="translate(-429.682 -30.929)"/><path class="d" d="M598.164,38.733v-.725h7.168l.014-.81c.029-1.891-.824-4.082-3.186-4.082a2.019,2.019,0,0,0-2.276,1.678h-.725c.128-1.664,1.493-2.4,3-2.4,2.787,0,3.968,2.276,3.968,4.808v1.536Zm4.423,2.461h-.9v-.967h.9Z" transform="translate(-453.281 -29.503)"/></g><path class="e" d="M22.514,66.489a7.525,7.525,0,0,1,1.873-4.447,3.227,3.227,0,0,0-3-.508,5.346,5.346,0,0,0-3.052,3.292,3.325,3.325,0,0,0-.192,1.761c.045.156.152.137.254.282a26.157,26.157,0,0,0,3.971,2.367A14.74,14.74,0,0,1,22.514,66.489Z" transform="translate(-12.482 -42.352)"/><path class="d" d="M41.179,59.074a4.855,4.855,0,0,0-3.309,1.381A7.657,7.657,0,0,0,35.882,64.9a14.714,14.714,0,0,0-.145,2.747,7.128,7.128,0,0,0,.11.921,3.009,3.009,0,0,0,1.243.728,9.47,9.47,0,0,0,3.3-.054,6.289,6.289,0,0,0,1.281-.384c1.81-1.733.736-5.562,1.644-7.6.214-.48.84-1.361.805-1.4A4.067,4.067,0,0,0,41.179,59.074Z" transform="translate(-24.652 -40.765)"/><path class="f" d="M69.047,29.149a4.449,4.449,0,0,0-4.787-3.967c-.036,0-.071,0-.106.006A4.432,4.432,0,0,0,61.435,26.5c-.057.058-.108.121-.162.181l-.034.042a4.5,4.5,0,0,0-.3.394,4.435,4.435,0,0,0,.537,5.647l.02.022a4.583,4.583,0,0,0,.979.726,4.449,4.449,0,0,0,6.571-4.365Z" transform="translate(-41.524 -17.369)"/><path class="e" d="M25.509,40.193a3.621,3.621,0,0,1-.883-2.408,3.47,3.47,0,0,1,.471-1.691,3.175,3.175,0,0,0-1.375-.382,3.216,3.216,0,1,0,2.446,5.1,3.967,3.967,0,0,1-.642-.593Z" transform="translate(-14.059 -24.644)"/><path class="d" d="M44.852,35.93l-.019-.022a4.436,4.436,0,0,1-.35-5.662,3.756,3.756,0,0,0-1.352-.429,4.449,4.449,0,0,0-.624-.045c-.033,0-.065,0-.1,0a4.28,4.28,0,0,0-2.6.919c-.056.045-.108.094-.162.142a3.892,3.892,0,0,0-.516.56,3.688,3.688,0,0,0-.332.526,3.471,3.471,0,0,0-.392,1.711,3.62,3.62,0,0,0,.993,2.364l.017.02a3.985,3.985,0,0,0,.669.563c.055.037.11.075.167.109a4.344,4.344,0,0,0,1.324.535,4.554,4.554,0,0,0,.794.107c.087.007.175.012.264.013a3.761,3.761,0,0,0,2.629-1.027A4.4,4.4,0,0,1,44.852,35.93Z" transform="translate(-26.507 -20.545)"/><path class="f" d="M32.439,46a4.273,4.273,0,0,0-4.339.929,4.629,4.629,0,0,0-.871,1.263c-.908,1.895-.243,4.29-1.25,6.123-.961,1.749-3.218,1.644-4.947,1.322-4.635-.863-8.58-4.752-9.471-8.551a22.485,22.485,0,0,1-.578-3.653c-.149-1.789.38-4.5-.346-2.72-.522.941-.077,2.585-.064,3.728a14.55,14.55,0,0,0,1.2,4.927,13.043,13.043,0,0,0,5.876,7.177,15.778,15.778,0,0,0,8.72,2.6,12.5,12.5,0,0,0,1.46-.084c2.771-.359,4.914-.7,6.34-2.388,1.156-1.368,1.492-3.954,1.391-5.737C35.425,48.587,34.6,46.912,32.439,46Z" transform="translate(-7.166 -27.693)"/><path class="g" d="M19.637,1.5A17.418,17.418,0,0,1,30.312,5.035l.088.054A18.353,18.353,0,0,0,18.524.022C8.125-.428,1.327,6.01.253,12.857A15.357,15.357,0,0,0,2.128,23.68q.3.589.657,1.159a15.427,15.427,0,0,0,7.491,6.134A15.693,15.693,0,0,0,14,31.905a18.493,18.493,0,0,0,3.431.284,27.652,27.652,0,0,0,3.157-.259,17.358,17.358,0,0,0,3.049-.752,9.075,9.075,0,0,0,2.151-1.106c.14-.1.239-.182.372-.291l.231-.218a15.139,15.139,0,0,1-5.612,1.72c-.488.049-.982.077-1.482.082a16.524,16.524,0,0,1-2.164-.122C9.069,30.05,3.925,24.1,3.632,17.1c0-.029,0,.015,0-.014C3.607,16.541,3.58,16,3.58,15.472,3.58,7.756,10.77,1.5,19.637,1.5Z" transform="translate(0 0)"/></g></g></svg>