<svg xmlns="http://www.w3.org/2000/svg" width="30.817" height="31.03" viewBox="0 0 30.817 31.03"><defs><style>.a{fill:#292929;}</style></defs><path class="a" d="M108.651,103.3l-5.892-5.908a2.276,2.276,0,0,0-2.649-.411,2.02,2.02,0,0,0-.457-.746l-.563-.563a10.889,10.889,0,0,0,1.827-6.06,11.027,11.027,0,0,0-.807-4.141c-.244.259-.563.594-.929.99a9.848,9.848,0,0,1-1.568,9.211h0l-1.66,1.66h0a9.79,9.79,0,1,1,2.071-13.185l.853-.914a11.013,11.013,0,1,0-3.715,16.048l.731.731a1.841,1.841,0,0,0,.99.518,2.242,2.242,0,0,0,.609,2.147l5.908,5.908a3.547,3.547,0,0,0,5.04,0l.244-.244a3.547,3.547,0,0,0-.03-5.04ZM96.744,99.155l-.457-.457.472-.472a10.907,10.907,0,0,0,1.583-1.553h0l.442.442a.69.69,0,0,1,0,.959l-1.1,1.1A.686.686,0,0,1,96.744,99.155Zm11.054,8.328-.244.244a2.353,2.353,0,0,1-3.319,0l-5.908-5.908a1.057,1.057,0,0,1,0-1.492l2.071-2.071a1.023,1.023,0,0,1,.746-.3,1.061,1.061,0,0,1,.746.3l5.908,5.908a2.353,2.353,0,0,1,0,3.319Z" transform="translate(-78.9 -78.6)"/><path class="a" d="M117.47,83.942a.571.571,0,0,0,.167.015c.137,0,.274-.015.411-.015.716-.03,1.416-.015,2.162-.03l-3.2,3.4-.868.914L114.7,89.758l-.9.959-.472.5-.061.061-.244.259-.244.259-3,3.2-3.365-3.38-.061-.076a.62.62,0,0,0-.32-.167.7.7,0,0,0-.365.046,7.132,7.132,0,0,0-.731.624l-3.365,3.121-.122.107a6.332,6.332,0,0,1-.335-2.1,6.578,6.578,0,0,1,12.409-3.045l.868-.929a7.786,7.786,0,1,0,1.1,3.974,7.634,7.634,0,0,0-.137-1.446c-.35.381-.731.777-1.1,1.157,0,.091.015.2.015.289a6.575,6.575,0,0,1-12.287,3.258l3.913-3.608,3.35,3.35.152.152a.636.636,0,0,0,.426.152c.213-.03.274-.061.32-.107.015-.015,1.446-1.523,3.06-3.258.076-.076.152-.167.244-.259h0c.076-.076.152-.167.244-.259l.061-.061h0c.152-.152.289-.3.442-.457.335-.365.685-.716,1-1.066.563-.594,1.1-1.157,1.538-1.629.381-.4.685-.731.9-.959.228-.228.35-.365.35-.365l2.969-3.182v2.375c0,.442.213.731.67.731h.03c.442,0,.594-.3.594-.7,0-1.279.015-2.558-.03-3.837a.7.7,0,0,0-.107-.442.69.69,0,0,0-.426-.183c-1.34-.015-2.8-.015-4.126-.015a.533.533,0,0,0-.518.533A.52.52,0,0,0,117.47,83.942Z" transform="translate(-96.703 -82.161)"/></svg>