<svg xmlns="http://www.w3.org/2000/svg" width="30.817" height="31.015" viewBox="0 0 30.817 31.015"><defs><style>.a{fill:#292929;}</style></defs><path class="a" d="M108.2,101.018a6.51,6.51,0,0,1,3.152.807,1.336,1.336,0,0,1,.32-.548l.426-.426a7.7,7.7,0,0,0-3.9-1.051,7.8,7.8,0,1,0,6.943,11.343,1.276,1.276,0,0,1-.5-.655,3.79,3.79,0,0,1-.442-.167,6.576,6.576,0,1,1-6-9.3Z" transform="translate(-97.203 -96.572)"/><path class="a" d="M109.151,103.3l-5.892-5.908a2.276,2.276,0,0,0-2.649-.411,2.02,2.02,0,0,0-.457-.746l-.563-.563a10.987,10.987,0,0,0,1.507-3.426,5.625,5.625,0,0,1-.639.259,1.283,1.283,0,0,1-1,.853,9.566,9.566,0,0,1-1.34,2.284h0l-1.66,1.66h0l-.015.015a9.789,9.789,0,1,1,.137-15.3,2.218,2.218,0,0,1,.289-.107,1.309,1.309,0,0,1,.655-.685,11.006,11.006,0,1,0-1.858,18.058h0l.731.731a1.841,1.841,0,0,0,.99.518,2.27,2.27,0,0,0,.594,2.147l5.908,5.908a3.6,3.6,0,0,0,5.055,0l.244-.244a3.545,3.545,0,0,0,1.035-2.527A3.631,3.631,0,0,0,109.151,103.3ZM96.788,98.7l.472-.472h0a11.12,11.12,0,0,0,1.6-1.568h0l.442.442a.69.69,0,0,1,0,.959l-1.1,1.1a.69.69,0,0,1-.959,0Zm11.511,8.785-.244.244a2.353,2.353,0,0,1-3.319,0l-5.908-5.908a1.057,1.057,0,0,1,0-1.492l2.071-2.071a1.023,1.023,0,0,1,.746-.3,1.061,1.061,0,0,1,.746.3l5.908,5.908a2.353,2.353,0,0,1,0,3.319Z" transform="translate(-79.4 -78.6)"/><path class="a" d="M173.332,101.233l-.107-.107a.515.515,0,0,0-.731,0l-.3.3-.548.548a.536.536,0,0,0-.137.472.48.48,0,0,0,.137.259l.107.107a4.635,4.635,0,0,0-.639,1.69h-.091a.513.513,0,0,0-.518.518v1.2a.513.513,0,0,0,.518.518h.228a4.968,4.968,0,0,0,.518,1.157l-.107.107a.524.524,0,0,0,0,.731l.853.853a.515.515,0,0,0,.731,0l.107-.107a3.933,3.933,0,0,0,.563.289,4.15,4.15,0,0,0,.868.289v.183a.482.482,0,0,0,.137.35.5.5,0,0,0,.381.167h1.2a.513.513,0,0,0,.518-.518v-.183c.061-.015.122-.03.167-.046a4.582,4.582,0,0,0,1.249-.548l.076.076.03.03a.515.515,0,0,0,.731,0l.853-.853a.524.524,0,0,0,0-.731l-.107-.107a4.642,4.642,0,0,0,.518-1.157h.228a.513.513,0,0,0,.518-.518v-1.188a.513.513,0,0,0-.518-.518h-.091a5.046,5.046,0,0,0-.639-1.69l.107-.107a.524.524,0,0,0,0-.731l-.853-.853a.5.5,0,0,0-.365-.152.472.472,0,0,0-.365.152l-.107.107a4.589,4.589,0,0,0-1.431-.594v-.122A.513.513,0,0,0,176.5,100h-1.2a.513.513,0,0,0-.518.518v.122l-.32.091A4.453,4.453,0,0,0,173.332,101.233Zm2.208.761a2.249,2.249,0,0,1,.32-.015,3.253,3.253,0,0,1,1.279.259,3.377,3.377,0,0,1,1.477,5.055,3.163,3.163,0,0,1-1.218,1.066,3.23,3.23,0,0,1-1.538.365c-.167,0-.335-.015-.5-.03a3.551,3.551,0,0,1-1.188-.411h0a3.369,3.369,0,0,1-1.309-4.476,3.294,3.294,0,0,1,.777-.99A3.475,3.475,0,0,1,175.54,101.995Z" transform="translate(-156.629 -96.742)"/></svg>