<svg xmlns="http://www.w3.org/2000/svg" xmlns:xlink="http://www.w3.org/1999/xlink" width="204" height="97" viewBox="0 0 204 97"><defs><style>.a{fill:#fff;stroke:#262626;opacity:0;}.b{clip-path:url(#a);}.c{fill:red;}</style><clipPath id="a"><rect class="a" width="204" height="97" transform="translate(1314.5 2824)"/></clipPath></defs><g class="b" transform="translate(-1314.5 -2824)"><g transform="translate(932.456 2437.516)"><path d="M650.49,434.621c2.382,0,4.765.027,7.147-.018.668-.013.843.155.836.825-.036,3.573.007,7.147-.04,10.72a12.922,12.922,0,0,0,.264,2.319c.22,1.318,1.26,1.974,2.959,1.958.615-.006,1.045.018.93.83-.051.361-.127.49-.5.489q-5.577-.016-11.153,0c-.485,0-.523-.236-.5-.6.024-.338-.122-.743.491-.719a3.54,3.54,0,0,0,2.242-.428c1.282-.847,1.306-2.223,1.339-3.441a44.962,44.962,0,0,0-.158-7.745,2.817,2.817,0,0,0-2.74-2.447c-2.851-.04-5.7.006-8.554-.023-.551-.005-.646.188-.643.678.019,3.248-.022,6.5.035,9.745a6.864,6.864,0,0,0,.517,2.343c.46,1.163,1.548,1.3,2.636,1.328.472.014.992-.185.967.691-.024.826-.527.6-.939.6-3.393.01-6.786,0-10.179.012-.5,0-.861.045-.861-.691s.4-.609.824-.619c2.025-.045,3.041-1.086,3.086-3.41.066-3.356.011-6.713.029-10.07,0-.464-.114-.628-.6-.608-.973.04-1.951-.034-2.922.022-.848.049-.566-.532-.594-.935s-.135-.872.6-.826c.935.059,1.878-.022,2.814.027.592.031.724-.188.713-.739-.034-1.551-.05-3.105,0-4.656a10.087,10.087,0,0,1,2.358-6.59,9.638,9.638,0,0,1,11.341-1.5c1.376.905,2.535,1.989,2.562,3.869a1.65,1.65,0,0,1-1.2,1.771,2.034,2.034,0,0,1-2.494-1.093c-.177-.451-.323-.915-.473-1.377a3.174,3.174,0,0,0-3.241-2.472,4.066,4.066,0,0,0-3.888,2.183,9.327,9.327,0,0,0-1.048,4.022c-.081,1.91.009,3.826-.037,5.738-.016.662.154.856.833.844C645.653,434.595,648.072,434.622,650.49,434.621Z" transform="translate(-141.631)"/><path d="M456.587,498.228c0-.938-.025-1.877.013-2.813.014-.343-.3-.894.5-.909.683-.013.918.255,1.015.893a5.453,5.453,0,0,0,3.742,4.529c1.944.714,3.968-.007,4.335-1.862a2.9,2.9,0,0,0-1.72-2.711c-1.64-.924-3.358-1.738-4.892-2.813-2.907-2.039-3.494-6.659-.071-8.614a6.936,6.936,0,0,1,5.535-.333,8.25,8.25,0,0,1,1.145.486c.436.2.812.322.8-.4s.552-.345.866-.413c.436-.095.435.221.434.529,0,1.659-.012,3.319.005,4.978,0,.407-.1.61-.539.555-.355-.044-.723.148-.8-.525a4.209,4.209,0,0,0-3.323-3.761,2.7,2.7,0,0,0-3,1.21c-.466,1.06-.1,1.847,1.106,2.73,1.559,1.145,3.392,1.813,4.958,2.936,1.6,1.146,2.9,2.523,2.872,4.641a5.717,5.717,0,0,1-5.6,5.574,8.083,8.083,0,0,1-4.613-1.238c-.614-.348-1.209-.637-1.273.519-.033.6-.468.745-1.055.709-.732-.045-.417-.557-.428-.867C456.563,500.249,456.587,499.238,456.587,498.228Z" transform="translate(0 -50.389)"/><path class="c" d="M566.374,552.021a2.775,2.775,0,0,1-2.992-2.848,2.991,2.991,0,0,1,3.02-3.1,3.024,3.024,0,0,1,2.957,2.987A2.822,2.822,0,0,1,566.374,552.021Z" transform="translate(-85.086 -100.467)"/><path class="c" d="M566.446,489.877A2.748,2.748,0,0,1,563.412,487c-.027-1.793,1.127-2.8,3-2.916a2.946,2.946,0,0,1,2.99,2.781A2.867,2.867,0,0,1,566.446,489.877Z" transform="translate(-85.109 -51.104)"/></g></g></svg>