<svg xmlns="http://www.w3.org/2000/svg" width="28.35" height="28.35" viewBox="0 0 28.35 28.35"><defs><style>.a{fill:#292929;}</style></defs><g transform="translate(0 0)"><path class="a" d="M140.972,166.151c-.372.436-.743.872-1.123,1.3-.275.315-.6.46-.953.137-.339-.307-.226-.622.032-.921.759-.88,4.418-5.129,5.177-6.017.258-.307.557-.444.9-.145a.59.59,0,0,1,.016.921C144.655,161.895,141.359,165.707,140.972,166.151Z" transform="translate(-127.871 -147.995)"/><path class="a" d="M33.15,9.7c0-1.535-.67-2.2-2.2-2.2H7c-1.535,0-2.2.67-2.2,2.2v23.94c0,1.535.67,2.2,2.2,2.2h23.94c1.535,0,2.2-.67,2.2-2.2ZM6.036,9.333a.7.7,0,0,1,.727-.63L7.191,8.7H30.783c1.09,0,1.179.1,1.179,1.2v2.52H6.012C6,11.337,5.979,10.367,6.036,9.333ZM31.954,33.822c-.008.622-.21.816-.824.84H7.142c-1.05,0-1.155-.1-1.155-1.171,0-1.664.032-15.491.032-19.821H31.93c0,4.313.032,15.871.032,16.695C31.962,31.512,31.962,32.667,31.954,33.822Z" transform="translate(-4.8 -7.5)"/><path class="a" d="M72.475,170.8c.646.638,1.26,1.252,1.874,1.866a2.643,2.643,0,0,1,.3.315c.315.468.194.711.1.848a.6.6,0,0,1-.913.016c-.888-.872-1.761-1.745-2.625-2.633a.583.583,0,0,1,.048-.888q1.26-1.3,2.52-2.585a.564.564,0,0,1,.88-.04.583.583,0,0,1-.04.888c-.533.565-1.082,1.115-1.623,1.672C72.831,170.429,72.669,170.6,72.475,170.8Z" transform="translate(-65.674 -154.582)"/><path class="a" d="M243.523,171.125c-.7-.646-1.317-1.284-1.971-1.89a2.478,2.478,0,0,1-.388-.38.566.566,0,0,1,.816-.759c.937.9,1.842,1.817,2.714,2.778a.645.645,0,0,1,.17.4c-.008.162-.153.291-.218.372-.816.888-1.672,1.728-2.528,2.577-.267.267-.582.372-.872.057a.6.6,0,0,1,.048-.929C241.98,172.66,242.675,171.974,243.523,171.125Z" transform="translate(-221.966 -155.02)"/><path class="a" d="M95.424,31.128A.913.913,0,0,1,93.6,31.1a.935.935,0,0,1,.929-.9A.912.912,0,0,1,95.424,31.128Z" transform="translate(-86.426 -28.365)"/><path class="a" d="M63.619,32.024A.913.913,0,0,1,63.6,30.2a.935.935,0,0,1,.929.9A.907.907,0,0,1,63.619,32.024Z" transform="translate(-58.022 -28.365)"/><path class="a" d="M32.5,32.024a.912.912,0,0,1-.9-.921.935.935,0,0,1,.929-.9.912.912,0,0,1,.9.929A.9.9,0,0,1,32.5,32.024Z" transform="translate(-29.434 -28.365)"/></g></svg>