<svg xmlns="http://www.w3.org/2000/svg" width="21.306" height="27.438" viewBox="0 0 21.306 27.438"><defs><style>.a{fill:#292929;}</style></defs><g transform="translate(0 0)"><path class="a" d="M122.056,103.854c.485.525.88.961,1.276,1.389.315.339.678.485,1.058.121s.226-.727-.1-1.058c-.792-.792-1.575-1.583-2.367-2.367a.724.724,0,0,0-1.2.008c-.792.783-1.575,1.575-2.367,2.367-.331.331-.477.687-.1,1.05s.735.2,1.058-.129c.4-.42.808-.832,1.349-1.373v1.43a3.971,3.971,0,0,1-3.877,4.337c-.46.048-.832.218-.792.727s.42.614.888.606a5.238,5.238,0,0,0,4.927-3.982C121.991,106.035,121.959,105.042,122.056,103.854Zm-8.747,13.731c-.468-.509-.856-.945-1.26-1.373-.307-.323-.687-.5-1.066-.153-.412.38-.242.767.113,1.1.428.4.864.783,1.365,1.236-.525.493-.929.88-1.341,1.268-.347.323-.565.7-.153,1.1.388.38.767.2,1.107-.145.4-.412.816-.816,1.276-1.284.452.477.84.9,1.228,1.308.315.339.7.485,1.066.137.4-.38.218-.775-.129-1.107-.42-.4-.848-.8-1.325-1.244.509-.493.953-.9,1.389-1.333a.675.675,0,1,0-.937-.953C114.221,116.6,113.809,117.044,113.309,117.585Zm-1.446-13.48c.5-.485.929-.9,1.365-1.325.323-.307.428-.662.1-1.01-.355-.372-.727-.258-1.05.081-.42.436-.832.872-1.308,1.365-.485-.509-.9-.945-1.325-1.373-.307-.315-.662-.436-1.01-.1-.38.363-.258.727.081,1.05.436.42.864.84,1.349,1.308-.493.477-.929.9-1.357,1.325-.315.307-.436.654-.1,1.01.363.38.727.258,1.05-.081.42-.436.832-.872,1.325-1.373.5.525.921.977,1.357,1.43a.619.619,0,0,0,.961.065.633.633,0,0,0-.04-1.01C112.816,105.026,112.38,104.606,111.863,104.1Zm9.482,9.943c-.5-.509-.921-.921-1.325-1.349-.323-.331-.687-.477-1.058-.1s-.21.735.121,1.05c.436.412.88.824,1.357,1.268-.517.5-.937.913-1.365,1.325-.331.323-.485.678-.105,1.05s.743.218,1.05-.121c.4-.444.8-.9,1.236-1.381.541.549.953.969,1.357,1.389.323.339.695.477,1.058.1s.226-.743-.129-1.05c-.452-.4-.913-.783-1.413-1.212.582-.565,1-.969,1.43-1.381.339-.323.468-.687.1-1.05s-.735-.21-1.05.129C122.2,113.143,121.806,113.571,121.345,114.047Z" transform="translate(-103.308 -94.853)"/><path class="a" d="M208.351,104.749a24.278,24.278,0,0,1-.258,3.118,5.221,5.221,0,0,1-4.927,3.982c-.46.008-.848-.1-.888-.606s.339-.67.792-.727a3.976,3.976,0,0,0,3.877-4.337v-1.43c-.533.549-.945.961-1.349,1.373-.323.331-.678.493-1.058.129s-.234-.727.1-1.05c.792-.783,1.575-1.583,2.367-2.367a.728.728,0,0,1,1.2-.008c.8.783,1.575,1.575,2.367,2.367.323.323.477.687.1,1.058s-.743.21-1.058-.121C209.224,105.71,208.836,105.274,208.351,104.749Z" transform="translate(-189.603 -95.747)"/><path class="a" d="M139.987,280.709c.5-.541.913-.985,1.333-1.43a.675.675,0,1,1,.937.953c-.436.428-.88.84-1.389,1.333.477.444.9.84,1.325,1.244.347.331.525.727.129,1.107-.363.347-.743.194-1.066-.137-.388-.412-.775-.824-1.228-1.308-.468.46-.88.864-1.276,1.284-.339.347-.719.525-1.107.145-.4-.4-.186-.767.153-1.1.412-.388.824-.775,1.341-1.268-.5-.452-.937-.84-1.365-1.236-.355-.331-.525-.719-.113-1.1.38-.347.751-.178,1.066.153C139.131,279.764,139.519,280.2,139.987,280.709Z" transform="translate(-129.986 -257.976)"/><path class="a" d="M111.771,103.883c.517.5.961.921,1.389,1.349a.633.633,0,0,1,.04,1.01.619.619,0,0,1-.961-.065c-.436-.444-.864-.9-1.357-1.43-.485.509-.9.945-1.325,1.373-.323.339-.695.452-1.05.081-.339-.355-.218-.7.1-1.01.436-.42.864-.84,1.357-1.325-.477-.468-.913-.888-1.349-1.308-.339-.331-.46-.695-.081-1.05.347-.339.7-.218,1.01.1.42.436.84.872,1.325,1.373.468-.493.888-.929,1.308-1.365.323-.339.695-.46,1.05-.081.331.347.218.7-.1,1.01C112.7,102.978,112.264,103.4,111.771,103.883Z" transform="translate(-103.216 -94.631)"/><path class="a" d="M239.129,237.407c.452-.477.856-.9,1.26-1.333.315-.331.678-.493,1.05-.129s.242.727-.1,1.05c-.428.4-.848.816-1.43,1.381.5.428.961.816,1.413,1.212.355.307.493.678.129,1.05s-.727.234-1.058-.1c-.412-.42-.816-.84-1.357-1.389-.436.485-.832.937-1.236,1.381-.315.339-.678.485-1.05.121s-.226-.727.105-1.05c.42-.4.84-.816,1.365-1.325-.477-.444-.921-.856-1.357-1.268-.339-.315-.493-.678-.121-1.05s.727-.234,1.058.1C238.216,236.486,238.628,236.9,239.129,237.407Z" transform="translate(-221.091 -218.213)"/><path class="a" d="M240.523,19.353a2.166,2.166,0,0,0-1.018-.525,1.851,1.851,0,0,0-.783-.065,2.521,2.521,0,0,0-.824.178,2.6,2.6,0,0,0-1.591,2.843,2.658,2.658,0,0,0,2.229,2.181,2.62,2.62,0,0,0,2.682-1.486A2.575,2.575,0,0,0,240.523,19.353ZM238.9,22.632a1.276,1.276,0,0,1-.048-2.552,1.255,1.255,0,0,1,1.276,1.26A1.237,1.237,0,0,1,238.9,22.632Z" transform="translate(-220.862 -18.751)"/><path class="a" d="M50.436,295.026a2.621,2.621,0,0,0-3.182-1.656,2.592,2.592,0,0,0-1.809,3.085,2.741,2.741,0,0,0,2.1,2.052,2.675,2.675,0,0,0,.856-.008c.17-.065.331-.113.5-.178A2.617,2.617,0,0,0,50.436,295.026Zm-2.455,2.132a1.276,1.276,0,1,1,1.268-1.284A1.295,1.295,0,0,1,47.981,297.159Z" transform="translate(-45.378 -271.099)"/><ellipse class="a" cx="0.654" cy="0.654" rx="0.654" ry="0.654" transform="translate(9.985 14.768)"/><ellipse class="a" cx="0.654" cy="0.654" rx="0.654" ry="0.654" transform="translate(7.311 14.793)"/><ellipse class="a" cx="0.654" cy="0.654" rx="0.654" ry="0.654" transform="translate(4.783 15.148)"/><ellipse class="a" cx="0.654" cy="0.654" rx="0.654" ry="0.654" transform="translate(2.683 16.868)"/><ellipse class="a" cx="0.654" cy="0.654" rx="0.654" ry="0.654" transform="translate(1.948 19.396)"/></g></svg>