<svg xmlns="http://www.w3.org/2000/svg" xmlns:xlink="http://www.w3.org/1999/xlink" width="204" height="97" viewBox="0 0 204 97"><defs><style>.a{fill:#fff;stroke:#262626;opacity:0;}.b{clip-path:url(#a);}.c{fill:#1d1d1b;}.d{fill:#004c97;}.e{fill:#9e2235;}.f{fill:#636363;}</style><clipPath id="a"><rect class="a" width="204" height="97" transform="translate(581 3081)"/></clipPath></defs><g class="b" transform="translate(-581 -3081)"><g transform="translate(463.511 2942.295)"><path class="c" d="M368.339,341.783" transform="translate(-178.963 -154.992)"/><path class="d" d="M186.963,190.969l-9.648-16.712h19.3l-7.236,12.534,2.412,4.178,12.061-20.89h-33.77l16.885,29.245,2.412-4.178Z"/><path class="e" d="M318.108,255.636l-2.955,5.118-2.955-5.118Z" transform="translate(-128.287 -77.23)"/><g transform="translate(202.347 171.907)"><path class="f" d="M584,191.626h2.106l2.912,8.139h.06l2.942-8.139h2.031L589.813,202.2h-1.628Z" transform="translate(-575.985 -191.357)"/><path class="f" d="M707.675,191.626h1.882V202.2h-1.882Z" transform="translate(-687.619 -191.357)"/><path class="f" d="M979.6,191.626h3.674a6.632,6.632,0,0,1,1.449.157,3.729,3.729,0,0,1,1.247.515,2.692,2.692,0,0,1,.874.941,2.851,2.851,0,0,1,.329,1.419,2.7,2.7,0,0,1-.65,1.874,3.269,3.269,0,0,1-1.77.978l2.823,4.689H985.3l-2.449-4.48h-1.374v4.48H979.6Zm3.42,4.555a5.473,5.473,0,0,0,.807-.06,2.317,2.317,0,0,0,.724-.224,1.414,1.414,0,0,0,.53-.47,1.361,1.361,0,0,0,.209-.784,1.208,1.208,0,0,0-.194-.709,1.45,1.45,0,0,0-.493-.441,2.066,2.066,0,0,0-.679-.224,4.8,4.8,0,0,0-.739-.06h-1.7v2.972Z" transform="translate(-933.074 -191.357)"/><path class="f" d="M756.663,193.269h4.868l.948-1.643h-7.7V202.2h1.882v-4.45h4.659v-1.583h-4.659Z" transform="translate(-730.14 -191.357)"/><g transform="translate(0 14.747)"><path class="f" d="M501.614,340.382h3.45a7.532,7.532,0,0,1,1.643.164,3.427,3.427,0,0,1,1.254.538,2.5,2.5,0,0,1,.807.956,3.182,3.182,0,0,1,.284,1.4,3.034,3.034,0,0,1-.329,1.479,2.664,2.664,0,0,1-.889.963,3.89,3.89,0,0,1-1.307.53,7.346,7.346,0,0,1-1.583.164H503.5v4.376h-1.882Zm3.2,4.615a5.545,5.545,0,0,0,.881-.067,2.434,2.434,0,0,0,.747-.239,1.364,1.364,0,0,0,.523-.47,1.4,1.4,0,0,0,.194-.777,1.251,1.251,0,0,0-.709-1.21,2.211,2.211,0,0,0-.732-.217,6.7,6.7,0,0,0-.844-.052H503.5V345Z" transform="translate(-501.614 -340.382)"/><path class="f" d="M599.812,340.382h1.882v4.271h4.943v-4.271h1.882v10.573h-1.882v-4.689h-4.943v4.689h-1.882Z" transform="translate(-590.254 -340.382)"/><path class="f" d="M712.279,340.382h1.628l4.555,10.573h-2.151l-.986-2.419h-4.585l-.956,2.419h-2.106Zm2.39,6.541-1.628-4.3-1.658,4.3Z" transform="translate(-687.622 -340.382)"/><path class="f" d="M836.874,340.382h3.674a6.629,6.629,0,0,1,1.449.157,3.727,3.727,0,0,1,1.247.515,2.693,2.693,0,0,1,.874.941,2.85,2.85,0,0,1,.328,1.419,2.7,2.7,0,0,1-.65,1.874,3.27,3.27,0,0,1-1.77.978l2.823,4.689h-2.27l-2.449-4.48h-1.374v4.48h-1.882Zm3.42,4.555a5.47,5.47,0,0,0,.807-.06,2.319,2.319,0,0,0,.724-.224,1.412,1.412,0,0,0,.53-.471,1.361,1.361,0,0,0,.209-.784,1.209,1.209,0,0,0-.194-.709,1.451,1.451,0,0,0-.493-.441,2.065,2.065,0,0,0-.679-.224,4.781,4.781,0,0,0-.739-.06h-1.7v2.972Z" transform="translate(-804.243 -340.382)"/><path class="f" d="M944.127,340.382h2.942l2.748,7.512h.045l2.718-7.512h2.957v10.573H953.67v-8.5h-.03l-3.211,8.5h-1.314l-3.166-8.5h-.03v8.5h-1.792Z" transform="translate(-901.057 -340.382)"/><path class="f" d="M1084.368,340.382H1086l4.555,10.573H1088.4l-.986-2.419h-4.585l-.956,2.419h-2.106Zm2.39,6.541-1.628-4.3-1.658,4.3Z" transform="translate(-1023.496 -340.382)"/></g><path class="f" d="M841.117,194.391a6.078,6.078,0,0,1,.413-2.292,4.937,4.937,0,0,1,2.883-2.845,6.048,6.048,0,0,1,2.195-.388,6.15,6.15,0,0,1,2.216.388,5.11,5.11,0,0,1,1.753,1.105,4.992,4.992,0,0,1,1.152,1.74,6.078,6.078,0,0,1,.413,2.292,5.991,5.991,0,0,1-.413,2.263,5.143,5.143,0,0,1-2.9,2.912,5.852,5.852,0,0,1-2.216.411,5.756,5.756,0,0,1-2.195-.411,5.147,5.147,0,0,1-1.738-1.15,5.283,5.283,0,0,1-1.145-1.762A5.991,5.991,0,0,1,841.117,194.391Zm1.985,0a4.607,4.607,0,0,0,.253,1.561,3.65,3.65,0,0,0,.724,1.232A3.326,3.326,0,0,0,845.2,198a3.427,3.427,0,0,0,1.427.291,3.478,3.478,0,0,0,1.434-.291,3.309,3.309,0,0,0,1.123-.814,3.655,3.655,0,0,0,.724-1.232,4.61,4.61,0,0,0,.254-1.561,4.457,4.457,0,0,0-.254-1.523,3.742,3.742,0,0,0-.717-1.225,3.329,3.329,0,0,0-1.116-.821,3.438,3.438,0,0,0-1.449-.3,3.388,3.388,0,0,0-1.441.3,3.342,3.342,0,0,0-1.108.821,3.735,3.735,0,0,0-.717,1.225A4.454,4.454,0,0,0,843.1,194.391Z" transform="translate(-808.073 -188.865)"/></g></g></g></svg>