<svg xmlns="http://www.w3.org/2000/svg" width="432.921" height="399.082" viewBox="0 0 432.921 399.082"><defs><style>.a{opacity:0.1;}.b{fill:#fff;}</style></defs><g class="a" transform="translate(-448.544 -213.236)"><g transform="translate(586.028 316.278)"><path class="b" d="M491.56,275.656c-3.014,3.689-6.034,7.378-9.118,11-2.229,2.664-4.854,3.891-7.736,1.157-2.757-2.594-1.841-5.258.264-7.782,6.159-7.448,35.874-43.377,42.033-50.887,2.1-2.594,4.528-3.759,7.347-1.235,2.757,2.462,2.167,5.266.132,7.79C521.469,239.658,494.706,271.9,491.56,275.656Z" transform="translate(-420.618 -226.503)"/><path class="b" d="M479.411,257.686c5.8,6.035,11.378,11.767,16.877,17.5a24.185,24.185,0,0,1,2.68,2.943c2.827,4.419,1.708,6.664.893,7.984-1.857,2.944-5.872,2.555-8.256.148-7.953-8.132-15.914-16.419-23.719-24.783-2.532-2.711-1.934-5.81.443-8.365q11.265-12.2,22.756-24.317c2.454-2.633,5.282-3.1,7.961-.388,2.672,2.788,1.856,5.81-.373,8.365-4.839,5.343-9.747,10.532-14.656,15.72C482.6,254.2,481.12,255.822,479.411,257.686Z" transform="translate(-466.246 -225.961)"/><path class="b" d="M504.589,256.139c-6.322-6.042-11.907-12.077-17.778-17.731a26.413,26.413,0,0,1-3.495-3.565,5.456,5.456,0,0,1,.894-6.819,4.819,4.819,0,0,1,6.469-.311q12.722,12.547,24.465,26.181a6.058,6.058,0,0,1,1.491,3.8c-.077,1.468-1.344,2.711-2.011,3.487-7.363,8.365-15.1,16.186-22.826,24.162-2.385,2.478-5.281,3.487-7.883.544-2.609-2.866-2.237-5.965.443-8.753C490.679,270.624,496.923,264.116,504.589,256.139Z" transform="translate(-358.692 -225.727)"/></g><g transform="translate(448.544 213.236)"><path class="b" d="M838.748,213.236H491.26c-23.556,0-42.716,19.96-42.716,44.487V480c0,24.527,19.16,44.48,42.716,44.48H601.143L565.758,586.09a17.76,17.76,0,0,0-.194,17.444,16.369,16.369,0,0,0,14.477,8.784H749.96a16.371,16.371,0,0,0,14.484-8.784,17.761,17.761,0,0,0-.194-17.444l-35.385-61.613H838.748c23.556,0,42.717-19.953,42.717-44.48V257.723C881.465,233.2,862.3,213.236,838.748,213.236ZM750.915,594.393a1.1,1.1,0,0,1,.015,1.157,1.023,1.023,0,0,1-.971.59H580.041a1.023,1.023,0,0,1-.963-.583,1.1,1.1,0,0,1,.015-1.165l40.146-69.916h91.53ZM865.931,480c0,15.6-12.194,28.3-27.183,28.3H491.26c-14.99,0-27.183-12.7-27.183-28.3V257.723c0-15.611,12.193-28.31,27.183-28.31H838.748c14.99,0,27.183,12.7,27.183,28.31Z" transform="translate(-448.544 -213.236)"/><path class="b" d="M797.7,218.742H468.758c-8.559,0-15.518,7.254-15.518,16.162v158.82c0,8.916,6.959,16.17,15.518,16.17H797.7c8.559,0,15.518-7.254,15.518-16.17V234.9C813.216,226,806.258,218.742,797.7,218.742ZM468.773,393.725l-.015-158.8,328.925-.015.024,158.812Z" transform="translate(-416.768 -175.979)"/></g></g></svg>