<svg xmlns="http://www.w3.org/2000/svg" width="28.132" height="28.132" viewBox="0 0 28.132 28.132"><defs><style>.a{fill:#292929;}</style></defs><g transform="translate(0 0)"><path class="a" d="M5.6,24.17V12.289c0-1.527.662-2.189,2.189-2.189H31.543c1.527,0,2.189.662,2.189,2.189V36.043c0,1.527-.662,2.189-2.189,2.189H7.789c-1.527,0-2.189-.662-2.189-2.189C5.6,32.093,5.6,28.128,5.6,24.17Zm1.212,4.886H32.52V16.23H6.812C6.812,20.519,6.812,24.776,6.812,29.056Zm25.741,1.252H6.779v5.581c0,1.058.1,1.163,1.147,1.163h23.8c.606-.024.816-.218.816-.832.008-1.147,0-2.286,0-3.433C32.552,31.98,32.552,31.164,32.552,30.308Zm0-15.33v-2.5c0-1.09-.1-1.187-1.171-1.187H7.967l-.428.008a.7.7,0,0,0-.719.63C6.763,12.951,6.8,13.92,6.8,14.978Z" transform="translate(-5.6 -10.1)"/><path class="a" d="M43.227,130.689c.63.63,1.236,1.228,1.833,1.825a2.5,2.5,0,0,1,.291.307c.307.46.186.695.1.832a.584.584,0,0,1-.9.016c-.864-.848-1.728-1.712-2.577-2.585a.577.577,0,0,1,.048-.872q1.224-1.272,2.472-2.536a.552.552,0,0,1,.864-.04.576.576,0,0,1-.04.872c-.525.557-1.058,1.1-1.591,1.64C43.575,130.326,43.413,130.5,43.227,130.689Z" transform="translate(-38.874 -117.968)"/><path class="a" d="M274.159,131.261c-.687-.63-1.292-1.26-1.93-1.85a2.764,2.764,0,0,1-.38-.372.552.552,0,0,1,.1-.711.539.539,0,0,1,.7-.032q1.381,1.308,2.657,2.73a.617.617,0,0,1,.162.4.661.661,0,0,1-.218.363c-.8.872-1.64,1.688-2.48,2.52-.258.258-.573.363-.856.057a.593.593,0,0,1,.048-.913C272.649,132.771,273.327,132.093,274.159,131.261Z" transform="translate(-250.227 -118.645)"/><path class="a" d="M61.1,307.11H59.352c-.388,0-.646-.186-.654-.573a.565.565,0,0,1,.622-.606c1.2-.008,2.4-.008,3.594,0a.567.567,0,0,1,.63.606c-.008.388-.267.573-.654.573C62.292,307.1,61.694,307.11,61.1,307.11Z" transform="translate(-54.409 -282.032)"/><path class="a" d="M243.2,307.138h-1.745c-.388,0-.654-.178-.662-.565-.016-.42.267-.614.67-.614,1.163-.008,2.326,0,3.481,0,.4,0,.695.178.687.6s-.291.59-.695.582C244.362,307.13,243.781,307.138,243.2,307.138Z" transform="translate(-221.796 -282.06)"/><path class="a" d="M61.056,275.708h1.737c.388,0,.646.186.646.573a.571.571,0,0,1-.638.6q-1.793.024-3.586,0a.567.567,0,0,1-.622-.614c.016-.388.283-.565.662-.565C59.86,275.708,60.458,275.708,61.056,275.708Z" transform="translate(-54.311 -254.248)"/><path class="a" d="M243.191,276.979c-.565,0-1.123.008-1.688,0-.388-.008-.695-.17-.7-.59s.291-.59.687-.59h3.481c.38,0,.654.162.67.549.016.42-.267.614-.662.63C244.386,276.987,243.788,276.979,243.191,276.979Z" transform="translate(-221.803 -254.34)"/><path class="a" d="M152.484,276.979H150.8c-.412,0-.727-.145-.711-.622.008-.452.315-.557.7-.557h3.417c.4,0,.687.129.687.582s-.291.6-.678.6C153.639,276.987,153.057,276.979,152.484,276.979Z" transform="translate(-138.422 -254.34)"/><path class="a" d="M152.323,307.1H150.53c-.388,0-.63-.186-.63-.582a.555.555,0,0,1,.63-.59c1.179-.008,2.35-.008,3.53,0,.4,0,.67.194.654.622-.016.4-.275.557-.654.557C153.486,307.1,152.9,307.11,152.323,307.1Z" transform="translate(-138.245 -282.032)"/><path class="a" d="M94.493,37.411a.893.893,0,0,1-.9.88.905.905,0,0,1-.888-.9.9.9,0,1,1,1.793.024Z" transform="translate(-85.665 -34.366)"/><path class="a" d="M63.3,38.384a.893.893,0,0,1-.024-1.785.905.905,0,0,1,.9.888A.881.881,0,0,1,63.3,38.384Z" transform="translate(-57.811 -34.458)"/><path class="a" d="M32.888,38.293a.905.905,0,0,1-.888-.9.923.923,0,0,1,.913-.888.9.9,0,0,1-.024,1.793Z" transform="translate(-29.868 -34.368)"/></g></svg>